<mxfile host="app.diagrams.net" agent="Mozilla/5.0 (Windows NT 10.0; Win64; x64) AppleWebKit/537.36 (KHTML, like Gecko) Chrome/135.0.0.0 Safari/537.36" version="26.2.3" pages="5">
  <diagram id="q2HGOC2hvB-VXhbnTaA0" name="C1 - Context">
    <mxGraphModel dx="2047" dy="1398" grid="1" gridSize="10" guides="1" tooltips="1" connect="1" arrows="1" fold="1" page="0" pageScale="1" pageWidth="850" pageHeight="1100" math="0" shadow="0">
      <root>
        <mxCell id="0" />
        <mxCell id="1" parent="0" />
        <object placeholders="1" c4Name="EMT" c4Type="Software System" c4Description="EMT" label="&lt;font style=&quot;font-size: 16px&quot;&gt;&lt;b&gt;%c4Name%&lt;/b&gt;&lt;/font&gt;&lt;div&gt;[%c4Type%]&lt;/div&gt;&lt;br&gt;&lt;div&gt;&lt;font style=&quot;font-size: 11px&quot;&gt;&lt;font color=&quot;#cccccc&quot;&gt;%c4Description%&lt;/font&gt;&lt;/div&gt;" id="eeYlzu7ipkMlTdIJp50H-1">
          <mxCell style="rounded=1;whiteSpace=wrap;html=1;labelBackgroundColor=none;fillColor=#1061B0;fontColor=#ffffff;align=center;arcSize=10;strokeColor=#0D5091;metaEdit=1;resizable=0;points=[[0.25,0,0],[0.5,0,0],[0.75,0,0],[1,0.25,0],[1,0.5,0],[1,0.75,0],[0.75,1,0],[0.5,1,0],[0.25,1,0],[0,0.75,0],[0,0.5,0],[0,0.25,0]];" parent="1" vertex="1">
            <mxGeometry x="320" y="440" width="240" height="120" as="geometry" />
          </mxCell>
        </object>
        <object placeholders="1" c4Name="User" c4Type="Person" c4Description="Internal/External user" label="&lt;font style=&quot;font-size: 16px&quot;&gt;&lt;b&gt;%c4Name%&lt;/b&gt;&lt;/font&gt;&lt;div&gt;[%c4Type%]&lt;/div&gt;&lt;br&gt;&lt;div&gt;&lt;font style=&quot;font-size: 11px&quot;&gt;&lt;font color=&quot;#cccccc&quot;&gt;%c4Description%&lt;/font&gt;&lt;/div&gt;" id="eeYlzu7ipkMlTdIJp50H-8">
          <mxCell style="html=1;fontSize=11;dashed=0;whiteSpace=wrap;fillColor=#083F75;strokeColor=#06315C;fontColor=#ffffff;shape=mxgraph.c4.person2;align=center;metaEdit=1;points=[[0.5,0,0],[1,0.5,0],[1,0.75,0],[0.75,1,0],[0.5,1,0],[0.25,1,0],[0,0.75,0],[0,0.5,0]];resizable=0;" parent="1" vertex="1">
            <mxGeometry x="-220" y="380" width="200" height="180" as="geometry" />
          </mxCell>
        </object>
        <object placeholders="1" c4Type="Relationship" c4Technology="HTTPS" c4Description="Interaction" label="&lt;div style=&quot;text-align: left; font-size: 12px;&quot;&gt;&lt;div style=&quot;text-align: center; font-size: 12px;&quot;&gt;&lt;b style=&quot;font-size: 12px;&quot;&gt;%c4Description%&lt;/b&gt;&lt;/div&gt;&lt;div style=&quot;text-align: center; font-size: 12px;&quot;&gt;[%c4Technology%]&lt;/div&gt;&lt;/div&gt;" id="eeYlzu7ipkMlTdIJp50H-11">
          <mxCell style="endArrow=blockThin;html=1;fontSize=12;fontColor=#404040;strokeWidth=1;endFill=1;strokeColor=#828282;elbow=vertical;metaEdit=1;endSize=14;startSize=14;jumpStyle=arc;jumpSize=16;rounded=0;exitX=1.007;exitY=0.637;exitDx=0;exitDy=0;exitPerimeter=0;entryX=0;entryY=0.5;entryDx=0;entryDy=0;entryPerimeter=0;" parent="1" source="eeYlzu7ipkMlTdIJp50H-8" target="eeYlzu7ipkMlTdIJp50H-1" edge="1">
            <mxGeometry x="-0.3676" y="-1" width="240" relative="1" as="geometry">
              <mxPoint x="90" y="700" as="sourcePoint" />
              <mxPoint x="330" y="500" as="targetPoint" />
              <mxPoint as="offset" />
            </mxGeometry>
          </mxCell>
        </object>
        <object placeholders="1" c4Name="[System Context] EMT" c4Type="ContainerScopeBoundary" c4Description="Knowledge Management" label="&lt;font style=&quot;font-size: 16px&quot;&gt;&lt;b&gt;&lt;div style=&quot;text-align: left&quot;&gt;%c4Name%&lt;/div&gt;&lt;/b&gt;&lt;/font&gt;&lt;div style=&quot;text-align: left&quot;&gt;%c4Description%&lt;/div&gt;" id="eeYlzu7ipkMlTdIJp50H-20">
          <mxCell style="text;html=1;strokeColor=none;fillColor=none;align=left;verticalAlign=top;whiteSpace=wrap;rounded=0;metaEdit=1;allowArrows=0;resizable=1;rotatable=0;connectable=0;recursiveResize=0;expand=0;pointerEvents=0;points=[[0.25,0,0],[0.5,0,0],[0.75,0,0],[1,0.25,0],[1,0.5,0],[1,0.75,0],[0.75,1,0],[0.5,1,0],[0.25,1,0],[0,0.75,0],[0,0.5,0],[0,0.25,0]];" parent="1" vertex="1">
            <mxGeometry x="-240" y="-40" width="260" height="40" as="geometry" />
          </mxCell>
        </object>
        <mxCell id="eeYlzu7ipkMlTdIJp50H-21" value="Legend" style="shape=table;startSize=30;container=1;collapsible=0;childLayout=tableLayout;fontSize=16;align=left;verticalAlign=top;fillColor=none;strokeColor=none;fontColor=#4D4D4D;fontStyle=1;spacingLeft=6;spacing=0;resizable=0;" parent="1" vertex="1">
          <mxGeometry x="1100" y="730" width="180" height="150" as="geometry" />
        </mxCell>
        <mxCell id="eeYlzu7ipkMlTdIJp50H-22" value="" style="shape=tableRow;horizontal=0;startSize=0;swimlaneHead=0;swimlaneBody=0;strokeColor=inherit;top=0;left=0;bottom=0;right=0;collapsible=0;dropTarget=0;fillColor=none;points=[[0,0.5],[1,0.5]];portConstraint=eastwest;fontSize=12;" parent="eeYlzu7ipkMlTdIJp50H-21" vertex="1">
          <mxGeometry y="30" width="180" height="30" as="geometry" />
        </mxCell>
        <mxCell id="eeYlzu7ipkMlTdIJp50H-23" value="Person" style="shape=partialRectangle;html=1;whiteSpace=wrap;connectable=0;strokeColor=inherit;overflow=hidden;fillColor=#1E4074;top=0;left=0;bottom=0;right=0;pointerEvents=1;fontSize=12;align=left;fontColor=#FFFFFF;gradientColor=none;spacingLeft=10;spacingRight=4;" parent="eeYlzu7ipkMlTdIJp50H-22" vertex="1">
          <mxGeometry width="180" height="30" as="geometry">
            <mxRectangle width="180" height="30" as="alternateBounds" />
          </mxGeometry>
        </mxCell>
        <mxCell id="eeYlzu7ipkMlTdIJp50H-24" value="" style="shape=tableRow;horizontal=0;startSize=0;swimlaneHead=0;swimlaneBody=0;strokeColor=inherit;top=0;left=0;bottom=0;right=0;collapsible=0;dropTarget=0;fillColor=none;points=[[0,0.5],[1,0.5]];portConstraint=eastwest;fontSize=12;" parent="eeYlzu7ipkMlTdIJp50H-21" vertex="1">
          <mxGeometry y="60" width="180" height="30" as="geometry" />
        </mxCell>
        <mxCell id="eeYlzu7ipkMlTdIJp50H-25" value="Software System" style="shape=partialRectangle;html=1;whiteSpace=wrap;connectable=0;strokeColor=inherit;overflow=hidden;fillColor=#3162AF;top=0;left=0;bottom=0;right=0;pointerEvents=1;fontSize=12;align=left;fontColor=#FFFFFF;gradientColor=none;spacingLeft=10;spacingRight=4;" parent="eeYlzu7ipkMlTdIJp50H-24" vertex="1">
          <mxGeometry width="180" height="30" as="geometry">
            <mxRectangle width="180" height="30" as="alternateBounds" />
          </mxGeometry>
        </mxCell>
        <mxCell id="eeYlzu7ipkMlTdIJp50H-30" value="" style="shape=tableRow;horizontal=0;startSize=0;swimlaneHead=0;swimlaneBody=0;strokeColor=inherit;top=0;left=0;bottom=0;right=0;collapsible=0;dropTarget=0;fillColor=none;points=[[0,0.5],[1,0.5]];portConstraint=eastwest;fontSize=12;" parent="eeYlzu7ipkMlTdIJp50H-21" vertex="1">
          <mxGeometry y="90" width="180" height="30" as="geometry" />
        </mxCell>
        <mxCell id="eeYlzu7ipkMlTdIJp50H-31" value="External Person" style="shape=partialRectangle;html=1;whiteSpace=wrap;connectable=0;strokeColor=inherit;overflow=hidden;fillColor=#6b6477;top=0;left=0;bottom=0;right=0;pointerEvents=1;fontSize=12;align=left;fontColor=#FFFFFF;gradientColor=none;spacingLeft=10;spacingRight=4;" parent="eeYlzu7ipkMlTdIJp50H-30" vertex="1">
          <mxGeometry width="180" height="30" as="geometry">
            <mxRectangle width="180" height="30" as="alternateBounds" />
          </mxGeometry>
        </mxCell>
        <mxCell id="eeYlzu7ipkMlTdIJp50H-32" value="" style="shape=tableRow;horizontal=0;startSize=0;swimlaneHead=0;swimlaneBody=0;strokeColor=inherit;top=0;left=0;bottom=0;right=0;collapsible=0;dropTarget=0;fillColor=none;points=[[0,0.5],[1,0.5]];portConstraint=eastwest;fontSize=12;" parent="eeYlzu7ipkMlTdIJp50H-21" vertex="1">
          <mxGeometry y="120" width="180" height="30" as="geometry" />
        </mxCell>
        <mxCell id="eeYlzu7ipkMlTdIJp50H-33" value="External Software System" style="shape=partialRectangle;html=1;whiteSpace=wrap;connectable=0;strokeColor=inherit;overflow=hidden;fillColor=#8b8496;top=0;left=0;bottom=0;right=0;pointerEvents=1;fontSize=12;align=left;fontColor=#FFFFFF;gradientColor=none;spacingLeft=10;spacingRight=4;" parent="eeYlzu7ipkMlTdIJp50H-32" vertex="1">
          <mxGeometry width="180" height="30" as="geometry">
            <mxRectangle width="180" height="30" as="alternateBounds" />
          </mxGeometry>
        </mxCell>
        <object placeholders="1" c4Type="Relationship" c4Technology="HTTPS" c4Description="Setup Docusign Signature" label="&lt;div style=&quot;text-align: left; font-size: 12px;&quot;&gt;&lt;div style=&quot;text-align: center; font-size: 12px;&quot;&gt;&lt;b style=&quot;font-size: 12px;&quot;&gt;%c4Description%&lt;/b&gt;&lt;/div&gt;&lt;div style=&quot;text-align: center; font-size: 12px;&quot;&gt;[%c4Technology%]&lt;/div&gt;&lt;/div&gt;" id="wMWG5pYDk52Z6qvawfue-4">
          <mxCell style="endArrow=blockThin;html=1;fontSize=12;fontColor=#404040;strokeWidth=1;endFill=1;strokeColor=#828282;elbow=vertical;metaEdit=1;endSize=14;startSize=14;jumpStyle=arc;jumpSize=16;rounded=0;entryX=0;entryY=0.417;entryDx=0;entryDy=0;entryPerimeter=0;exitX=1;exitY=0.5;exitDx=0;exitDy=0;exitPerimeter=0;" parent="1" source="eeYlzu7ipkMlTdIJp50H-1" target="jMdchxHNiNqsX8gLyy9u-1" edge="1">
            <mxGeometry x="-0.0024" width="240" relative="1" as="geometry">
              <mxPoint x="450" y="570" as="sourcePoint" />
              <mxPoint x="450" y="690" as="targetPoint" />
              <mxPoint as="offset" />
            </mxGeometry>
          </mxCell>
        </object>
        <object placeholders="1" c4Name="DocuSign" c4Type="Software System" c4Description="Document system" label="&lt;font style=&quot;font-size: 16px&quot;&gt;&lt;b&gt;%c4Name%&lt;/b&gt;&lt;/font&gt;&lt;div&gt;[%c4Type%]&lt;/div&gt;&lt;br&gt;&lt;div&gt;&lt;font style=&quot;font-size: 11px&quot;&gt;&lt;font color=&quot;#cccccc&quot;&gt;%c4Description%&lt;/font&gt;&lt;/div&gt;" id="jMdchxHNiNqsX8gLyy9u-1">
          <mxCell style="rounded=1;whiteSpace=wrap;html=1;labelBackgroundColor=none;fillColor=#8C8496;fontColor=#ffffff;align=center;arcSize=10;strokeColor=#736782;metaEdit=1;resizable=0;points=[[0.25,0,0],[0.5,0,0],[0.75,0,0],[1,0.25,0],[1,0.5,0],[1,0.75,0],[0.75,1,0],[0.5,1,0],[0.25,1,0],[0,0.75,0],[0,0.5,0],[0,0.25,0]];" vertex="1" parent="1">
            <mxGeometry x="840" y="480" width="240" height="120" as="geometry" />
          </mxCell>
        </object>
        <object placeholders="1" c4Name="VIES" c4Type="Software System" c4Description="European system" label="&lt;font style=&quot;font-size: 16px&quot;&gt;&lt;b&gt;%c4Name%&lt;/b&gt;&lt;/font&gt;&lt;div&gt;[%c4Type%]&lt;/div&gt;&lt;br&gt;&lt;div&gt;&lt;font style=&quot;font-size: 11px&quot;&gt;&lt;font color=&quot;#cccccc&quot;&gt;%c4Description%&lt;/font&gt;&lt;/div&gt;" id="jMdchxHNiNqsX8gLyy9u-2">
          <mxCell style="rounded=1;whiteSpace=wrap;html=1;labelBackgroundColor=none;fillColor=#8C8496;fontColor=#ffffff;align=center;arcSize=10;strokeColor=#736782;metaEdit=1;resizable=0;points=[[0.25,0,0],[0.5,0,0],[0.75,0,0],[1,0.25,0],[1,0.5,0],[1,0.75,0],[0.75,1,0],[0.5,1,0],[0.25,1,0],[0,0.75,0],[0,0.5,0],[0,0.25,0]];" vertex="1" parent="1">
            <mxGeometry x="840" y="320" width="240" height="120" as="geometry" />
          </mxCell>
        </object>
        <object placeholders="1" c4Type="Relationship" c4Technology="HTTPS" c4Description="Validate VAT" label="&lt;div style=&quot;text-align: left; font-size: 12px;&quot;&gt;&lt;div style=&quot;text-align: center; font-size: 12px;&quot;&gt;&lt;b style=&quot;font-size: 12px;&quot;&gt;%c4Description%&lt;/b&gt;&lt;/div&gt;&lt;div style=&quot;text-align: center; font-size: 12px;&quot;&gt;[%c4Technology%]&lt;/div&gt;&lt;/div&gt;" id="jMdchxHNiNqsX8gLyy9u-3">
          <mxCell style="endArrow=blockThin;html=1;fontSize=12;fontColor=#404040;strokeWidth=1;endFill=1;strokeColor=#828282;elbow=vertical;metaEdit=1;endSize=14;startSize=14;jumpStyle=arc;jumpSize=16;rounded=0;entryX=0;entryY=0.5;entryDx=0;entryDy=0;entryPerimeter=0;exitX=1;exitY=0.5;exitDx=0;exitDy=0;exitPerimeter=0;" edge="1" parent="1" source="eeYlzu7ipkMlTdIJp50H-1" target="jMdchxHNiNqsX8gLyy9u-2">
            <mxGeometry x="-0.0024" width="240" relative="1" as="geometry">
              <mxPoint x="570" y="510" as="sourcePoint" />
              <mxPoint x="850" y="540" as="targetPoint" />
              <mxPoint as="offset" />
            </mxGeometry>
          </mxCell>
        </object>
      </root>
    </mxGraphModel>
  </diagram>
  <diagram name="C2 - EMT 2.0 Subsystems view" id="I7XgLS8wMezJsXqPzc08">
    <mxGraphModel dx="2041" dy="1003" grid="0" gridSize="10" guides="1" tooltips="1" connect="1" arrows="1" fold="1" page="0" pageScale="1" pageWidth="850" pageHeight="1100" math="0" shadow="0">
      <root>
        <mxCell id="ow_LDr-X4zIuzgWSMT9t-0" />
        <mxCell id="ow_LDr-X4zIuzgWSMT9t-1" parent="ow_LDr-X4zIuzgWSMT9t-0" />
        <object placeholders="1" c4Name="EMT" c4Type="SystemScopeBoundary" c4Application="Software System" label="&lt;font style=&quot;font-size: 16px&quot;&gt;&lt;b&gt;&lt;div style=&quot;&quot;&gt;%c4Name%&lt;/div&gt;&lt;/b&gt;&lt;/font&gt;&lt;div style=&quot;&quot;&gt;[%c4Application%]&lt;/div&gt;" id="ow_LDr-X4zIuzgWSMT9t-2">
          <mxCell style="rounded=1;fontSize=11;whiteSpace=wrap;html=1;dashed=1;arcSize=20;fillColor=none;strokeColor=#666666;fontColor=#333333;labelBackgroundColor=none;align=right;verticalAlign=bottom;labelBorderColor=none;spacingTop=0;spacing=10;dashPattern=8 4;metaEdit=1;rotatable=0;perimeter=rectanglePerimeter;noLabel=0;labelPadding=0;allowArrows=0;connectable=0;expand=0;recursiveResize=0;editable=1;pointerEvents=0;absoluteArcSize=1;points=[[0.25,0,0],[0.5,0,0],[0.75,0,0],[1,0.25,0],[1,0.5,0],[1,0.75,0],[0.75,1,0],[0.5,1,0],[0.25,1,0],[0,0.75,0],[0,0.5,0],[0,0.25,0]];" parent="ow_LDr-X4zIuzgWSMT9t-1" vertex="1">
            <mxGeometry x="-70" y="390" width="400" height="620" as="geometry" />
          </mxCell>
        </object>
        <object placeholders="1" c4Name="User" c4Type="User" c4Description="Deloitte user" label="&lt;font style=&quot;font-size: 16px&quot;&gt;&lt;b&gt;%c4Name%&lt;/b&gt;&lt;/font&gt;&lt;div&gt;[%c4Type%]&lt;/div&gt;&lt;br&gt;&lt;div&gt;&lt;font style=&quot;font-size: 11px&quot;&gt;&lt;font color=&quot;#cccccc&quot;&gt;%c4Description%&lt;/font&gt;&lt;/div&gt;" id="ow_LDr-X4zIuzgWSMT9t-3">
          <mxCell style="html=1;fontSize=11;dashed=0;whiteSpace=wrap;fillColor=#083F75;strokeColor=#06315C;fontColor=#ffffff;shape=mxgraph.c4.person2;align=center;metaEdit=1;points=[[0.5,0,0],[1,0.5,0],[1,0.75,0],[0.75,1,0],[0.5,1,0],[0.25,1,0],[0,0.75,0],[0,0.5,0]];resizable=0;" parent="ow_LDr-X4zIuzgWSMT9t-1" vertex="1">
            <mxGeometry x="-380" y="100" width="200" height="180" as="geometry" />
          </mxCell>
        </object>
        <object placeholders="1" c4Type="Relationship" c4Technology="HTTPS" c4Description="Request" label="&lt;div style=&quot;text-align: left; font-size: 13px;&quot;&gt;&lt;div style=&quot;text-align: center; font-size: 13px;&quot;&gt;&lt;b style=&quot;font-size: 13px;&quot;&gt;%c4Description%&lt;/b&gt;&lt;/div&gt;&lt;div style=&quot;text-align: center; font-size: 13px;&quot;&gt;[%c4Technology%]&lt;/div&gt;&lt;/div&gt;" id="ow_LDr-X4zIuzgWSMT9t-4">
          <mxCell style="endArrow=blockThin;html=1;fontSize=13;fontColor=#404040;strokeWidth=1;endFill=1;strokeColor=#828282;elbow=vertical;metaEdit=1;endSize=14;startSize=14;jumpStyle=arc;jumpSize=16;rounded=0;exitX=1;exitY=0.75;exitDx=0;exitDy=0;exitPerimeter=0;entryX=0;entryY=0.25;entryDx=0;entryDy=0;entryPerimeter=0;" parent="ow_LDr-X4zIuzgWSMT9t-1" source="ow_LDr-X4zIuzgWSMT9t-3" target="ow_LDr-X4zIuzgWSMT9t-6" edge="1">
            <mxGeometry x="-0.2841" y="3" width="240" relative="1" as="geometry">
              <mxPoint x="-680" y="1325" as="sourcePoint" />
              <mxPoint x="-180" y="1180" as="targetPoint" />
              <mxPoint as="offset" />
            </mxGeometry>
          </mxCell>
        </object>
        <object placeholders="1" c4Name="Gateway" c4Type="Subsystem" c4Description="Middleware API" label="&lt;font style=&quot;font-size: 16px&quot;&gt;&lt;b&gt;%c4Name%&lt;/b&gt;&lt;/font&gt;&lt;div&gt;[%c4Type%]&lt;/div&gt;&lt;br&gt;&lt;div&gt;&lt;font style=&quot;font-size: 11px&quot;&gt;&lt;font color=&quot;#cccccc&quot;&gt;%c4Description%&lt;/font&gt;&lt;/div&gt;" id="ow_LDr-X4zIuzgWSMT9t-5">
          <mxCell style="rounded=1;whiteSpace=wrap;html=1;labelBackgroundColor=none;fillColor=#1061B0;fontColor=#ffffff;align=center;arcSize=10;strokeColor=#0D5091;metaEdit=1;resizable=0;points=[[0.25,0,0],[0.5,0,0],[0.75,0,0],[1,0.25,0],[1,0.5,0],[1,0.75,0],[0.75,1,0],[0.5,1,0],[0.25,1,0],[0,0.75,0],[0,0.5,0],[0,0.25,0]];" parent="ow_LDr-X4zIuzgWSMT9t-1" vertex="1">
            <mxGeometry x="10" y="430" width="240" height="120" as="geometry" />
          </mxCell>
        </object>
        <object placeholders="1" c4Type="EMT Portal" c4Container="Container" c4Technology="SPA Angular" c4Description="container role/responsibility." label="&lt;font style=&quot;font-size: 16px&quot;&gt;&lt;b&gt;%c4Type%&lt;/b&gt;&lt;/font&gt;&lt;div&gt;[%c4Container%:&amp;nbsp;%c4Technology%]&lt;/div&gt;&lt;br&gt;&lt;div&gt;&lt;font style=&quot;font-size: 11px&quot;&gt;&lt;font color=&quot;#E6E6E6&quot;&gt;%c4Description%&lt;/font&gt;&lt;/div&gt;" id="ow_LDr-X4zIuzgWSMT9t-6">
          <mxCell style="shape=mxgraph.c4.webBrowserContainer2;whiteSpace=wrap;html=1;boundedLbl=1;rounded=0;labelBackgroundColor=none;strokeColor=#118ACD;fillColor=#23A2D9;strokeColor=#118ACD;strokeColor2=#0E7DAD;fontSize=12;fontColor=#ffffff;align=center;metaEdit=1;points=[[0.5,0,0],[1,0.25,0],[1,0.5,0],[1,0.75,0],[0.5,1,0],[0,0.75,0],[0,0.5,0],[0,0.25,0]];resizable=0;" parent="ow_LDr-X4zIuzgWSMT9t-1" vertex="1">
            <mxGeometry x="10" y="130" width="240" height="160" as="geometry" />
          </mxCell>
        </object>
        <object placeholders="1" c4Type="Relationship" c4Technology="HTTPS" c4Description="EMT Request&#xa;Configuration Requests" label="&lt;div style=&quot;text-align: left; font-size: 13px;&quot;&gt;&lt;div style=&quot;text-align: center; font-size: 13px;&quot;&gt;&lt;b style=&quot;font-size: 13px;&quot;&gt;%c4Description%&lt;/b&gt;&lt;/div&gt;&lt;div style=&quot;text-align: center; font-size: 13px;&quot;&gt;[%c4Technology%]&lt;/div&gt;&lt;/div&gt;" id="ow_LDr-X4zIuzgWSMT9t-7">
          <mxCell style="endArrow=blockThin;html=1;fontSize=13;fontColor=#404040;strokeWidth=1;endFill=1;strokeColor=#828282;elbow=vertical;metaEdit=1;endSize=14;startSize=14;jumpStyle=arc;jumpSize=16;rounded=0;exitX=0.5;exitY=1;exitDx=0;exitDy=0;exitPerimeter=0;" parent="ow_LDr-X4zIuzgWSMT9t-1" source="ow_LDr-X4zIuzgWSMT9t-6" edge="1">
            <mxGeometry x="-0.2935" y="3" width="240" relative="1" as="geometry">
              <mxPoint x="480" y="540" as="sourcePoint" />
              <mxPoint x="130" y="430" as="targetPoint" />
              <mxPoint as="offset" />
            </mxGeometry>
          </mxCell>
        </object>
        <object placeholders="1" c4Name="Workers" c4Type="Subsystem" c4Description="Intenal Workers and Jobs" label="&lt;font style=&quot;font-size: 16px&quot;&gt;&lt;b&gt;%c4Name%&lt;/b&gt;&lt;/font&gt;&lt;div&gt;[%c4Type%]&lt;/div&gt;&lt;br&gt;&lt;div&gt;&lt;font style=&quot;font-size: 11px&quot;&gt;&lt;font color=&quot;#cccccc&quot;&gt;%c4Description%&lt;/font&gt;&lt;/div&gt;" id="ow_LDr-X4zIuzgWSMT9t-8">
          <mxCell style="rounded=1;whiteSpace=wrap;html=1;labelBackgroundColor=none;fillColor=#1061B0;fontColor=#ffffff;align=center;arcSize=10;strokeColor=#0D5091;metaEdit=1;resizable=0;points=[[0.25,0,0],[0.5,0,0],[0.75,0,0],[1,0.25,0],[1,0.5,0],[1,0.75,0],[0.75,1,0],[0.5,1,0],[0.25,1,0],[0,0.75,0],[0,0.5,0],[0,0.25,0]];" parent="ow_LDr-X4zIuzgWSMT9t-1" vertex="1">
            <mxGeometry x="10" y="851" width="240" height="120" as="geometry" />
          </mxCell>
        </object>
        <object placeholders="1" c4Name="[Containers] EMT Subsystems" c4Type="ContainerDiagramTitle" c4Description="Subsystem description embedding Entity Management Tool" label="&lt;font style=&quot;font-size: 16px&quot;&gt;&lt;b&gt;&lt;div style=&quot;text-align: left&quot;&gt;%c4Name%&lt;/div&gt;&lt;/b&gt;&lt;/font&gt;&lt;div style=&quot;text-align: left&quot;&gt;%c4Description%&lt;/div&gt;" id="ow_LDr-X4zIuzgWSMT9t-9">
          <mxCell style="text;html=1;strokeColor=none;fillColor=none;align=left;verticalAlign=top;whiteSpace=wrap;rounded=0;metaEdit=1;allowArrows=0;resizable=1;rotatable=0;connectable=0;recursiveResize=0;expand=0;pointerEvents=0;points=[[0.25,0,0],[0.5,0,0],[0.75,0,0],[1,0.25,0],[1,0.5,0],[1,0.75,0],[0.75,1,0],[0.5,1,0],[0.25,1,0],[0,0.75,0],[0,0.5,0],[0,0.25,0]];" parent="ow_LDr-X4zIuzgWSMT9t-1" vertex="1">
            <mxGeometry x="-380" y="30" width="370" height="40" as="geometry" />
          </mxCell>
        </object>
        <mxCell id="ow_LDr-X4zIuzgWSMT9t-10" value="Legend" style="shape=table;startSize=30;container=1;collapsible=0;childLayout=tableLayout;fontSize=16;align=left;verticalAlign=top;fillColor=none;strokeColor=none;fontColor=#4D4D4D;fontStyle=1;spacingLeft=6;spacing=0;resizable=0;" parent="ow_LDr-X4zIuzgWSMT9t-1" vertex="1">
          <mxGeometry x="820" y="510" width="180" height="150" as="geometry" />
        </mxCell>
        <mxCell id="ow_LDr-X4zIuzgWSMT9t-11" value="" style="shape=tableRow;horizontal=0;startSize=0;swimlaneHead=0;swimlaneBody=0;strokeColor=inherit;top=0;left=0;bottom=0;right=0;collapsible=0;dropTarget=0;fillColor=none;points=[[0,0.5],[1,0.5]];portConstraint=eastwest;fontSize=12;" parent="ow_LDr-X4zIuzgWSMT9t-10" vertex="1">
          <mxGeometry y="30" width="180" height="30" as="geometry" />
        </mxCell>
        <mxCell id="ow_LDr-X4zIuzgWSMT9t-12" value="Person" style="shape=partialRectangle;html=1;whiteSpace=wrap;connectable=0;strokeColor=inherit;overflow=hidden;fillColor=#1E4074;top=0;left=0;bottom=0;right=0;pointerEvents=1;fontSize=12;align=left;fontColor=#FFFFFF;gradientColor=none;spacingLeft=10;spacingRight=4;" parent="ow_LDr-X4zIuzgWSMT9t-11" vertex="1">
          <mxGeometry width="180" height="30" as="geometry">
            <mxRectangle width="180" height="30" as="alternateBounds" />
          </mxGeometry>
        </mxCell>
        <mxCell id="ow_LDr-X4zIuzgWSMT9t-13" value="" style="shape=tableRow;horizontal=0;startSize=0;swimlaneHead=0;swimlaneBody=0;strokeColor=inherit;top=0;left=0;bottom=0;right=0;collapsible=0;dropTarget=0;fillColor=none;points=[[0,0.5],[1,0.5]];portConstraint=eastwest;fontSize=12;" parent="ow_LDr-X4zIuzgWSMT9t-10" vertex="1">
          <mxGeometry y="60" width="180" height="30" as="geometry" />
        </mxCell>
        <mxCell id="ow_LDr-X4zIuzgWSMT9t-14" value="Subsystem" style="shape=partialRectangle;html=1;whiteSpace=wrap;connectable=0;strokeColor=inherit;overflow=hidden;fillColor=#3162AF;top=0;left=0;bottom=0;right=0;pointerEvents=1;fontSize=12;align=left;fontColor=#FFFFFF;gradientColor=none;spacingLeft=10;spacingRight=4;" parent="ow_LDr-X4zIuzgWSMT9t-13" vertex="1">
          <mxGeometry width="180" height="30" as="geometry">
            <mxRectangle width="180" height="30" as="alternateBounds" />
          </mxGeometry>
        </mxCell>
        <mxCell id="ow_LDr-X4zIuzgWSMT9t-15" value="" style="shape=tableRow;horizontal=0;startSize=0;swimlaneHead=0;swimlaneBody=0;strokeColor=inherit;top=0;left=0;bottom=0;right=0;collapsible=0;dropTarget=0;fillColor=none;points=[[0,0.5],[1,0.5]];portConstraint=eastwest;fontSize=12;" parent="ow_LDr-X4zIuzgWSMT9t-10" vertex="1">
          <mxGeometry y="90" width="180" height="30" as="geometry" />
        </mxCell>
        <mxCell id="ow_LDr-X4zIuzgWSMT9t-16" value="External Person" style="shape=partialRectangle;html=1;whiteSpace=wrap;connectable=0;strokeColor=inherit;overflow=hidden;fillColor=#6b6477;top=0;left=0;bottom=0;right=0;pointerEvents=1;fontSize=12;align=left;fontColor=#FFFFFF;gradientColor=none;spacingLeft=10;spacingRight=4;" parent="ow_LDr-X4zIuzgWSMT9t-15" vertex="1">
          <mxGeometry width="180" height="30" as="geometry">
            <mxRectangle width="180" height="30" as="alternateBounds" />
          </mxGeometry>
        </mxCell>
        <mxCell id="ow_LDr-X4zIuzgWSMT9t-17" value="" style="shape=tableRow;horizontal=0;startSize=0;swimlaneHead=0;swimlaneBody=0;strokeColor=inherit;top=0;left=0;bottom=0;right=0;collapsible=0;dropTarget=0;fillColor=none;points=[[0,0.5],[1,0.5]];portConstraint=eastwest;fontSize=12;" parent="ow_LDr-X4zIuzgWSMT9t-10" vertex="1">
          <mxGeometry y="120" width="180" height="30" as="geometry" />
        </mxCell>
        <mxCell id="ow_LDr-X4zIuzgWSMT9t-18" value="External Software System" style="shape=partialRectangle;html=1;whiteSpace=wrap;connectable=0;strokeColor=inherit;overflow=hidden;fillColor=#8b8496;top=0;left=0;bottom=0;right=0;pointerEvents=1;fontSize=12;align=left;fontColor=#FFFFFF;gradientColor=none;spacingLeft=10;spacingRight=4;" parent="ow_LDr-X4zIuzgWSMT9t-17" vertex="1">
          <mxGeometry width="180" height="30" as="geometry">
            <mxRectangle width="180" height="30" as="alternateBounds" />
          </mxGeometry>
        </mxCell>
        <object placeholders="1" c4Name="CIAM" c4Type="Software System" c4Description="User Authentication" label="&lt;font style=&quot;font-size: 16px&quot;&gt;&lt;b&gt;%c4Name%&lt;/b&gt;&lt;/font&gt;&lt;div&gt;[%c4Type%]&lt;/div&gt;&lt;br&gt;&lt;div&gt;&lt;font style=&quot;font-size: 11px&quot;&gt;&lt;font color=&quot;#cccccc&quot;&gt;%c4Description%&lt;/font&gt;&lt;/div&gt;" id="ow_LDr-X4zIuzgWSMT9t-19">
          <mxCell style="rounded=1;whiteSpace=wrap;html=1;labelBackgroundColor=none;fillColor=#8C8496;fontColor=#ffffff;align=center;arcSize=10;strokeColor=#736782;metaEdit=1;resizable=0;points=[[0.25,0,0],[0.5,0,0],[0.75,0,0],[1,0.25,0],[1,0.5,0],[1,0.75,0],[0.75,1,0],[0.5,1,0],[0.25,1,0],[0,0.75,0],[0,0.5,0],[0,0.25,0]];" parent="ow_LDr-X4zIuzgWSMT9t-1" vertex="1">
            <mxGeometry x="446" y="655" width="240" height="120" as="geometry" />
          </mxCell>
        </object>
        <object placeholders="1" c4Type="Relationship" c4Technology="HTTPS" c4Description="AUTHENTICATE User" label="&lt;div style=&quot;text-align: left; font-size: 12px;&quot;&gt;&lt;div style=&quot;text-align: center; font-size: 12px;&quot;&gt;&lt;b style=&quot;font-size: 12px;&quot;&gt;%c4Description%&lt;/b&gt;&lt;/div&gt;&lt;div style=&quot;text-align: center; font-size: 12px;&quot;&gt;[%c4Technology%]&lt;/div&gt;&lt;/div&gt;" id="ow_LDr-X4zIuzgWSMT9t-20">
          <mxCell style="endArrow=blockThin;html=1;fontSize=12;fontColor=#404040;strokeWidth=1;endFill=1;strokeColor=#828282;elbow=vertical;metaEdit=1;endSize=14;startSize=14;jumpStyle=arc;jumpSize=16;rounded=0;exitX=1;exitY=0.75;exitDx=0;exitDy=0;exitPerimeter=0;entryX=0;entryY=0.5;entryDx=0;entryDy=0;entryPerimeter=0;" parent="ow_LDr-X4zIuzgWSMT9t-1" source="ow_LDr-X4zIuzgWSMT9t-25" target="ow_LDr-X4zIuzgWSMT9t-19" edge="1">
            <mxGeometry x="0.4545" width="240" relative="1" as="geometry">
              <mxPoint x="270" y="510" as="sourcePoint" />
              <mxPoint x="450" y="370" as="targetPoint" />
              <mxPoint as="offset" />
            </mxGeometry>
          </mxCell>
        </object>
        <object placeholders="1" c4Name="DocuSign" c4Type="Software System" c4Description="Document system" label="&lt;font style=&quot;font-size: 16px&quot;&gt;&lt;b&gt;%c4Name%&lt;/b&gt;&lt;/font&gt;&lt;div&gt;[%c4Type%]&lt;/div&gt;&lt;br&gt;&lt;div&gt;&lt;font style=&quot;font-size: 11px&quot;&gt;&lt;font color=&quot;#cccccc&quot;&gt;%c4Description%&lt;/font&gt;&lt;/div&gt;" id="ow_LDr-X4zIuzgWSMT9t-21">
          <mxCell style="rounded=1;whiteSpace=wrap;html=1;labelBackgroundColor=none;fillColor=#8C8496;fontColor=#ffffff;align=center;arcSize=10;strokeColor=#736782;metaEdit=1;resizable=0;points=[[0.25,0,0],[0.5,0,0],[0.75,0,0],[1,0.25,0],[1,0.5,0],[1,0.75,0],[0.75,1,0],[0.5,1,0],[0.25,1,0],[0,0.75,0],[0,0.5,0],[0,0.25,0]];" parent="ow_LDr-X4zIuzgWSMT9t-1" vertex="1">
            <mxGeometry x="790" y="310" width="240" height="120" as="geometry" />
          </mxCell>
        </object>
        <object placeholders="1" c4Name="User" c4Type="User" c4Description="External user" label="&lt;font style=&quot;font-size: 16px&quot;&gt;&lt;b&gt;%c4Name%&lt;/b&gt;&lt;/font&gt;&lt;div&gt;[%c4Type%]&lt;/div&gt;&lt;br&gt;&lt;div&gt;&lt;font style=&quot;font-size: 11px&quot;&gt;&lt;font color=&quot;#cccccc&quot;&gt;%c4Description%&lt;/font&gt;&lt;/div&gt;" id="ow_LDr-X4zIuzgWSMT9t-22">
          <mxCell style="html=1;fontSize=11;dashed=0;whiteSpace=wrap;fillColor=#083F75;strokeColor=#06315C;fontColor=#ffffff;shape=mxgraph.c4.person2;align=center;metaEdit=1;points=[[0.5,0,0],[1,0.5,0],[1,0.75,0],[0.75,1,0],[0.5,1,0],[0.25,1,0],[0,0.75,0],[0,0.5,0]];resizable=0;" parent="ow_LDr-X4zIuzgWSMT9t-1" vertex="1">
            <mxGeometry x="-390" y="340" width="200" height="180" as="geometry" />
          </mxCell>
        </object>
        <object placeholders="1" c4Type="Relationship" c4Technology="HTTPS" c4Description="Request" label="&lt;div style=&quot;text-align: left; font-size: 13px;&quot;&gt;&lt;div style=&quot;text-align: center; font-size: 13px;&quot;&gt;&lt;b style=&quot;font-size: 13px;&quot;&gt;%c4Description%&lt;/b&gt;&lt;/div&gt;&lt;div style=&quot;text-align: center; font-size: 13px;&quot;&gt;[%c4Technology%]&lt;/div&gt;&lt;/div&gt;" id="ow_LDr-X4zIuzgWSMT9t-23">
          <mxCell style="endArrow=blockThin;html=1;fontSize=13;fontColor=#404040;strokeWidth=1;endFill=1;strokeColor=#828282;elbow=vertical;metaEdit=1;endSize=14;startSize=14;jumpStyle=arc;jumpSize=16;rounded=0;exitX=1;exitY=0.75;exitDx=0;exitDy=0;exitPerimeter=0;entryX=0;entryY=0.75;entryDx=0;entryDy=0;entryPerimeter=0;" parent="ow_LDr-X4zIuzgWSMT9t-1" source="ow_LDr-X4zIuzgWSMT9t-22" target="ow_LDr-X4zIuzgWSMT9t-6" edge="1">
            <mxGeometry x="-0.2841" y="3" width="240" relative="1" as="geometry">
              <mxPoint x="410" y="85" as="sourcePoint" />
              <mxPoint x="260" y="200" as="targetPoint" />
              <mxPoint as="offset" />
            </mxGeometry>
          </mxCell>
        </object>
        <object placeholders="1" c4Name="VIES" c4Type="Software System" c4Description="European system" label="&lt;font style=&quot;font-size: 16px&quot;&gt;&lt;b&gt;%c4Name%&lt;/b&gt;&lt;/font&gt;&lt;div&gt;[%c4Type%]&lt;/div&gt;&lt;br&gt;&lt;div&gt;&lt;font style=&quot;font-size: 11px&quot;&gt;&lt;font color=&quot;#cccccc&quot;&gt;%c4Description%&lt;/font&gt;&lt;/div&gt;" id="ow_LDr-X4zIuzgWSMT9t-24">
          <mxCell style="rounded=1;whiteSpace=wrap;html=1;labelBackgroundColor=none;fillColor=#8C8496;fontColor=#ffffff;align=center;arcSize=10;strokeColor=#736782;metaEdit=1;resizable=0;points=[[0.25,0,0],[0.5,0,0],[0.75,0,0],[1,0.25,0],[1,0.5,0],[1,0.75,0],[0.75,1,0],[0.5,1,0],[0.25,1,0],[0,0.75,0],[0,0.5,0],[0,0.25,0]];" parent="ow_LDr-X4zIuzgWSMT9t-1" vertex="1">
            <mxGeometry x="790" y="150" width="240" height="120" as="geometry" />
          </mxCell>
        </object>
        <object placeholders="1" c4Name="EMT Backend" c4Type="Software System" c4Description="Core Application" label="&lt;font style=&quot;font-size: 16px&quot;&gt;&lt;b&gt;%c4Name%&lt;/b&gt;&lt;/font&gt;&lt;div&gt;[%c4Type%]&lt;/div&gt;&lt;br&gt;&lt;div&gt;&lt;font style=&quot;font-size: 11px&quot;&gt;&lt;font color=&quot;#cccccc&quot;&gt;%c4Description%&lt;/font&gt;&lt;/div&gt;" id="ow_LDr-X4zIuzgWSMT9t-25">
          <mxCell style="rounded=1;whiteSpace=wrap;html=1;labelBackgroundColor=none;fillColor=#1061B0;fontColor=#ffffff;align=center;arcSize=10;strokeColor=#0D5091;metaEdit=1;resizable=0;points=[[0.25,0,0],[0.5,0,0],[0.75,0,0],[1,0.25,0],[1,0.5,0],[1,0.75,0],[0.75,1,0],[0.5,1,0],[0.25,1,0],[0,0.75,0],[0,0.5,0],[0,0.25,0]];" parent="ow_LDr-X4zIuzgWSMT9t-1" vertex="1">
            <mxGeometry x="10" y="650" width="240" height="120" as="geometry" />
          </mxCell>
        </object>
        <object placeholders="1" c4Type="Relationship" c4Technology="HTTPS" c4Description="Request" label="&lt;div style=&quot;text-align: left; font-size: 13px;&quot;&gt;&lt;div style=&quot;text-align: center; font-size: 13px;&quot;&gt;&lt;b style=&quot;font-size: 13px;&quot;&gt;%c4Description%&lt;/b&gt;&lt;/div&gt;&lt;div style=&quot;text-align: center; font-size: 13px;&quot;&gt;[%c4Technology%]&lt;/div&gt;&lt;/div&gt;" id="ow_LDr-X4zIuzgWSMT9t-26">
          <mxCell style="endArrow=blockThin;html=1;fontSize=13;fontColor=#404040;strokeWidth=1;endFill=1;strokeColor=#828282;elbow=vertical;metaEdit=1;endSize=14;startSize=14;jumpStyle=arc;jumpSize=16;rounded=0;exitX=0.5;exitY=1;exitDx=0;exitDy=0;exitPerimeter=0;entryX=0.5;entryY=0;entryDx=0;entryDy=0;entryPerimeter=0;" parent="ow_LDr-X4zIuzgWSMT9t-1" source="ow_LDr-X4zIuzgWSMT9t-5" target="ow_LDr-X4zIuzgWSMT9t-25" edge="1">
            <mxGeometry x="-0.2935" y="3" width="240" relative="1" as="geometry">
              <mxPoint x="140" y="280" as="sourcePoint" />
              <mxPoint x="140" y="440" as="targetPoint" />
              <mxPoint as="offset" />
            </mxGeometry>
          </mxCell>
        </object>
        <object placeholders="1" c4Type="Relationship" c4Technology="HTTPS" c4Description="Request" label="&lt;div style=&quot;text-align: left; font-size: 13px;&quot;&gt;&lt;div style=&quot;text-align: center; font-size: 13px;&quot;&gt;&lt;b style=&quot;font-size: 13px;&quot;&gt;%c4Description%&lt;/b&gt;&lt;/div&gt;&lt;div style=&quot;text-align: center; font-size: 13px;&quot;&gt;[%c4Technology%]&lt;/div&gt;&lt;/div&gt;" id="ow_LDr-X4zIuzgWSMT9t-30">
          <mxCell style="endArrow=blockThin;html=1;fontSize=13;fontColor=#404040;strokeWidth=1;endFill=1;strokeColor=#828282;elbow=vertical;metaEdit=1;endSize=14;startSize=14;jumpStyle=arc;jumpSize=16;rounded=0;exitX=1;exitY=0.5;exitDx=0;exitDy=0;exitPerimeter=0;entryX=0;entryY=0.5;entryDx=0;entryDy=0;entryPerimeter=0;" parent="ow_LDr-X4zIuzgWSMT9t-1" source="ow_LDr-X4zIuzgWSMT9t-6" target="ow_LDr-X4zIuzgWSMT9t-21" edge="1">
            <mxGeometry x="-0.2935" y="3" width="240" relative="1" as="geometry">
              <mxPoint x="140" y="560" as="sourcePoint" />
              <mxPoint x="400" y="660" as="targetPoint" />
              <mxPoint as="offset" />
            </mxGeometry>
          </mxCell>
        </object>
        <object placeholders="1" c4Type="Relationship" c4Technology="HTTPS" c4Description="Request" label="&lt;div style=&quot;text-align: left; font-size: 13px;&quot;&gt;&lt;div style=&quot;text-align: center; font-size: 13px;&quot;&gt;&lt;b style=&quot;font-size: 13px;&quot;&gt;%c4Description%&lt;/b&gt;&lt;/div&gt;&lt;div style=&quot;text-align: center; font-size: 13px;&quot;&gt;[%c4Technology%]&lt;/div&gt;&lt;/div&gt;" id="ow_LDr-X4zIuzgWSMT9t-31">
          <mxCell style="endArrow=blockThin;html=1;fontSize=13;fontColor=#404040;strokeWidth=1;endFill=1;strokeColor=#828282;elbow=vertical;metaEdit=1;endSize=14;startSize=14;jumpStyle=arc;jumpSize=16;rounded=0;exitX=1;exitY=0.5;exitDx=0;exitDy=0;exitPerimeter=0;entryX=0;entryY=0.5;entryDx=0;entryDy=0;entryPerimeter=0;" parent="ow_LDr-X4zIuzgWSMT9t-1" source="ow_LDr-X4zIuzgWSMT9t-6" target="ow_LDr-X4zIuzgWSMT9t-24" edge="1">
            <mxGeometry x="-0.2935" y="3" width="240" relative="1" as="geometry">
              <mxPoint x="260" y="200" as="sourcePoint" />
              <mxPoint x="740" y="470" as="targetPoint" />
              <mxPoint as="offset" />
            </mxGeometry>
          </mxCell>
        </object>
        <object placeholders="1" c4Type="Relationship" c4Technology="HTTPS" c4Description="Request" label="&lt;div style=&quot;text-align: left; font-size: 13px;&quot;&gt;&lt;div style=&quot;text-align: center; font-size: 13px;&quot;&gt;&lt;b style=&quot;font-size: 13px;&quot;&gt;%c4Description%&lt;/b&gt;&lt;/div&gt;&lt;div style=&quot;text-align: center; font-size: 13px;&quot;&gt;[%c4Technology%]&lt;/div&gt;&lt;/div&gt;" id="ow_LDr-X4zIuzgWSMT9t-32">
          <mxCell style="endArrow=blockThin;html=1;fontSize=13;fontColor=#404040;strokeWidth=1;endFill=1;strokeColor=#828282;elbow=vertical;metaEdit=1;endSize=14;startSize=14;jumpStyle=arc;jumpSize=16;rounded=0;exitX=0.75;exitY=0;exitDx=0;exitDy=0;exitPerimeter=0;entryX=0;entryY=0.5;entryDx=0;entryDy=0;entryPerimeter=0;" parent="ow_LDr-X4zIuzgWSMT9t-1" source="ow_LDr-X4zIuzgWSMT9t-25" target="ow_LDr-X4zIuzgWSMT9t-21" edge="1">
            <mxGeometry x="-0.2935" y="3" width="240" relative="1" as="geometry">
              <mxPoint x="260" y="200" as="sourcePoint" />
              <mxPoint x="740" y="650" as="targetPoint" />
              <mxPoint as="offset" />
            </mxGeometry>
          </mxCell>
        </object>
        <object placeholders="1" c4Type="Relationship" c4Technology="HTTPS" c4Description="Request" label="&lt;div style=&quot;text-align: left; font-size: 13px;&quot;&gt;&lt;div style=&quot;text-align: center; font-size: 13px;&quot;&gt;&lt;b style=&quot;font-size: 13px;&quot;&gt;%c4Description%&lt;/b&gt;&lt;/div&gt;&lt;div style=&quot;text-align: center; font-size: 13px;&quot;&gt;[%c4Technology%]&lt;/div&gt;&lt;/div&gt;" id="ow_LDr-X4zIuzgWSMT9t-33">
          <mxCell style="endArrow=blockThin;html=1;fontSize=13;fontColor=#404040;strokeWidth=1;endFill=1;strokeColor=#828282;elbow=vertical;metaEdit=1;endSize=14;startSize=14;jumpStyle=arc;jumpSize=16;rounded=0;exitX=0.5;exitY=0;exitDx=0;exitDy=0;exitPerimeter=0;entryX=0.5;entryY=1;entryDx=0;entryDy=0;entryPerimeter=0;" parent="ow_LDr-X4zIuzgWSMT9t-1" source="ow_LDr-X4zIuzgWSMT9t-8" target="ow_LDr-X4zIuzgWSMT9t-25" edge="1">
            <mxGeometry x="-0.2935" y="3" width="240" relative="1" as="geometry">
              <mxPoint x="280" y="720" as="sourcePoint" />
              <mxPoint x="60" y="720" as="targetPoint" />
              <mxPoint as="offset" />
            </mxGeometry>
          </mxCell>
        </object>
        <object placeholders="1" c4Name="Deloitte Network" c4Type="SystemScopeBoundary" c4Application="Tenant" label="&lt;font style=&quot;font-size: 16px&quot;&gt;&lt;b&gt;&lt;div style=&quot;&quot;&gt;%c4Name%&lt;/div&gt;&lt;/b&gt;&lt;/font&gt;&lt;div style=&quot;&quot;&gt;[%c4Application%]&lt;/div&gt;" id="ow_LDr-X4zIuzgWSMT9t-34">
          <mxCell style="rounded=1;fontSize=11;whiteSpace=wrap;html=1;dashed=1;arcSize=20;fillColor=none;strokeColor=#666666;fontColor=#333333;labelBackgroundColor=none;align=right;verticalAlign=bottom;labelBorderColor=none;spacingTop=0;spacing=10;dashPattern=8 4;metaEdit=1;rotatable=0;perimeter=rectanglePerimeter;noLabel=0;labelPadding=0;allowArrows=0;connectable=0;expand=0;recursiveResize=0;editable=1;pointerEvents=0;absoluteArcSize=1;points=[[0.25,0,0],[0.5,0,0],[0.75,0,0],[1,0.25,0],[1,0.5,0],[1,0.75,0],[0.75,1,0],[0.5,1,0],[0.25,1,0],[0,0.75,0],[0,0.5,0],[0,0.25,0]];" parent="ow_LDr-X4zIuzgWSMT9t-1" vertex="1">
            <mxGeometry x="-140" y="90" width="890" height="950" as="geometry" />
          </mxCell>
        </object>
      </root>
    </mxGraphModel>
  </diagram>
  <diagram name="C2 - EMT 2.0 - Subsystems" id="S9iOdPshZVKifKIbWPjg">
    <mxGraphModel dx="2447" dy="998" grid="0" gridSize="10" guides="1" tooltips="1" connect="1" arrows="1" fold="1" page="0" pageScale="1" pageWidth="850" pageHeight="1100" background="none" math="0" shadow="0">
      <root>
        <mxCell id="aQlqcqNrcVZH24Oo7mDU-0" />
        <mxCell id="aQlqcqNrcVZH24Oo7mDU-1" parent="aQlqcqNrcVZH24Oo7mDU-0" />
        <mxCell id="aQlqcqNrcVZH24Oo7mDU-2" value="Services" style="rounded=0;whiteSpace=wrap;html=1;verticalAlign=top;fillColor=#dae8fc;strokeColor=#6c8ebf;fontSize=10;" vertex="1" parent="aQlqcqNrcVZH24Oo7mDU-1">
          <mxGeometry x="61.5" y="1320.5" width="90" height="30" as="geometry" />
        </mxCell>
        <mxCell id="aQlqcqNrcVZH24Oo7mDU-3" value="&lt;font style=&quot;font-size: 10px;&quot;&gt;Modules&lt;/font&gt;" style="rounded=0;whiteSpace=wrap;html=1;fillColor=#fff2cc;strokeColor=#d6b656;fontSize=10;" vertex="1" parent="aQlqcqNrcVZH24Oo7mDU-1">
          <mxGeometry x="263" y="1320.5" width="90" height="30" as="geometry" />
        </mxCell>
        <mxCell id="aQlqcqNrcVZH24Oo7mDU-4" value="GATEWAY" style="rounded=0;whiteSpace=wrap;html=1;verticalAlign=middle;fillColor=#f5f5f5;strokeColor=#666666;fontColor=#333333;" vertex="1" parent="aQlqcqNrcVZH24Oo7mDU-1">
          <mxGeometry x="-240" y="440" width="610" height="40.5" as="geometry" />
        </mxCell>
        <mxCell id="aQlqcqNrcVZH24Oo7mDU-5" value="COMPONENT" style="rounded=0;whiteSpace=wrap;html=1;verticalAlign=middle;fillColor=#f5f5f5;strokeColor=#666666;fontSize=10;fontColor=#333333;" vertex="1" parent="aQlqcqNrcVZH24Oo7mDU-1">
          <mxGeometry x="61.5" y="1360.5" width="90" height="30" as="geometry" />
        </mxCell>
        <mxCell id="aQlqcqNrcVZH24Oo7mDU-6" value="Workers / Jobs" style="rounded=0;whiteSpace=wrap;html=1;verticalAlign=top;fillColor=#d5e8d4;strokeColor=#82b366;fontSize=10;" vertex="1" parent="aQlqcqNrcVZH24Oo7mDU-1">
          <mxGeometry x="-38.5" y="1360.5" width="90" height="30" as="geometry" />
        </mxCell>
        <mxCell id="aQlqcqNrcVZH24Oo7mDU-7" value="Connectors" style="rounded=0;whiteSpace=wrap;html=1;verticalAlign=top;fillColor=#e1d5e7;strokeColor=#9673a6;fontSize=10;" vertex="1" parent="aQlqcqNrcVZH24Oo7mDU-1">
          <mxGeometry x="163" y="1320.5" width="90" height="30" as="geometry" />
        </mxCell>
        <mxCell id="aQlqcqNrcVZH24Oo7mDU-8" value="External System" style="rounded=0;whiteSpace=wrap;html=1;verticalAlign=middle;fillColor=#ffe6cc;strokeColor=#d79b00;fontSize=10;" vertex="1" parent="aQlqcqNrcVZH24Oo7mDU-1">
          <mxGeometry x="163" y="1360.5" width="90" height="30" as="geometry" />
        </mxCell>
        <mxCell id="aQlqcqNrcVZH24Oo7mDU-9" value="CIAM" style="rounded=0;whiteSpace=wrap;html=1;verticalAlign=middle;fillColor=#f5f5f5;strokeColor=#666666;fontColor=#333333;" vertex="1" parent="aQlqcqNrcVZH24Oo7mDU-1">
          <mxGeometry x="-439.99999999999994" y="319.5" width="120" height="40" as="geometry" />
        </mxCell>
        <object placeholders="1" c4Type="Relationship" c4Technology="HTTPS" c4Description="Validate user" label="&lt;div style=&quot;text-align: left&quot;&gt;&lt;div style=&quot;text-align: center&quot;&gt;&lt;b&gt;%c4Description%&lt;/b&gt;&lt;/div&gt;&lt;div style=&quot;text-align: center&quot;&gt;[%c4Technology%]&lt;/div&gt;&lt;/div&gt;" id="aQlqcqNrcVZH24Oo7mDU-10">
          <mxCell style="endArrow=blockThin;html=1;fontSize=10;fontColor=#404040;strokeWidth=1;endFill=1;strokeColor=#d79b00;elbow=vertical;metaEdit=1;endSize=14;startSize=14;jumpStyle=arc;jumpSize=16;rounded=0;edgeStyle=orthogonalEdgeStyle;exitX=0;exitY=0.5;exitDx=0;exitDy=0;entryX=0.5;entryY=1;entryDx=0;entryDy=0;curved=1;fillColor=#ffe6cc;" edge="1" parent="aQlqcqNrcVZH24Oo7mDU-1" source="aQlqcqNrcVZH24Oo7mDU-23" target="aQlqcqNrcVZH24Oo7mDU-9">
            <mxGeometry x="0.2936" y="-10" width="240" relative="1" as="geometry">
              <mxPoint x="-389.59000000000015" y="502.5" as="sourcePoint" />
              <mxPoint x="-400" y="400" as="targetPoint" />
              <mxPoint as="offset" />
            </mxGeometry>
          </mxCell>
        </object>
        <mxCell id="aQlqcqNrcVZH24Oo7mDU-11" value="&lt;b&gt;EMT FRONTEND&lt;/b&gt;&lt;br&gt;&lt;font style=&quot;font-size: 10px;&quot;&gt;&lt;i&gt;Microfrontends&lt;/i&gt;&lt;/font&gt;" style="rounded=1;whiteSpace=wrap;html=1;fillColor=#f8cecc;dashed=1;arcSize=5;verticalAlign=top;align=left;spacingLeft=5;spacingTop=0;spacing=5;strokeColor=#b85450;" vertex="1" parent="aQlqcqNrcVZH24Oo7mDU-1">
          <mxGeometry x="-240" y="160" width="610" height="80" as="geometry" />
        </mxCell>
        <mxCell id="aQlqcqNrcVZH24Oo7mDU-12" value="Microfrontends" style="rounded=0;whiteSpace=wrap;html=1;verticalAlign=top;fillColor=#f8cecc;strokeColor=#b85450;fontSize=10;" vertex="1" parent="aQlqcqNrcVZH24Oo7mDU-1">
          <mxGeometry x="-38.5" y="1320.5" width="91" height="30" as="geometry" />
        </mxCell>
        <object placeholders="1" c4Type="Relationship" c4Technology="HTTPS" c4Description="Authenticate user" label="&lt;div style=&quot;text-align: left&quot;&gt;&lt;div style=&quot;text-align: center&quot;&gt;&lt;b&gt;%c4Description%&lt;/b&gt;&lt;/div&gt;&lt;div style=&quot;text-align: center&quot;&gt;[%c4Technology%]&lt;/div&gt;&lt;/div&gt;" id="aQlqcqNrcVZH24Oo7mDU-13">
          <mxCell style="endArrow=blockThin;html=1;fontSize=10;fontColor=#404040;strokeWidth=1;endFill=1;strokeColor=#d79b00;elbow=vertical;metaEdit=1;endSize=14;startSize=14;jumpStyle=arc;jumpSize=16;rounded=0;edgeStyle=orthogonalEdgeStyle;exitX=-0.001;exitY=0.455;exitDx=0;exitDy=0;entryX=0.5;entryY=0;entryDx=0;entryDy=0;curved=1;fillColor=#ffe6cc;exitPerimeter=0;" edge="1" parent="aQlqcqNrcVZH24Oo7mDU-1" source="aQlqcqNrcVZH24Oo7mDU-11" target="aQlqcqNrcVZH24Oo7mDU-9">
            <mxGeometry x="0.2819" y="10" width="240" relative="1" as="geometry">
              <mxPoint x="-380" y="513" as="sourcePoint" />
              <mxPoint x="-570" y="350" as="targetPoint" />
              <mxPoint as="offset" />
            </mxGeometry>
          </mxCell>
        </object>
        <object placeholders="1" c4Type="Relationship" c4Technology="HTTPS" c4Description="Organizations requests&#xa;Clients Data requests" label="&lt;div style=&quot;text-align: left&quot;&gt;&lt;div style=&quot;text-align: center&quot;&gt;&lt;b&gt;%c4Description%&lt;/b&gt;&lt;/div&gt;&lt;div style=&quot;text-align: center&quot;&gt;[%c4Technology%]&lt;/div&gt;&lt;/div&gt;" id="aQlqcqNrcVZH24Oo7mDU-14">
          <mxCell style="endArrow=blockThin;html=1;fontSize=10;fontColor=#404040;strokeWidth=1;endFill=1;strokeColor=#82b366;elbow=vertical;metaEdit=1;endSize=14;startSize=14;jumpStyle=arc;jumpSize=16;rounded=0;exitX=0.5;exitY=1;exitDx=0;exitDy=0;entryX=0.25;entryY=0;entryDx=0;entryDy=0;edgeStyle=orthogonalEdgeStyle;curved=1;fillColor=#d5e8d4;" edge="1" parent="aQlqcqNrcVZH24Oo7mDU-1" source="aQlqcqNrcVZH24Oo7mDU-11" target="aQlqcqNrcVZH24Oo7mDU-4">
            <mxGeometry x="-0.1433" width="240" relative="1" as="geometry">
              <mxPoint x="120" y="891" as="sourcePoint" />
              <mxPoint x="182" y="754" as="targetPoint" />
              <mxPoint as="offset" />
            </mxGeometry>
          </mxCell>
        </object>
        <object placeholders="1" c4Type="Relationship" c4Technology="HTTPS" c4Description="Organizations requests&#xa;Clients Data requests" label="&lt;div style=&quot;text-align: left&quot;&gt;&lt;div style=&quot;text-align: center&quot;&gt;&lt;b&gt;%c4Description%&lt;/b&gt;&lt;/div&gt;&lt;div style=&quot;text-align: center&quot;&gt;[%c4Technology%]&lt;/div&gt;&lt;/div&gt;" id="aQlqcqNrcVZH24Oo7mDU-15">
          <mxCell style="endArrow=blockThin;html=1;fontSize=10;fontColor=#404040;strokeWidth=1;endFill=1;strokeColor=#82b366;elbow=vertical;metaEdit=1;endSize=14;startSize=14;jumpStyle=arc;jumpSize=16;rounded=0;exitX=0.25;exitY=1;exitDx=0;exitDy=0;entryX=0.5;entryY=0;entryDx=0;entryDy=0;edgeStyle=orthogonalEdgeStyle;curved=1;fillColor=#d5e8d4;" edge="1" parent="aQlqcqNrcVZH24Oo7mDU-1" source="aQlqcqNrcVZH24Oo7mDU-4" target="aQlqcqNrcVZH24Oo7mDU-23">
            <mxGeometry x="-0.1402" width="240" relative="1" as="geometry">
              <mxPoint x="285" y="390.5" as="sourcePoint" />
              <mxPoint x="285" y="460.5" as="targetPoint" />
              <mxPoint as="offset" />
            </mxGeometry>
          </mxCell>
        </object>
        <object placeholders="1" c4Type="Relationship" c4Technology="HTTPS/SFTP" c4Description="External request" label="&lt;div style=&quot;text-align: left&quot;&gt;&lt;div style=&quot;text-align: center&quot;&gt;&lt;b&gt;%c4Description%&lt;/b&gt;&lt;/div&gt;&lt;div style=&quot;text-align: center&quot;&gt;[%c4Technology%]&lt;/div&gt;&lt;/div&gt;" id="aQlqcqNrcVZH24Oo7mDU-16">
          <mxCell style="endArrow=blockThin;html=1;fontSize=10;fontColor=#404040;strokeWidth=1;endFill=1;strokeColor=#d79b00;elbow=vertical;metaEdit=1;endSize=14;startSize=14;jumpStyle=arc;jumpSize=16;rounded=0;exitX=0.5;exitY=0;exitDx=0;exitDy=0;fillColor=#ffe6cc;" edge="1" parent="aQlqcqNrcVZH24Oo7mDU-1">
            <mxGeometry x="-0.4506" width="240" relative="1" as="geometry">
              <mxPoint x="-280" y="1330.5" as="sourcePoint" />
              <mxPoint x="-176.5" y="1331.5" as="targetPoint" />
              <mxPoint as="offset" />
            </mxGeometry>
          </mxCell>
        </object>
        <object placeholders="1" c4Type="Relationship" c4Technology="HTTPS" c4Description="Internal request" label="&lt;div style=&quot;text-align: left&quot;&gt;&lt;div style=&quot;text-align: center&quot;&gt;&lt;b&gt;%c4Description%&lt;/b&gt;&lt;/div&gt;&lt;div style=&quot;text-align: center&quot;&gt;[%c4Technology%]&lt;/div&gt;&lt;/div&gt;" id="aQlqcqNrcVZH24Oo7mDU-17">
          <mxCell style="endArrow=blockThin;html=1;fontSize=10;fontColor=#404040;strokeWidth=1;endFill=1;strokeColor=#82b366;elbow=vertical;metaEdit=1;endSize=14;startSize=14;jumpStyle=arc;jumpSize=16;rounded=0;exitX=0.5;exitY=0;exitDx=0;exitDy=0;fillColor=#d5e8d4;" edge="1" parent="aQlqcqNrcVZH24Oo7mDU-1">
            <mxGeometry x="-0.4506" width="240" relative="1" as="geometry">
              <mxPoint x="-280" y="1360.5" as="sourcePoint" />
              <mxPoint x="-176.5" y="1361.5" as="targetPoint" />
              <mxPoint as="offset" />
            </mxGeometry>
          </mxCell>
        </object>
        <object placeholders="1" c4Type="Relationship" c4Technology="AMQP" c4Description="Event" label="&lt;div style=&quot;text-align: left&quot;&gt;&lt;div style=&quot;text-align: center&quot;&gt;&lt;b&gt;%c4Description%&lt;/b&gt;&lt;/div&gt;&lt;div style=&quot;text-align: center&quot;&gt;[%c4Technology%]&lt;/div&gt;&lt;/div&gt;" id="aQlqcqNrcVZH24Oo7mDU-18">
          <mxCell style="endArrow=blockThin;html=1;fontSize=10;fontColor=#404040;strokeWidth=1;endFill=1;strokeColor=#6c8ebf;elbow=vertical;metaEdit=1;endSize=14;startSize=14;jumpStyle=arc;jumpSize=16;rounded=0;exitX=0.5;exitY=0;exitDx=0;exitDy=0;fillColor=#dae8fc;" edge="1" parent="aQlqcqNrcVZH24Oo7mDU-1">
            <mxGeometry x="-0.4506" width="240" relative="1" as="geometry">
              <mxPoint x="-158.5" y="1329.5" as="sourcePoint" />
              <mxPoint x="-55" y="1330.5" as="targetPoint" />
              <mxPoint as="offset" />
            </mxGeometry>
          </mxCell>
        </object>
        <object placeholders="1" c4Type="Relationship" c4Technology="AMQP" c4Description="Internal comm" label="&lt;div style=&quot;text-align: left&quot;&gt;&lt;div style=&quot;text-align: center&quot;&gt;&lt;b&gt;%c4Description%&lt;/b&gt;&lt;/div&gt;&lt;div style=&quot;text-align: center&quot;&gt;[%c4Technology%]&lt;/div&gt;&lt;/div&gt;" id="aQlqcqNrcVZH24Oo7mDU-19">
          <mxCell style="endArrow=blockThin;html=1;fontSize=10;fontColor=#404040;strokeWidth=1;endFill=1;strokeColor=#b85450;elbow=vertical;metaEdit=1;endSize=14;startSize=14;jumpStyle=arc;jumpSize=16;rounded=0;exitX=0.5;exitY=0;exitDx=0;exitDy=0;fillColor=#f8cecc;" edge="1" parent="aQlqcqNrcVZH24Oo7mDU-1">
            <mxGeometry x="-0.459" width="240" relative="1" as="geometry">
              <mxPoint x="-158.5" y="1359.5" as="sourcePoint" />
              <mxPoint x="-55" y="1360.5" as="targetPoint" />
              <mxPoint as="offset" />
            </mxGeometry>
          </mxCell>
        </object>
        <object placeholders="1" c4Type="Relationship" c4Technology="HTTPS" c4Description="Request Tasks" label="&lt;div style=&quot;text-align: left&quot;&gt;&lt;div style=&quot;text-align: center&quot;&gt;&lt;b&gt;%c4Description%&lt;/b&gt;&lt;/div&gt;&lt;div style=&quot;text-align: center&quot;&gt;[%c4Technology%]&lt;/div&gt;&lt;/div&gt;" id="aQlqcqNrcVZH24Oo7mDU-20">
          <mxCell style="endArrow=blockThin;html=1;fontSize=10;fontColor=#404040;strokeWidth=1;endFill=1;strokeColor=#82b366;elbow=vertical;metaEdit=1;endSize=14;startSize=14;jumpStyle=arc;jumpSize=16;rounded=0;edgeStyle=orthogonalEdgeStyle;curved=1;fillColor=#d5e8d4;align=center;verticalAlign=middle;fontFamily=Helvetica;labelBackgroundColor=default;entryX=0.5;entryY=0;entryDx=0;entryDy=0;exitX=0.5;exitY=1;exitDx=0;exitDy=0;" edge="1" parent="aQlqcqNrcVZH24Oo7mDU-1" source="aQlqcqNrcVZH24Oo7mDU-23" target="aQlqcqNrcVZH24Oo7mDU-34">
            <mxGeometry x="-0.2798" y="9" width="240" relative="1" as="geometry">
              <mxPoint x="199" y="989" as="sourcePoint" />
              <mxPoint x="327.5" y="1195.5" as="targetPoint" />
              <mxPoint as="offset" />
              <Array as="points" />
            </mxGeometry>
          </mxCell>
        </object>
        <object placeholders="1" c4Name="[Containers] EMT Subsystems" c4Type="ContainerDiagramTitle" c4Description="Subsystem description" label="&lt;font style=&quot;font-size: 16px&quot;&gt;&lt;b&gt;&lt;div style=&quot;text-align: left&quot;&gt;%c4Name%&lt;/div&gt;&lt;/b&gt;&lt;/font&gt;&lt;div style=&quot;text-align: left&quot;&gt;%c4Description%&lt;/div&gt;" id="aQlqcqNrcVZH24Oo7mDU-21">
          <mxCell style="text;html=1;strokeColor=none;fillColor=none;align=left;verticalAlign=top;whiteSpace=wrap;rounded=0;metaEdit=1;allowArrows=0;resizable=1;rotatable=0;connectable=0;recursiveResize=0;expand=0;pointerEvents=0;points=[[0.25,0,0],[0.5,0,0],[0.75,0,0],[1,0.25,0],[1,0.5,0],[1,0.75,0],[0.75,1,0],[0.5,1,0],[0.25,1,0],[0,0.75,0],[0,0.5,0],[0,0.25,0]];" vertex="1" parent="aQlqcqNrcVZH24Oo7mDU-1">
            <mxGeometry x="-480" y="80" width="310" height="40" as="geometry" />
          </mxCell>
        </object>
        <mxCell id="aQlqcqNrcVZH24Oo7mDU-22" value="" style="group" vertex="1" connectable="0" parent="aQlqcqNrcVZH24Oo7mDU-1">
          <mxGeometry x="-41" y="632" width="260" height="290" as="geometry" />
        </mxCell>
        <mxCell id="aQlqcqNrcVZH24Oo7mDU-23" value="&lt;b&gt;&lt;font style=&quot;font-size: 12px;&quot;&gt;CONTENT INTERACTION&lt;/font&gt;&lt;/b&gt;&lt;br&gt;&lt;font style=&quot;font-size: 10px;&quot;&gt;&lt;i&gt;Micro Services&lt;/i&gt;&lt;/font&gt;" style="rounded=1;whiteSpace=wrap;html=1;fillColor=#dae8fc;dashed=1;arcSize=6;verticalAlign=top;align=left;spacingLeft=5;spacingTop=0;strokeColor=#6c8ebf;spacing=5;" vertex="1" parent="aQlqcqNrcVZH24Oo7mDU-22">
          <mxGeometry width="260" height="290" as="geometry" />
        </mxCell>
        <mxCell id="aQlqcqNrcVZH24Oo7mDU-24" value="&lt;font style=&quot;font-size: 10px;&quot;&gt;Management API&lt;/font&gt;&lt;div&gt;&lt;font style=&quot;font-size: 10px;&quot;&gt;Attributes API&lt;/font&gt;&lt;/div&gt;&lt;div&gt;&lt;font style=&quot;font-size: 10px;&quot;&gt;Clients API&lt;br&gt;Financial API&lt;/font&gt;&lt;/div&gt;&lt;div&gt;&lt;div&gt;&lt;font style=&quot;font-size: 10px;&quot;&gt;Communication API&lt;/font&gt;&lt;/div&gt;&lt;div&gt;&lt;font style=&quot;font-size: 10px;&quot;&gt;Project API&lt;/font&gt;&lt;/div&gt;&lt;/div&gt;" style="rounded=0;whiteSpace=wrap;html=1;fillColor=#fff2cc;strokeColor=#d6b656;fontSize=10;" vertex="1" parent="aQlqcqNrcVZH24Oo7mDU-22">
          <mxGeometry x="10.900687757909216" y="40" width="239.82943603851444" height="137.22" as="geometry" />
        </mxCell>
        <mxCell id="aQlqcqNrcVZH24Oo7mDU-25" value="Regular Domain interaction&amp;nbsp;" style="rounded=0;whiteSpace=wrap;html=1;verticalAlign=middle;fontSize=10;strokeColor=none;fontStyle=2" vertex="1" parent="aQlqcqNrcVZH24Oo7mDU-22">
          <mxGeometry x="10.90146750524109" y="193.33333333333334" width="239.83228511530393" height="64.44444444444444" as="geometry" />
        </mxCell>
        <object placeholders="1" c4Type="Relationship" c4Technology="HTTPS" c4Description="DocuSign Request" label="&lt;div style=&quot;text-align: left&quot;&gt;&lt;div style=&quot;text-align: center&quot;&gt;&lt;b&gt;%c4Description%&lt;/b&gt;&lt;/div&gt;&lt;div style=&quot;text-align: center&quot;&gt;[%c4Technology%]&lt;/div&gt;&lt;/div&gt;" id="aQlqcqNrcVZH24Oo7mDU-30">
          <mxCell style="endArrow=blockThin;html=1;fontSize=10;fontColor=#404040;strokeWidth=1;endFill=1;strokeColor=#d79b00;elbow=vertical;metaEdit=1;endSize=14;startSize=14;jumpStyle=arc;jumpSize=16;rounded=0;exitX=1;exitY=0.5;exitDx=0;exitDy=0;fillColor=#ffe6cc;entryX=0;entryY=0.5;entryDx=0;entryDy=0;" edge="1" parent="aQlqcqNrcVZH24Oo7mDU-1" source="aQlqcqNrcVZH24Oo7mDU-11" target="aQlqcqNrcVZH24Oo7mDU-44">
            <mxGeometry x="-0.4506" width="240" relative="1" as="geometry">
              <mxPoint x="410" y="199.5" as="sourcePoint" />
              <mxPoint x="513.5" y="200.5" as="targetPoint" />
              <mxPoint as="offset" />
            </mxGeometry>
          </mxCell>
        </object>
        <mxCell id="aQlqcqNrcVZH24Oo7mDU-33" value="" style="group" vertex="1" connectable="0" parent="aQlqcqNrcVZH24Oo7mDU-1">
          <mxGeometry x="-92.75" y="1042" width="363.5" height="220" as="geometry" />
        </mxCell>
        <mxCell id="aQlqcqNrcVZH24Oo7mDU-34" value="&lt;b&gt;CORE PLATFORM&lt;/b&gt;&lt;br&gt;&lt;font style=&quot;font-size: 10px;&quot;&gt;&lt;i&gt;Services and workers orchestration&lt;/i&gt;&lt;/font&gt;" style="rounded=1;whiteSpace=wrap;html=1;fillColor=#d5e8d4;dashed=1;arcSize=4;verticalAlign=top;align=left;spacingLeft=5;spacingTop=-2;strokeColor=#82b366;" vertex="1" parent="aQlqcqNrcVZH24Oo7mDU-33">
          <mxGeometry width="363.5" height="220" as="geometry" />
        </mxCell>
        <mxCell id="aQlqcqNrcVZH24Oo7mDU-35" value="Documents Generation&lt;br&gt;&lt;div&gt;Documents Processing&lt;/div&gt;&lt;div&gt;Reports Generation&lt;/div&gt;&lt;div&gt;Notifications for Projects&lt;/div&gt;&lt;div&gt;Project Generation&lt;/div&gt;&lt;div&gt;Task Generation&lt;/div&gt;" style="rounded=0;whiteSpace=wrap;html=1;fillColor=#fff2cc;strokeColor=#d6b656;" vertex="1" parent="aQlqcqNrcVZH24Oo7mDU-33">
          <mxGeometry x="9.57" y="40" width="344.37" height="120" as="geometry" />
        </mxCell>
        <mxCell id="aQlqcqNrcVZH24Oo7mDU-36" value="Daily Jobs, Workers and Services" style="rounded=0;whiteSpace=wrap;html=1;verticalAlign=middle;fontSize=10;strokeColor=none;fontStyle=2" vertex="1" parent="aQlqcqNrcVZH24Oo7mDU-33">
          <mxGeometry x="9.565789473684212" y="170" width="345.08585526315795" height="20" as="geometry" />
        </mxCell>
        <mxCell id="aQlqcqNrcVZH24Oo7mDU-41" value="" style="group" vertex="1" connectable="0" parent="aQlqcqNrcVZH24Oo7mDU-1">
          <mxGeometry x="650" y="160" width="160" height="220" as="geometry" />
        </mxCell>
        <mxCell id="aQlqcqNrcVZH24Oo7mDU-42" value="" style="group" vertex="1" connectable="0" parent="aQlqcqNrcVZH24Oo7mDU-41">
          <mxGeometry width="160" height="220.00000000000003" as="geometry" />
        </mxCell>
        <mxCell id="aQlqcqNrcVZH24Oo7mDU-43" value="&lt;b&gt;External Systems&lt;/b&gt;" style="rounded=1;whiteSpace=wrap;html=1;fillColor=none;dashed=1;arcSize=5;verticalAlign=bottom;align=left;spacingLeft=5;spacingTop=-2;" vertex="1" parent="aQlqcqNrcVZH24Oo7mDU-42">
          <mxGeometry width="160" height="220.00000000000003" as="geometry" />
        </mxCell>
        <mxCell id="aQlqcqNrcVZH24Oo7mDU-44" value="Docusign" style="rounded=0;whiteSpace=wrap;html=1;verticalAlign=middle;fillColor=#ffe6cc;strokeColor=#d79b00;" vertex="1" parent="aQlqcqNrcVZH24Oo7mDU-42">
          <mxGeometry x="20" y="22.450000000000003" width="120" height="35.1" as="geometry" />
        </mxCell>
        <mxCell id="aQlqcqNrcVZH24Oo7mDU-45" value="VIES" style="rounded=0;whiteSpace=wrap;html=1;verticalAlign=middle;fillColor=#ffe6cc;strokeColor=#d79b00;" vertex="1" parent="aQlqcqNrcVZH24Oo7mDU-42">
          <mxGeometry x="20" y="70" width="120" height="35.1" as="geometry" />
        </mxCell>
        <mxCell id="aQlqcqNrcVZH24Oo7mDU-46" style="edgeStyle=orthogonalEdgeStyle;rounded=0;orthogonalLoop=1;jettySize=auto;html=1;exitX=0.5;exitY=1;exitDx=0;exitDy=0;" edge="1" parent="aQlqcqNrcVZH24Oo7mDU-42" source="aQlqcqNrcVZH24Oo7mDU-44" target="aQlqcqNrcVZH24Oo7mDU-44">
          <mxGeometry relative="1" as="geometry" />
        </mxCell>
        <object placeholders="1" c4Type="Relationship" c4Technology="HTTPS" c4Description="DocuSign Request" label="&lt;div style=&quot;text-align: left&quot;&gt;&lt;div style=&quot;text-align: center&quot;&gt;&lt;b&gt;%c4Description%&lt;/b&gt;&lt;/div&gt;&lt;div style=&quot;text-align: center&quot;&gt;[%c4Technology%]&lt;/div&gt;&lt;/div&gt;" id="aQlqcqNrcVZH24Oo7mDU-47">
          <mxCell style="endArrow=blockThin;html=1;fontSize=10;fontColor=#404040;strokeWidth=1;endFill=1;strokeColor=#d79b00;elbow=vertical;metaEdit=1;endSize=14;startSize=14;jumpStyle=arc;jumpSize=16;rounded=0;exitX=1;exitY=0.5;exitDx=0;exitDy=0;fillColor=#ffe6cc;entryX=0;entryY=0.5;entryDx=0;entryDy=0;" edge="1" parent="aQlqcqNrcVZH24Oo7mDU-1" source="aQlqcqNrcVZH24Oo7mDU-23" target="aQlqcqNrcVZH24Oo7mDU-44">
            <mxGeometry x="-0.4506" width="240" relative="1" as="geometry">
              <mxPoint x="370" y="703" as="sourcePoint" />
              <mxPoint x="580" y="220" as="targetPoint" />
              <mxPoint as="offset" />
            </mxGeometry>
          </mxCell>
        </object>
        <object placeholders="1" c4Type="Relationship" c4Technology="HTTPS" c4Description="VAT Request" label="&lt;div style=&quot;text-align: left&quot;&gt;&lt;div style=&quot;text-align: center&quot;&gt;&lt;b&gt;%c4Description%&lt;/b&gt;&lt;/div&gt;&lt;div style=&quot;text-align: center&quot;&gt;[%c4Technology%]&lt;/div&gt;&lt;/div&gt;" id="aQlqcqNrcVZH24Oo7mDU-48">
          <mxCell style="endArrow=blockThin;html=1;fontSize=10;fontColor=#404040;strokeWidth=1;endFill=1;strokeColor=#d79b00;elbow=vertical;metaEdit=1;endSize=14;startSize=14;jumpStyle=arc;jumpSize=16;rounded=0;exitX=1;exitY=0.5;exitDx=0;exitDy=0;fillColor=#ffe6cc;entryX=0;entryY=0.5;entryDx=0;entryDy=0;edgeStyle=orthogonalEdgeStyle;curved=1;" edge="1" parent="aQlqcqNrcVZH24Oo7mDU-1" source="aQlqcqNrcVZH24Oo7mDU-11" target="aQlqcqNrcVZH24Oo7mDU-45">
            <mxGeometry x="-0.4535" width="240" relative="1" as="geometry">
              <mxPoint x="380" y="210" as="sourcePoint" />
              <mxPoint x="580" y="210" as="targetPoint" />
              <mxPoint as="offset" />
              <Array as="points">
                <mxPoint x="370" y="248" />
              </Array>
            </mxGeometry>
          </mxCell>
        </object>
      </root>
    </mxGraphModel>
  </diagram>
  <diagram id="Ys0o92Cx3LAOWmgZiMMq" name="EMT 2.0 - DB - Analysis">
    <mxGraphModel dx="3544" dy="2633" grid="0" gridSize="10" guides="1" tooltips="1" connect="1" arrows="1" fold="1" page="0" pageScale="1" pageWidth="850" pageHeight="1100" math="0" shadow="0">
      <root>
        <mxCell id="0" />
        <mxCell id="1" parent="0" />
        <object placeholders="1" c4Name="Clients" c4Type="" c4Application="" label="&lt;font style=&quot;font-size: 16px&quot;&gt;&lt;b&gt;&lt;div style=&quot;text-align: left&quot;&gt;%c4Name%&lt;/div&gt;&lt;/b&gt;&lt;/font&gt;&lt;div style=&quot;text-align: left&quot;&gt;%c4Application%&lt;/div&gt;" id="04PihrGKLS0dyFyOP302-3">
          <mxCell style="rounded=1;fontSize=11;whiteSpace=wrap;html=1;dashed=1;arcSize=20;fillColor=none;strokeColor=#666666;fontColor=#333333;labelBackgroundColor=none;align=left;verticalAlign=bottom;labelBorderColor=none;spacingTop=0;spacing=10;dashPattern=8 4;metaEdit=1;rotatable=0;perimeter=rectanglePerimeter;noLabel=0;labelPadding=0;allowArrows=0;connectable=0;expand=0;recursiveResize=0;editable=1;pointerEvents=0;absoluteArcSize=1;points=[[0.25,0,0],[0.5,0,0],[0.75,0,0],[1,0.25,0],[1,0.5,0],[1,0.75,0],[0.75,1,0],[0.5,1,0],[0.25,1,0],[0,0.75,0],[0,0.5,0],[0,0.25,0]];" parent="1" vertex="1">
            <mxGeometry x="-82" y="-407" width="240" height="1340" as="geometry" />
          </mxCell>
        </object>
        <object placeholders="1" c4Name="Organizations" c4Type="" c4Application="" label="&lt;font style=&quot;font-size: 16px&quot;&gt;&lt;b&gt;&lt;div style=&quot;text-align: left&quot;&gt;%c4Name%&lt;/div&gt;&lt;/b&gt;&lt;/font&gt;&lt;div style=&quot;text-align: left&quot;&gt;%c4Application%&lt;/div&gt;" id="04PihrGKLS0dyFyOP302-5">
          <mxCell style="rounded=1;fontSize=11;whiteSpace=wrap;html=1;dashed=1;arcSize=20;fillColor=none;strokeColor=#666666;fontColor=#333333;labelBackgroundColor=none;align=left;verticalAlign=bottom;labelBorderColor=none;spacingTop=0;spacing=10;dashPattern=8 4;metaEdit=1;rotatable=0;perimeter=rectanglePerimeter;noLabel=0;labelPadding=0;allowArrows=0;connectable=0;expand=0;recursiveResize=0;editable=1;pointerEvents=0;absoluteArcSize=1;points=[[0.25,0,0],[0.5,0,0],[0.75,0,0],[1,0.25,0],[1,0.5,0],[1,0.75,0],[0.75,1,0],[0.5,1,0],[0.25,1,0],[0,0.75,0],[0,0.5,0],[0,0.25,0]];" parent="1" vertex="1">
            <mxGeometry x="-519" y="-274" width="240" height="210" as="geometry" />
          </mxCell>
        </object>
        <object placeholders="1" c4Name="APP" c4Type="" c4Application="" label="&lt;font style=&quot;font-size: 16px&quot;&gt;&lt;b&gt;&lt;div style=&quot;text-align: left&quot;&gt;%c4Name%&lt;/div&gt;&lt;/b&gt;&lt;/font&gt;&lt;div style=&quot;text-align: left&quot;&gt;%c4Application%&lt;/div&gt;" id="04PihrGKLS0dyFyOP302-8">
          <mxCell style="rounded=1;fontSize=11;whiteSpace=wrap;html=1;dashed=1;arcSize=20;fillColor=none;strokeColor=#666666;fontColor=#333333;labelBackgroundColor=none;align=left;verticalAlign=bottom;labelBorderColor=none;spacingTop=0;spacing=10;dashPattern=8 4;metaEdit=1;rotatable=0;perimeter=rectanglePerimeter;noLabel=0;labelPadding=0;allowArrows=0;connectable=0;expand=0;recursiveResize=0;editable=1;pointerEvents=0;absoluteArcSize=1;points=[[0.25,0,0],[0.5,0,0],[0.75,0,0],[1,0.25,0],[1,0.5,0],[1,0.75,0],[0.75,1,0],[0.5,1,0],[0.25,1,0],[0,0.75,0],[0,0.5,0],[0,0.25,0]];" parent="1" vertex="1">
            <mxGeometry x="-769" y="224" width="492" height="210" as="geometry" />
          </mxCell>
        </object>
        <object placeholders="1" c4Name="Notifications" c4Type="" c4Application="" label="&lt;font style=&quot;font-size: 16px&quot;&gt;&lt;b&gt;&lt;div style=&quot;text-align: left&quot;&gt;%c4Name%&lt;/div&gt;&lt;/b&gt;&lt;/font&gt;&lt;div style=&quot;text-align: left&quot;&gt;%c4Application%&lt;/div&gt;" id="SOVgbN5s66ZuyTbFvyzH-1">
          <mxCell style="rounded=1;fontSize=11;whiteSpace=wrap;html=1;dashed=1;arcSize=20;fillColor=none;strokeColor=#666666;fontColor=#333333;labelBackgroundColor=none;align=left;verticalAlign=bottom;labelBorderColor=none;spacingTop=0;spacing=10;dashPattern=8 4;metaEdit=1;rotatable=0;perimeter=rectanglePerimeter;noLabel=0;labelPadding=0;allowArrows=0;connectable=0;expand=0;recursiveResize=0;editable=1;pointerEvents=0;absoluteArcSize=1;points=[[0.25,0,0],[0.5,0,0],[0.75,0,0],[1,0.25,0],[1,0.5,0],[1,0.75,0],[0.75,1,0],[0.5,1,0],[0.25,1,0],[0,0.75,0],[0,0.5,0],[0,0.25,0]];" parent="1" vertex="1">
            <mxGeometry x="325.5" y="710" width="827" height="236" as="geometry" />
          </mxCell>
        </object>
        <object placeholders="1" c4Name="Alerts" c4Type="Notifications" c4Technology="" c4Description="" label="&lt;font style=&quot;font-size: 16px&quot;&gt;&lt;b&gt;%c4Name%&lt;/b&gt;&lt;/font&gt;&lt;div&gt;%c4Type%&lt;/div&gt;&lt;br&gt;&lt;div&gt;&lt;font style=&quot;font-size: 11px&quot;&gt;%c4Description%&lt;/font&gt;&lt;/div&gt;" id="SOVgbN5s66ZuyTbFvyzH-2">
          <mxCell style="rounded=1;whiteSpace=wrap;html=1;labelBackgroundColor=none;fillColor=#63BEF2;fontColor=#ffffff;align=center;arcSize=6;strokeColor=#2086C9;metaEdit=1;resizable=1;points=[[0.25,0,0],[0.5,0,0],[0.75,0,0],[1,0.25,0],[1,0.5,0],[1,0.75,0],[0.75,1,0],[0.5,1,0],[0.25,1,0],[0,0.75,0],[0,0.5,0],[0,0.25,0]];" parent="1" vertex="1">
            <mxGeometry x="337.5" y="723" width="126" height="82" as="geometry" />
          </mxCell>
        </object>
        <object placeholders="1" c4Name="Notifications" c4Type="Notifications" c4Technology="" c4Description="" label="&lt;font style=&quot;font-size: 16px&quot;&gt;&lt;b&gt;%c4Name%&lt;/b&gt;&lt;/font&gt;&lt;div&gt;%c4Type%&lt;/div&gt;&lt;br&gt;&lt;div&gt;&lt;font style=&quot;font-size: 11px&quot;&gt;%c4Description%&lt;/font&gt;&lt;/div&gt;" id="SOVgbN5s66ZuyTbFvyzH-4">
          <mxCell style="rounded=1;whiteSpace=wrap;html=1;labelBackgroundColor=none;fillColor=#63BEF2;fontColor=#ffffff;align=center;arcSize=6;strokeColor=#2086C9;metaEdit=1;resizable=1;points=[[0.25,0,0],[0.5,0,0],[0.75,0,0],[1,0.25,0],[1,0.5,0],[1,0.75,0],[0.75,1,0],[0.5,1,0],[0.25,1,0],[0,0.75,0],[0,0.5,0],[0,0.25,0]];" parent="1" vertex="1">
            <mxGeometry x="485.5" y="723" width="126" height="82" as="geometry" />
          </mxCell>
        </object>
        <object placeholders="1" c4Name="Clients" c4Type="Clients" c4Technology="" c4Description="" label="&lt;font style=&quot;font-size: 16px&quot;&gt;&lt;b&gt;%c4Name%&lt;/b&gt;&lt;/font&gt;&lt;div&gt;%c4Type%&lt;/div&gt;&lt;br&gt;&lt;div&gt;&lt;font style=&quot;font-size: 11px&quot;&gt;%c4Description%&lt;/font&gt;&lt;/div&gt;" id="SOVgbN5s66ZuyTbFvyzH-5">
          <mxCell style="rounded=1;whiteSpace=wrap;html=1;labelBackgroundColor=none;fillColor=#63BEF2;fontColor=#ffffff;align=center;arcSize=6;strokeColor=#2086C9;metaEdit=1;resizable=1;points=[[0.25,0,0],[0.5,0,0],[0.75,0,0],[1,0.25,0],[1,0.5,0],[1,0.75,0],[0.75,1,0],[0.5,1,0],[0.25,1,0],[0,0.75,0],[0,0.5,0],[0,0.25,0]];" parent="1" vertex="1">
            <mxGeometry x="-62" y="-11" width="126" height="82" as="geometry" />
          </mxCell>
        </object>
        <object placeholders="1" c4Name="Legal Entity" c4Type="Clients" c4Technology="" c4Description="" label="&lt;font style=&quot;font-size: 16px&quot;&gt;&lt;b&gt;%c4Name%&lt;/b&gt;&lt;/font&gt;&lt;div&gt;%c4Type%&lt;/div&gt;&lt;br&gt;&lt;div&gt;&lt;font style=&quot;font-size: 11px&quot;&gt;%c4Description%&lt;/font&gt;&lt;/div&gt;" id="SOVgbN5s66ZuyTbFvyzH-6">
          <mxCell style="rounded=1;whiteSpace=wrap;html=1;labelBackgroundColor=none;fillColor=#63BEF2;fontColor=#ffffff;align=center;arcSize=6;strokeColor=#2086C9;metaEdit=1;resizable=1;points=[[0.25,0,0],[0.5,0,0],[0.75,0,0],[1,0.25,0],[1,0.5,0],[1,0.75,0],[0.75,1,0],[0.5,1,0],[0.25,1,0],[0,0.75,0],[0,0.5,0],[0,0.25,0]];" parent="1" vertex="1">
            <mxGeometry x="-62" y="131" width="126" height="82" as="geometry" />
          </mxCell>
        </object>
        <object placeholders="1" c4Name="Organization" c4Type="Organizations" c4Technology="" c4Description="" label="&lt;font style=&quot;font-size: 16px&quot;&gt;&lt;b&gt;%c4Name%&lt;/b&gt;&lt;/font&gt;&lt;div&gt;%c4Type%&lt;/div&gt;&lt;br&gt;&lt;div&gt;&lt;font style=&quot;font-size: 11px&quot;&gt;%c4Description%&lt;/font&gt;&lt;/div&gt;" id="SOVgbN5s66ZuyTbFvyzH-12">
          <mxCell style="rounded=1;whiteSpace=wrap;html=1;labelBackgroundColor=none;fillColor=#63BEF2;fontColor=#ffffff;align=center;arcSize=6;strokeColor=#2086C9;metaEdit=1;resizable=1;points=[[0.25,0,0],[0.5,0,0],[0.75,0,0],[1,0.25,0],[1,0.5,0],[1,0.75,0],[0.75,1,0],[0.5,1,0],[0.25,1,0],[0,0.75,0],[0,0.5,0],[0,0.25,0]];" parent="1" vertex="1">
            <mxGeometry x="-503" y="-259" width="126" height="82" as="geometry" />
          </mxCell>
        </object>
        <object placeholders="1" c4Name="Users" c4Type="APP" c4Technology="" c4Description="" label="&lt;font style=&quot;font-size: 16px&quot;&gt;&lt;b&gt;%c4Name%&lt;/b&gt;&lt;/font&gt;&lt;div&gt;%c4Type%&lt;/div&gt;&lt;br&gt;&lt;div&gt;&lt;font style=&quot;font-size: 11px&quot;&gt;%c4Description%&lt;/font&gt;&lt;/div&gt;" id="SOVgbN5s66ZuyTbFvyzH-18">
          <mxCell style="rounded=1;whiteSpace=wrap;html=1;labelBackgroundColor=none;fillColor=#63BEF2;fontColor=#ffffff;align=center;arcSize=6;strokeColor=#2086C9;metaEdit=1;resizable=1;points=[[0.25,0,0],[0.5,0,0],[0.75,0,0],[1,0.25,0],[1,0.5,0],[1,0.75,0],[0.75,1,0],[0.5,1,0],[0.25,1,0],[0,0.75,0],[0,0.5,0],[0,0.25,0]];" parent="1" vertex="1">
            <mxGeometry x="-756" y="233" width="126" height="82" as="geometry" />
          </mxCell>
        </object>
        <object placeholders="1" c4Name="Roles" c4Type="APP" c4Technology="" c4Description="" label="&lt;font style=&quot;font-size: 16px&quot;&gt;&lt;b&gt;%c4Name%&lt;/b&gt;&lt;/font&gt;&lt;div&gt;%c4Type%&lt;/div&gt;&lt;br&gt;&lt;div&gt;&lt;font style=&quot;font-size: 11px&quot;&gt;%c4Description%&lt;/font&gt;&lt;/div&gt;" id="SOVgbN5s66ZuyTbFvyzH-19">
          <mxCell style="rounded=1;whiteSpace=wrap;html=1;labelBackgroundColor=none;fillColor=#63BEF2;fontColor=#ffffff;align=center;arcSize=6;strokeColor=#2086C9;metaEdit=1;resizable=1;points=[[0.25,0,0],[0.5,0,0],[0.75,0,0],[1,0.25,0],[1,0.5,0],[1,0.75,0],[0.75,1,0],[0.5,1,0],[0.25,1,0],[0,0.75,0],[0,0.5,0],[0,0.25,0]];" parent="1" vertex="1">
            <mxGeometry x="-616" y="233" width="126" height="82" as="geometry" />
          </mxCell>
        </object>
        <object placeholders="1" c4Name="User Roles" c4Type="APP" c4Technology="" c4Description="" label="&lt;font style=&quot;font-size: 16px&quot;&gt;&lt;b&gt;%c4Name%&lt;/b&gt;&lt;/font&gt;&lt;div&gt;%c4Type%&lt;/div&gt;&lt;br&gt;&lt;div&gt;&lt;font style=&quot;font-size: 11px&quot;&gt;%c4Description%&lt;/font&gt;&lt;/div&gt;" id="SOVgbN5s66ZuyTbFvyzH-20">
          <mxCell style="rounded=1;whiteSpace=wrap;html=1;labelBackgroundColor=none;fillColor=#63BEF2;fontColor=#ffffff;align=center;arcSize=6;strokeColor=#2086C9;metaEdit=1;resizable=1;points=[[0.25,0,0],[0.5,0,0],[0.75,0,0],[1,0.25,0],[1,0.5,0],[1,0.75,0],[0.75,1,0],[0.5,1,0],[0.25,1,0],[0,0.75,0],[0,0.5,0],[0,0.25,0]];" parent="1" vertex="1">
            <mxGeometry x="-470" y="233" width="126" height="82" as="geometry" />
          </mxCell>
        </object>
        <object placeholders="1" c4Name="Financials" c4Type="" c4Application="" label="&lt;font style=&quot;font-size: 16px&quot;&gt;&lt;b&gt;&lt;div style=&quot;text-align: left&quot;&gt;%c4Name%&lt;/div&gt;&lt;/b&gt;&lt;/font&gt;&lt;div style=&quot;text-align: left&quot;&gt;%c4Application%&lt;/div&gt;" id="SOVgbN5s66ZuyTbFvyzH-21">
          <mxCell style="rounded=1;fontSize=11;whiteSpace=wrap;html=1;dashed=1;arcSize=20;fillColor=none;strokeColor=#666666;fontColor=#333333;labelBackgroundColor=none;align=left;verticalAlign=bottom;labelBorderColor=none;spacingTop=0;spacing=10;dashPattern=8 4;metaEdit=1;rotatable=0;perimeter=rectanglePerimeter;noLabel=0;labelPadding=0;allowArrows=0;connectable=0;expand=0;recursiveResize=0;editable=1;pointerEvents=0;absoluteArcSize=1;points=[[0.25,0,0],[0.5,0,0],[0.75,0,0],[1,0.25,0],[1,0.5,0],[1,0.75,0],[0.75,1,0],[0.5,1,0],[0.25,1,0],[0,0.75,0],[0,0.5,0],[0,0.25,0]];" parent="1" vertex="1">
            <mxGeometry x="325.5" y="967" width="829" height="210" as="geometry" />
          </mxCell>
        </object>
        <object placeholders="1" c4Name="Financial" c4Type="Financials" c4Technology="" c4Description="" label="&lt;font style=&quot;font-size: 16px&quot;&gt;&lt;b&gt;%c4Name%&lt;/b&gt;&lt;/font&gt;&lt;div&gt;%c4Type%&lt;/div&gt;&lt;br&gt;&lt;div&gt;&lt;font style=&quot;font-size: 11px&quot;&gt;%c4Description%&lt;/font&gt;&lt;/div&gt;" id="SOVgbN5s66ZuyTbFvyzH-22">
          <mxCell style="rounded=1;whiteSpace=wrap;html=1;labelBackgroundColor=none;fillColor=#63BEF2;fontColor=#ffffff;align=center;arcSize=6;strokeColor=#2086C9;metaEdit=1;resizable=1;points=[[0.25,0,0],[0.5,0,0],[0.75,0,0],[1,0.25,0],[1,0.5,0],[1,0.75,0],[0.75,1,0],[0.5,1,0],[0.25,1,0],[0,0.75,0],[0,0.5,0],[0,0.25,0]];" parent="1" vertex="1">
            <mxGeometry x="337.5" y="983" width="126" height="82" as="geometry" />
          </mxCell>
        </object>
        <object placeholders="1" c4Name="FiscalYear" c4Type="Financials" c4Technology="" c4Description="" label="&lt;font style=&quot;font-size: 16px&quot;&gt;&lt;b&gt;%c4Name%&lt;/b&gt;&lt;/font&gt;&lt;div&gt;%c4Type%&lt;/div&gt;&lt;br&gt;&lt;div&gt;&lt;font style=&quot;font-size: 11px&quot;&gt;%c4Description%&lt;/font&gt;&lt;/div&gt;" id="SOVgbN5s66ZuyTbFvyzH-23">
          <mxCell style="rounded=1;whiteSpace=wrap;html=1;labelBackgroundColor=none;fillColor=#63BEF2;fontColor=#ffffff;align=center;arcSize=6;strokeColor=#2086C9;metaEdit=1;resizable=1;points=[[0.25,0,0],[0.5,0,0],[0.75,0,0],[1,0.25,0],[1,0.5,0],[1,0.75,0],[0.75,1,0],[0.5,1,0],[0.25,1,0],[0,0.75,0],[0,0.5,0],[0,0.25,0]];" parent="1" vertex="1">
            <mxGeometry x="477.5" y="983" width="126" height="82" as="geometry" />
          </mxCell>
        </object>
        <object placeholders="1" c4Name="Master Database" c4Type="" c4Application="" label="&lt;font style=&quot;font-size: 16px&quot;&gt;&lt;b&gt;&lt;div style=&quot;text-align: left&quot;&gt;%c4Name%&lt;/div&gt;&lt;/b&gt;&lt;/font&gt;&lt;div style=&quot;text-align: left&quot;&gt;%c4Application%&lt;/div&gt;" id="SOVgbN5s66ZuyTbFvyzH-33">
          <mxCell style="rounded=1;fontSize=11;whiteSpace=wrap;html=1;dashed=1;arcSize=20;fillColor=none;strokeColor=#666666;fontColor=#333333;labelBackgroundColor=none;align=left;verticalAlign=bottom;labelBorderColor=none;spacingTop=0;spacing=10;dashPattern=8 4;metaEdit=1;rotatable=0;perimeter=rectanglePerimeter;noLabel=0;labelPadding=0;allowArrows=0;connectable=0;expand=0;recursiveResize=0;editable=1;pointerEvents=0;absoluteArcSize=1;points=[[0.25,0,0],[0.5,0,0],[0.75,0,0],[1,0.25,0],[1,0.5,0],[1,0.75,0],[0.75,1,0],[0.5,1,0],[0.25,1,0],[0,0.75,0],[0,0.5,0],[0,0.25,0]];" parent="1" vertex="1">
            <mxGeometry x="-821" y="-346" width="662" height="1330" as="geometry" />
          </mxCell>
        </object>
        <object placeholders="1" c4Name="Organization Database" c4Type="" c4Application="" label="&lt;font style=&quot;font-size: 16px&quot;&gt;&lt;b&gt;&lt;div style=&quot;text-align: left&quot;&gt;%c4Name%&lt;/div&gt;&lt;/b&gt;&lt;/font&gt;&lt;div style=&quot;text-align: left&quot;&gt;%c4Application%&lt;/div&gt;" id="SOVgbN5s66ZuyTbFvyzH-34">
          <mxCell style="rounded=1;fontSize=11;whiteSpace=wrap;html=1;dashed=1;arcSize=20;fillColor=none;strokeColor=#666666;fontColor=#333333;labelBackgroundColor=none;align=left;verticalAlign=bottom;labelBorderColor=none;spacingTop=0;spacing=10;dashPattern=8 4;metaEdit=1;rotatable=0;perimeter=rectanglePerimeter;noLabel=0;labelPadding=0;allowArrows=0;connectable=0;expand=0;recursiveResize=0;editable=1;pointerEvents=0;absoluteArcSize=1;points=[[0.25,0,0],[0.5,0,0],[0.75,0,0],[1,0.25,0],[1,0.5,0],[1,0.75,0],[0.75,1,0],[0.5,1,0],[0.25,1,0],[0,0.75,0],[0,0.5,0],[0,0.25,0]];" parent="1" vertex="1">
            <mxGeometry x="-114" y="-437" width="2302" height="1646" as="geometry" />
          </mxCell>
        </object>
        <object placeholders="1" c4Name="ShareCapital" c4Type="Financials" c4Technology="" c4Description="" label="&lt;font style=&quot;font-size: 16px&quot;&gt;&lt;b&gt;%c4Name%&lt;/b&gt;&lt;/font&gt;&lt;div&gt;%c4Type%&lt;/div&gt;&lt;br&gt;&lt;div&gt;&lt;font style=&quot;font-size: 11px&quot;&gt;%c4Description%&lt;/font&gt;&lt;/div&gt;" id="SOVgbN5s66ZuyTbFvyzH-35">
          <mxCell style="rounded=1;whiteSpace=wrap;html=1;labelBackgroundColor=none;fillColor=#63BEF2;fontColor=#ffffff;align=center;arcSize=6;strokeColor=#2086C9;metaEdit=1;resizable=1;points=[[0.25,0,0],[0.5,0,0],[0.75,0,0],[1,0.25,0],[1,0.5,0],[1,0.75,0],[0.75,1,0],[0.5,1,0],[0.25,1,0],[0,0.75,0],[0,0.5,0],[0,0.25,0]];" parent="1" vertex="1">
            <mxGeometry x="617.5" y="981" width="126" height="82" as="geometry" />
          </mxCell>
        </object>
        <object placeholders="1" c4Name="ShareHolder" c4Type="Financials" c4Technology="" c4Description="" label="&lt;font style=&quot;font-size: 16px&quot;&gt;&lt;b&gt;%c4Name%&lt;/b&gt;&lt;/font&gt;&lt;div&gt;%c4Type%&lt;/div&gt;&lt;br&gt;&lt;div&gt;&lt;font style=&quot;font-size: 11px&quot;&gt;%c4Description%&lt;/font&gt;&lt;/div&gt;" id="SOVgbN5s66ZuyTbFvyzH-37">
          <mxCell style="rounded=1;whiteSpace=wrap;html=1;labelBackgroundColor=none;fillColor=#63BEF2;fontColor=#ffffff;align=center;arcSize=6;strokeColor=#2086C9;metaEdit=1;resizable=1;points=[[0.25,0,0],[0.5,0,0],[0.75,0,0],[1,0.25,0],[1,0.5,0],[1,0.75,0],[0.75,1,0],[0.5,1,0],[0.25,1,0],[0,0.75,0],[0,0.5,0],[0,0.25,0]];" parent="1" vertex="1">
            <mxGeometry x="757.5" y="981" width="126" height="82" as="geometry" />
          </mxCell>
        </object>
        <object placeholders="1" c4Type="Relationship" c4Technology="" c4Description="1:N" label="&lt;div style=&quot;text-align: left&quot;&gt;&lt;div style=&quot;text-align: center&quot;&gt;&lt;b&gt;%c4Description%&lt;/b&gt;&lt;/div&gt;&lt;/div&gt;" id="Wz8Y_3u28o4Ft7u0Kyv7-1">
          <mxCell style="endArrow=blockThin;html=1;fontSize=10;fontColor=#404040;strokeWidth=1;endFill=1;strokeColor=#d79b00;elbow=vertical;metaEdit=1;endSize=14;startSize=14;jumpStyle=arc;jumpSize=16;rounded=0;edgeStyle=orthogonalEdgeStyle;exitX=1;exitY=0.5;exitDx=0;exitDy=0;entryX=0.5;entryY=0;entryDx=0;entryDy=0;curved=1;fillColor=#ffe6cc;exitPerimeter=0;entryPerimeter=0;" parent="1" source="SOVgbN5s66ZuyTbFvyzH-12" target="SOVgbN5s66ZuyTbFvyzH-5" edge="1">
            <mxGeometry x="-0.1932" y="-19" width="240" relative="1" as="geometry">
              <mxPoint x="-240" y="776" as="sourcePoint" />
              <mxPoint x="-380" y="360" as="targetPoint" />
              <mxPoint x="-1" as="offset" />
            </mxGeometry>
          </mxCell>
        </object>
        <object placeholders="1" c4Type="Relationship" c4Technology="" c4Description="1:N" label="&lt;div style=&quot;text-align: left&quot;&gt;&lt;div style=&quot;text-align: center&quot;&gt;&lt;b&gt;%c4Description%&lt;/b&gt;&lt;/div&gt;&lt;/div&gt;" id="Wz8Y_3u28o4Ft7u0Kyv7-2">
          <mxCell style="endArrow=blockThin;html=1;fontSize=10;fontColor=#404040;strokeWidth=1;endFill=1;strokeColor=#d79b00;elbow=vertical;metaEdit=1;endSize=14;startSize=14;jumpStyle=arc;jumpSize=16;rounded=0;exitX=0.5;exitY=1;exitDx=0;exitDy=0;entryX=0.5;entryY=0;entryDx=0;entryDy=0;fillColor=#ffe6cc;exitPerimeter=0;entryPerimeter=0;" parent="1" source="SOVgbN5s66ZuyTbFvyzH-5" target="SOVgbN5s66ZuyTbFvyzH-6" edge="1">
            <mxGeometry x="-0.1932" y="-19" width="240" relative="1" as="geometry">
              <mxPoint x="-367" y="-208" as="sourcePoint" />
              <mxPoint x="11" y="-1" as="targetPoint" />
              <mxPoint x="-1" as="offset" />
            </mxGeometry>
          </mxCell>
        </object>
        <object placeholders="1" c4Type="Relationship" c4Technology="" c4Description="1:N" label="&lt;div style=&quot;text-align: left&quot;&gt;&lt;div style=&quot;text-align: center&quot;&gt;&lt;b&gt;%c4Description%&lt;/b&gt;&lt;/div&gt;&lt;/div&gt;" id="Wz8Y_3u28o4Ft7u0Kyv7-3">
          <mxCell style="endArrow=blockThin;html=1;fontSize=10;fontColor=#404040;strokeWidth=1;endFill=1;strokeColor=#d79b00;elbow=vertical;metaEdit=1;endSize=14;startSize=14;jumpStyle=arc;jumpSize=16;rounded=0;fillColor=#ffe6cc;" parent="1" edge="1">
            <mxGeometry x="-0.1932" y="-19" width="240" relative="1" as="geometry">
              <mxPoint x="264" y="-870" as="sourcePoint" />
              <mxPoint x="581" y="-807" as="targetPoint" />
              <mxPoint x="-1" as="offset" />
            </mxGeometry>
          </mxCell>
        </object>
        <object placeholders="1" c4Type="Relationship" c4Technology="" c4Description="1:N" label="&lt;div style=&quot;text-align: left&quot;&gt;&lt;div style=&quot;text-align: center&quot;&gt;&lt;b&gt;%c4Description%&lt;/b&gt;&lt;/div&gt;&lt;/div&gt;" id="Wz8Y_3u28o4Ft7u0Kyv7-4">
          <mxCell style="endArrow=blockThin;html=1;fontSize=10;fontColor=#404040;strokeWidth=1;endFill=1;strokeColor=#d79b00;elbow=vertical;metaEdit=1;endSize=14;startSize=14;jumpStyle=arc;jumpSize=16;rounded=0;fillColor=#ffe6cc;exitX=1;exitY=0.5;exitDx=0;exitDy=0;exitPerimeter=0;entryX=0.5;entryY=1;entryDx=0;entryDy=0;entryPerimeter=0;" parent="1" source="SOVgbN5s66ZuyTbFvyzH-6" target="SOVgbN5s66ZuyTbFvyzH-41" edge="1">
            <mxGeometry x="-0.1932" y="-19" width="240" relative="1" as="geometry">
              <mxPoint x="274" y="-860" as="sourcePoint" />
              <mxPoint x="591" y="-797" as="targetPoint" />
              <mxPoint x="-1" as="offset" />
            </mxGeometry>
          </mxCell>
        </object>
        <object placeholders="1" c4Type="Relationship" c4Technology="" c4Description="1:N" label="&lt;div style=&quot;text-align: left&quot;&gt;&lt;div style=&quot;text-align: center&quot;&gt;&lt;b&gt;%c4Description%&lt;/b&gt;&lt;/div&gt;&lt;/div&gt;" id="Wz8Y_3u28o4Ft7u0Kyv7-6">
          <mxCell style="endArrow=blockThin;html=1;fontSize=10;fontColor=#404040;strokeWidth=1;endFill=1;strokeColor=#d79b00;elbow=vertical;metaEdit=1;endSize=14;startSize=14;jumpStyle=arc;jumpSize=16;rounded=0;fillColor=#ffe6cc;exitX=1;exitY=0.5;exitDx=0;exitDy=0;exitPerimeter=0;entryX=0.5;entryY=0;entryDx=0;entryDy=0;entryPerimeter=0;" parent="1" source="SOVgbN5s66ZuyTbFvyzH-6" target="SOVgbN5s66ZuyTbFvyzH-22" edge="1">
            <mxGeometry x="-0.1932" y="-19" width="240" relative="1" as="geometry">
              <mxPoint x="-32" y="510" as="sourcePoint" />
              <mxPoint x="308.5" y="619" as="targetPoint" />
              <mxPoint x="-1" as="offset" />
            </mxGeometry>
          </mxCell>
        </object>
        <object placeholders="1" c4Type="Relationship" c4Technology="" c4Description="1:N" label="&lt;div style=&quot;text-align: left&quot;&gt;&lt;div style=&quot;text-align: center&quot;&gt;&lt;b&gt;%c4Description%&lt;/b&gt;&lt;/div&gt;&lt;/div&gt;" id="Wz8Y_3u28o4Ft7u0Kyv7-7">
          <mxCell style="endArrow=blockThin;html=1;fontSize=10;fontColor=#404040;strokeWidth=1;endFill=1;strokeColor=#d79b00;elbow=vertical;metaEdit=1;endSize=14;startSize=14;jumpStyle=arc;jumpSize=16;rounded=0;fillColor=#ffe6cc;exitX=1;exitY=0.5;exitDx=0;exitDy=0;exitPerimeter=0;entryX=0.5;entryY=0;entryDx=0;entryDy=0;entryPerimeter=0;" parent="1" source="SOVgbN5s66ZuyTbFvyzH-6" target="SOVgbN5s66ZuyTbFvyzH-4" edge="1">
            <mxGeometry x="-0.1932" y="-19" width="240" relative="1" as="geometry">
              <mxPoint x="8.5" y="439" as="sourcePoint" />
              <mxPoint x="325.5" y="502" as="targetPoint" />
              <mxPoint x="-1" as="offset" />
            </mxGeometry>
          </mxCell>
        </object>
        <object placeholders="1" c4Type="Relationship" c4Technology="" c4Description="1:N" label="&lt;div style=&quot;text-align: left&quot;&gt;&lt;div style=&quot;text-align: center&quot;&gt;&lt;b&gt;%c4Description%&lt;/b&gt;&lt;/div&gt;&lt;/div&gt;" id="Wz8Y_3u28o4Ft7u0Kyv7-8">
          <mxCell style="endArrow=blockThin;html=1;fontSize=10;fontColor=#404040;strokeWidth=1;endFill=1;strokeColor=#d79b00;elbow=vertical;metaEdit=1;endSize=14;startSize=14;jumpStyle=arc;jumpSize=16;rounded=0;fillColor=#ffe6cc;exitX=1;exitY=0.5;exitDx=0;exitDy=0;exitPerimeter=0;entryX=0;entryY=0.5;entryDx=0;entryDy=0;entryPerimeter=0;" parent="1" source="SOVgbN5s66ZuyTbFvyzH-6" target="SOVgbN5s66ZuyTbFvyzH-2" edge="1">
            <mxGeometry x="-0.1932" y="-19" width="240" relative="1" as="geometry">
              <mxPoint x="247" y="-633" as="sourcePoint" />
              <mxPoint x="564" y="-570" as="targetPoint" />
              <mxPoint x="-1" as="offset" />
            </mxGeometry>
          </mxCell>
        </object>
        <object placeholders="1" c4Type="Relationship" c4Technology="" c4Description="1:N" label="&lt;div style=&quot;text-align: left&quot;&gt;&lt;div style=&quot;text-align: center&quot;&gt;&lt;b&gt;%c4Description%&lt;/b&gt;&lt;/div&gt;&lt;/div&gt;" id="Wz8Y_3u28o4Ft7u0Kyv7-9">
          <mxCell style="endArrow=blockThin;html=1;fontSize=10;fontColor=#404040;strokeWidth=1;endFill=1;strokeColor=#d79b00;elbow=vertical;metaEdit=1;endSize=14;startSize=14;jumpStyle=arc;jumpSize=16;rounded=0;fillColor=#ffe6cc;exitX=1;exitY=0.5;exitDx=0;exitDy=0;exitPerimeter=0;entryX=0;entryY=0.5;entryDx=0;entryDy=0;entryPerimeter=0;" parent="1" source="SOVgbN5s66ZuyTbFvyzH-5" target="SOVgbN5s66ZuyTbFvyzH-25" edge="1">
            <mxGeometry x="-0.1932" y="-19" width="240" relative="1" as="geometry">
              <mxPoint x="304" y="-830" as="sourcePoint" />
              <mxPoint x="621" y="-767" as="targetPoint" />
              <mxPoint x="-1" as="offset" />
            </mxGeometry>
          </mxCell>
        </object>
        <object placeholders="1" c4Type="Relationship" c4Technology="" c4Description="1:N" label="&lt;div style=&quot;text-align: left&quot;&gt;&lt;div style=&quot;text-align: center&quot;&gt;&lt;b&gt;%c4Description%&lt;/b&gt;&lt;/div&gt;&lt;/div&gt;" id="Wz8Y_3u28o4Ft7u0Kyv7-11">
          <mxCell style="endArrow=blockThin;html=1;fontSize=10;fontColor=#404040;strokeWidth=1;endFill=1;strokeColor=#d79b00;elbow=vertical;metaEdit=1;endSize=14;startSize=14;jumpStyle=arc;jumpSize=16;rounded=0;fillColor=#ffe6cc;exitX=1;exitY=0.5;exitDx=0;exitDy=0;exitPerimeter=0;entryX=0;entryY=0.5;entryDx=0;entryDy=0;entryPerimeter=0;" parent="1" source="SOVgbN5s66ZuyTbFvyzH-5" target="SOVgbN5s66ZuyTbFvyzH-24" edge="1">
            <mxGeometry x="-0.1932" y="-19" width="240" relative="1" as="geometry">
              <mxPoint x="872" y="-903" as="sourcePoint" />
              <mxPoint x="1189" y="-840" as="targetPoint" />
              <mxPoint x="-1" as="offset" />
            </mxGeometry>
          </mxCell>
        </object>
        <object placeholders="1" c4Type="Relationship" c4Technology="" c4Description="1:N" label="&lt;div style=&quot;text-align: left&quot;&gt;&lt;div style=&quot;text-align: center&quot;&gt;&lt;b&gt;%c4Description%&lt;/b&gt;&lt;/div&gt;&lt;/div&gt;" id="Wz8Y_3u28o4Ft7u0Kyv7-13">
          <mxCell style="endArrow=blockThin;html=1;fontSize=10;fontColor=#404040;strokeWidth=1;endFill=1;strokeColor=#d79b00;elbow=vertical;metaEdit=1;endSize=14;startSize=14;jumpStyle=arc;jumpSize=16;rounded=0;fillColor=#ffe6cc;exitX=1;exitY=0.5;exitDx=0;exitDy=0;exitPerimeter=0;entryX=0.5;entryY=0;entryDx=0;entryDy=0;entryPerimeter=0;" parent="1" source="SOVgbN5s66ZuyTbFvyzH-6" target="SOVgbN5s66ZuyTbFvyzH-26" edge="1">
            <mxGeometry x="-0.1932" y="-19" width="240" relative="1" as="geometry">
              <mxPoint x="284" y="-850" as="sourcePoint" />
              <mxPoint x="601" y="-787" as="targetPoint" />
              <mxPoint x="-1" as="offset" />
            </mxGeometry>
          </mxCell>
        </object>
        <object placeholders="1" c4Type="Relationship" c4Technology="" c4Description="1:N" label="&lt;div style=&quot;text-align: left&quot;&gt;&lt;div style=&quot;text-align: center&quot;&gt;&lt;b&gt;%c4Description%&lt;/b&gt;&lt;/div&gt;&lt;/div&gt;" id="Wz8Y_3u28o4Ft7u0Kyv7-15">
          <mxCell style="endArrow=blockThin;html=1;fontSize=10;fontColor=#404040;strokeWidth=1;endFill=1;strokeColor=#d79b00;elbow=vertical;metaEdit=1;endSize=14;startSize=14;jumpStyle=arc;jumpSize=16;rounded=0;fillColor=#ffe6cc;exitX=0.5;exitY=0;exitDx=0;exitDy=0;exitPerimeter=0;entryX=0.5;entryY=0;entryDx=0;entryDy=0;entryPerimeter=0;" parent="1" source="SOVgbN5s66ZuyTbFvyzH-13" target="SOVgbN5s66ZuyTbFvyzH-38" edge="1">
            <mxGeometry x="-0.1932" y="-19" width="240" relative="1" as="geometry">
              <mxPoint x="304" y="-830" as="sourcePoint" />
              <mxPoint x="621" y="-767" as="targetPoint" />
              <mxPoint x="-1" as="offset" />
            </mxGeometry>
          </mxCell>
        </object>
        <object placeholders="1" c4Type="Relationship" c4Technology="" c4Description="1:N" label="&lt;div style=&quot;text-align: left&quot;&gt;&lt;div style=&quot;text-align: center&quot;&gt;&lt;b&gt;%c4Description%&lt;/b&gt;&lt;/div&gt;&lt;/div&gt;" id="Wz8Y_3u28o4Ft7u0Kyv7-21">
          <mxCell style="endArrow=blockThin;html=1;fontSize=10;fontColor=#404040;strokeWidth=1;endFill=1;strokeColor=#d79b00;elbow=vertical;metaEdit=1;endSize=14;startSize=14;jumpStyle=arc;jumpSize=16;rounded=0;fillColor=#ffe6cc;exitX=0.5;exitY=1;exitDx=0;exitDy=0;exitPerimeter=0;entryX=0.5;entryY=1;entryDx=0;entryDy=0;entryPerimeter=0;edgeStyle=orthogonalEdgeStyle;curved=1;" parent="1" source="SOVgbN5s66ZuyTbFvyzH-23" target="SOVgbN5s66ZuyTbFvyzH-22" edge="1">
            <mxGeometry x="-0.1932" y="-19" width="240" relative="1" as="geometry">
              <mxPoint x="562" y="1147" as="sourcePoint" />
              <mxPoint x="879" y="1210" as="targetPoint" />
              <mxPoint x="-1" as="offset" />
              <Array as="points">
                <mxPoint x="541" y="1102" />
                <mxPoint x="401" y="1102" />
              </Array>
            </mxGeometry>
          </mxCell>
        </object>
        <object placeholders="1" c4Type="Relationship" c4Technology="" c4Description="1:N" label="&lt;div style=&quot;text-align: left&quot;&gt;&lt;div style=&quot;text-align: center&quot;&gt;&lt;b&gt;%c4Description%&lt;/b&gt;&lt;/div&gt;&lt;/div&gt;" id="Wz8Y_3u28o4Ft7u0Kyv7-22">
          <mxCell style="endArrow=blockThin;html=1;fontSize=10;fontColor=#404040;strokeWidth=1;endFill=1;strokeColor=#d79b00;elbow=vertical;metaEdit=1;endSize=14;startSize=14;jumpStyle=arc;jumpSize=16;rounded=0;fillColor=#ffe6cc;exitX=1;exitY=0.5;exitDx=0;exitDy=0;exitPerimeter=0;entryX=0.5;entryY=0;entryDx=0;entryDy=0;entryPerimeter=0;" parent="1" source="SOVgbN5s66ZuyTbFvyzH-6" target="SOVgbN5s66ZuyTbFvyzH-35" edge="1">
            <mxGeometry x="-0.1932" y="-19" width="240" relative="1" as="geometry">
              <mxPoint x="74" y="182" as="sourcePoint" />
              <mxPoint x="411" y="993" as="targetPoint" />
              <mxPoint x="-1" as="offset" />
            </mxGeometry>
          </mxCell>
        </object>
        <object placeholders="1" c4Type="Relationship" c4Technology="" c4Description="1:N" label="&lt;div style=&quot;text-align: left&quot;&gt;&lt;div style=&quot;text-align: center&quot;&gt;&lt;b&gt;%c4Description%&lt;/b&gt;&lt;/div&gt;&lt;/div&gt;" id="Wz8Y_3u28o4Ft7u0Kyv7-23">
          <mxCell style="endArrow=blockThin;html=1;fontSize=10;fontColor=#404040;strokeWidth=1;endFill=1;strokeColor=#d79b00;elbow=vertical;metaEdit=1;endSize=14;startSize=14;jumpStyle=arc;jumpSize=16;rounded=0;fillColor=#ffe6cc;exitX=0.5;exitY=1;exitDx=0;exitDy=0;exitPerimeter=0;entryX=0.5;entryY=1;entryDx=0;entryDy=0;entryPerimeter=0;edgeStyle=orthogonalEdgeStyle;curved=1;" parent="1" source="SOVgbN5s66ZuyTbFvyzH-35" target="SOVgbN5s66ZuyTbFvyzH-37" edge="1">
            <mxGeometry x="-0.1932" y="-19" width="240" relative="1" as="geometry">
              <mxPoint x="1382" y="896" as="sourcePoint" />
              <mxPoint x="1242" y="896" as="targetPoint" />
              <mxPoint x="-1" as="offset" />
              <Array as="points">
                <mxPoint x="681" y="1115" />
                <mxPoint x="821" y="1115" />
              </Array>
            </mxGeometry>
          </mxCell>
        </object>
        <object placeholders="1" c4Type="Relationship" c4Technology="" c4Description="1:N" label="&lt;div style=&quot;text-align: left&quot;&gt;&lt;div style=&quot;text-align: center&quot;&gt;&lt;b&gt;%c4Description%&lt;/b&gt;&lt;/div&gt;&lt;/div&gt;" id="Wz8Y_3u28o4Ft7u0Kyv7-25">
          <mxCell style="endArrow=blockThin;html=1;fontSize=10;fontColor=#404040;strokeWidth=1;endFill=1;strokeColor=#d79b00;elbow=vertical;metaEdit=1;endSize=14;startSize=14;jumpStyle=arc;jumpSize=16;rounded=0;fillColor=#ffe6cc;exitX=0.5;exitY=0;exitDx=0;exitDy=0;exitPerimeter=0;entryX=0.5;entryY=0;entryDx=0;entryDy=0;entryPerimeter=0;" parent="1" source="SOVgbN5s66ZuyTbFvyzH-13" target="SOVgbN5s66ZuyTbFvyzH-26" edge="1">
            <mxGeometry x="-0.1932" y="-19" width="240" relative="1" as="geometry">
              <mxPoint x="-191" y="-703" as="sourcePoint" />
              <mxPoint x="111" y="-640" as="targetPoint" />
              <mxPoint x="-1" as="offset" />
            </mxGeometry>
          </mxCell>
        </object>
        <object placeholders="1" c4Type="Relationship" c4Technology="" c4Description="1:N" label="&lt;div style=&quot;text-align: left&quot;&gt;&lt;div style=&quot;text-align: center&quot;&gt;&lt;b&gt;%c4Description%&lt;/b&gt;&lt;/div&gt;&lt;/div&gt;" id="Wz8Y_3u28o4Ft7u0Kyv7-26">
          <mxCell style="endArrow=blockThin;html=1;fontSize=10;fontColor=#404040;strokeWidth=1;endFill=1;strokeColor=#d79b00;elbow=vertical;metaEdit=1;endSize=14;startSize=14;jumpStyle=arc;jumpSize=16;rounded=0;fillColor=#ffe6cc;entryX=0.5;entryY=0;entryDx=0;entryDy=0;entryPerimeter=0;exitX=0.5;exitY=0;exitDx=0;exitDy=0;exitPerimeter=0;edgeStyle=orthogonalEdgeStyle;curved=1;" parent="1" source="SOVgbN5s66ZuyTbFvyzH-40" target="SOVgbN5s66ZuyTbFvyzH-8" edge="1">
            <mxGeometry x="-0.1932" y="-19" width="240" relative="1" as="geometry">
              <mxPoint x="867" y="-630" as="sourcePoint" />
              <mxPoint x="1184" y="-567" as="targetPoint" />
              <mxPoint x="-1" as="offset" />
              <Array as="points">
                <mxPoint x="420" y="-533" />
                <mxPoint x="1389" y="-533" />
              </Array>
            </mxGeometry>
          </mxCell>
        </object>
        <object placeholders="1" c4Type="Relationship" c4Technology="" c4Description="1:N" label="&lt;div style=&quot;text-align: left&quot;&gt;&lt;div style=&quot;text-align: center&quot;&gt;&lt;b&gt;%c4Description%&lt;/b&gt;&lt;/div&gt;&lt;/div&gt;" id="Wz8Y_3u28o4Ft7u0Kyv7-27">
          <mxCell style="endArrow=blockThin;html=1;fontSize=10;fontColor=#404040;strokeWidth=1;endFill=1;strokeColor=#d79b00;elbow=vertical;metaEdit=1;endSize=14;startSize=14;jumpStyle=arc;jumpSize=16;rounded=0;fillColor=#ffe6cc;exitX=0.5;exitY=1;exitDx=0;exitDy=0;exitPerimeter=0;entryX=0;entryY=0.5;entryDx=0;entryDy=0;entryPerimeter=0;edgeStyle=orthogonalEdgeStyle;curved=1;" parent="1" source="SOVgbN5s66ZuyTbFvyzH-16" target="SOVgbN5s66ZuyTbFvyzH-6" edge="1">
            <mxGeometry x="-0.1932" y="-19" width="240" relative="1" as="geometry">
              <mxPoint x="294" y="-840" as="sourcePoint" />
              <mxPoint x="611" y="-777" as="targetPoint" />
              <mxPoint x="-1" as="offset" />
            </mxGeometry>
          </mxCell>
        </object>
        <object placeholders="1" c4Type="Relationship" c4Technology="" c4Description="1:N" label="&lt;div style=&quot;text-align: left&quot;&gt;&lt;div style=&quot;text-align: center&quot;&gt;&lt;b&gt;%c4Description%&lt;/b&gt;&lt;/div&gt;&lt;/div&gt;" id="Wz8Y_3u28o4Ft7u0Kyv7-28">
          <mxCell style="endArrow=blockThin;html=1;fontSize=10;fontColor=#404040;strokeWidth=1;endFill=1;strokeColor=#d79b00;elbow=vertical;metaEdit=1;endSize=14;startSize=14;jumpStyle=arc;jumpSize=16;rounded=0;fillColor=#ffe6cc;exitX=1;exitY=0.5;exitDx=0;exitDy=0;exitPerimeter=0;entryX=0.5;entryY=1;entryDx=0;entryDy=0;entryPerimeter=0;" parent="1" source="SOVgbN5s66ZuyTbFvyzH-17" target="SOVgbN5s66ZuyTbFvyzH-41" edge="1">
            <mxGeometry x="-0.1932" y="-19" width="240" relative="1" as="geometry">
              <mxPoint x="304" y="-830" as="sourcePoint" />
              <mxPoint x="621" y="-767" as="targetPoint" />
              <mxPoint x="-1" as="offset" />
            </mxGeometry>
          </mxCell>
        </object>
        <object placeholders="1" c4Type="Relationship" c4Technology="" c4Description="1:N" label="&lt;div style=&quot;text-align: left&quot;&gt;&lt;div style=&quot;text-align: center&quot;&gt;&lt;b&gt;%c4Description%&lt;/b&gt;&lt;/div&gt;&lt;/div&gt;" id="Wz8Y_3u28o4Ft7u0Kyv7-30">
          <mxCell style="endArrow=blockThin;html=1;fontSize=10;fontColor=#404040;strokeWidth=1;endFill=1;strokeColor=#d79b00;elbow=vertical;metaEdit=1;endSize=14;startSize=14;jumpStyle=arc;jumpSize=16;rounded=0;fillColor=#ffe6cc;exitX=1;exitY=0.5;exitDx=0;exitDy=0;exitPerimeter=0;entryX=0.5;entryY=0;entryDx=0;entryDy=0;entryPerimeter=0;" parent="1" source="SOVgbN5s66ZuyTbFvyzH-6" target="SOVgbN5s66ZuyTbFvyzH-38" edge="1">
            <mxGeometry x="-0.1932" y="-19" width="240" relative="1" as="geometry">
              <mxPoint x="324" y="-810" as="sourcePoint" />
              <mxPoint x="641" y="-747" as="targetPoint" />
              <mxPoint x="-1" as="offset" />
            </mxGeometry>
          </mxCell>
        </object>
        <mxCell id="Wz8Y_3u28o4Ft7u0Kyv7-38" value="" style="group" parent="1" vertex="1" connectable="0">
          <mxGeometry x="325.5" y="470" width="829" height="223" as="geometry" />
        </mxCell>
        <object placeholders="1" c4Name="Authorities" c4Type="" c4Application="" label="&lt;font style=&quot;font-size: 16px&quot;&gt;&lt;b&gt;&lt;div style=&quot;text-align: left&quot;&gt;%c4Name%&lt;/div&gt;&lt;/b&gt;&lt;/font&gt;&lt;div style=&quot;text-align: left&quot;&gt;%c4Application%&lt;/div&gt;" id="04PihrGKLS0dyFyOP302-6">
          <mxCell style="rounded=1;fontSize=11;whiteSpace=wrap;html=1;dashed=1;arcSize=20;fillColor=none;strokeColor=#666666;fontColor=#333333;labelBackgroundColor=none;align=left;verticalAlign=bottom;labelBorderColor=none;spacingTop=0;spacing=10;dashPattern=8 4;metaEdit=1;rotatable=0;perimeter=rectanglePerimeter;noLabel=0;labelPadding=0;allowArrows=0;connectable=0;expand=0;recursiveResize=0;editable=1;pointerEvents=0;absoluteArcSize=1;points=[[0.25,0,0],[0.5,0,0],[0.75,0,0],[1,0.25,0],[1,0.5,0],[1,0.75,0],[0.75,1,0],[0.5,1,0],[0.25,1,0],[0,0.75,0],[0,0.5,0],[0,0.25,0]];" parent="Wz8Y_3u28o4Ft7u0Kyv7-38" vertex="1">
            <mxGeometry width="829" height="223" as="geometry" />
          </mxCell>
        </object>
        <object placeholders="1" c4Name="Person Particular " c4Type="Authorities" c4Technology="" c4Description="" label="&lt;font style=&quot;font-size: 16px&quot;&gt;&lt;b&gt;%c4Name%&lt;/b&gt;&lt;/font&gt;&lt;div&gt;%c4Type%&lt;/div&gt;&lt;br&gt;&lt;div&gt;&lt;font style=&quot;font-size: 11px&quot;&gt;%c4Description%&lt;/font&gt;&lt;/div&gt;" id="SOVgbN5s66ZuyTbFvyzH-26">
          <mxCell style="rounded=1;whiteSpace=wrap;html=1;labelBackgroundColor=none;fillColor=#63BEF2;fontColor=#ffffff;align=center;arcSize=6;strokeColor=#2086C9;metaEdit=1;resizable=1;points=[[0.25,0,0],[0.5,0,0],[0.75,0,0],[1,0.25,0],[1,0.5,0],[1,0.75,0],[0.75,1,0],[0.5,1,0],[0.25,1,0],[0,0.75,0],[0,0.5,0],[0,0.25,0]];" parent="Wz8Y_3u28o4Ft7u0Kyv7-38" vertex="1">
            <mxGeometry x="17" y="16" width="126" height="82" as="geometry" />
          </mxCell>
        </object>
        <object placeholders="1" c4Name="Beneficial Ownership Category" c4Type="Authorities" c4Technology="" c4Description="" label="&lt;font style=&quot;font-size: 16px&quot;&gt;&lt;b&gt;%c4Name%&lt;/b&gt;&lt;/font&gt;&lt;div&gt;%c4Type%&lt;/div&gt;&lt;br&gt;&lt;div&gt;&lt;font style=&quot;font-size: 11px&quot;&gt;%c4Description%&lt;/font&gt;&lt;/div&gt;" id="SOVgbN5s66ZuyTbFvyzH-38">
          <mxCell style="rounded=1;whiteSpace=wrap;html=1;labelBackgroundColor=none;fillColor=#63BEF2;fontColor=#ffffff;align=center;arcSize=6;strokeColor=#2086C9;metaEdit=1;resizable=1;points=[[0.25,0,0],[0.5,0,0],[0.75,0,0],[1,0.25,0],[1,0.5,0],[1,0.75,0],[0.75,1,0],[0.5,1,0],[0.25,1,0],[0,0.75,0],[0,0.5,0],[0,0.25,0]];" parent="Wz8Y_3u28o4Ft7u0Kyv7-38" vertex="1">
            <mxGeometry x="160" y="108" width="126" height="82" as="geometry" />
          </mxCell>
        </object>
        <mxCell id="Wz8Y_3u28o4Ft7u0Kyv7-39" value="" style="group" parent="1" vertex="1" connectable="0">
          <mxGeometry x="325.5" y="221" width="828" height="210" as="geometry" />
        </mxCell>
        <object placeholders="1" c4Name="Data" c4Type="" c4Application="" label="&lt;font style=&quot;font-size: 16px&quot;&gt;&lt;b&gt;&lt;div style=&quot;text-align: left&quot;&gt;%c4Name%&lt;/div&gt;&lt;/b&gt;&lt;/font&gt;&lt;div style=&quot;text-align: left&quot;&gt;%c4Application%&lt;/div&gt;" id="04PihrGKLS0dyFyOP302-7">
          <mxCell style="rounded=1;fontSize=11;whiteSpace=wrap;html=1;dashed=1;arcSize=20;fillColor=none;strokeColor=#666666;fontColor=#333333;labelBackgroundColor=none;align=left;verticalAlign=bottom;labelBorderColor=none;spacingTop=0;spacing=10;dashPattern=8 4;metaEdit=1;rotatable=0;perimeter=rectanglePerimeter;noLabel=0;labelPadding=0;allowArrows=0;connectable=0;expand=0;recursiveResize=0;editable=1;pointerEvents=0;absoluteArcSize=1;points=[[0.25,0,0],[0.5,0,0],[0.75,0,0],[1,0.25,0],[1,0.5,0],[1,0.75,0],[0.75,1,0],[0.5,1,0],[0.25,1,0],[0,0.75,0],[0,0.5,0],[0,0.25,0]];" parent="Wz8Y_3u28o4Ft7u0Kyv7-39" vertex="1">
            <mxGeometry width="828" height="210" as="geometry" />
          </mxCell>
        </object>
        <object placeholders="1" c4Name="Signatures" c4Type="Data" c4Technology="" c4Description="" label="&lt;font style=&quot;font-size: 16px&quot;&gt;&lt;b&gt;%c4Name%&lt;/b&gt;&lt;/font&gt;&lt;div&gt;%c4Type%&lt;/div&gt;&lt;br&gt;&lt;div&gt;&lt;font style=&quot;font-size: 11px&quot;&gt;%c4Description%&lt;/font&gt;&lt;/div&gt;" id="SOVgbN5s66ZuyTbFvyzH-24">
          <mxCell style="rounded=1;whiteSpace=wrap;html=1;labelBackgroundColor=none;fillColor=#63BEF2;fontColor=#ffffff;align=center;arcSize=6;strokeColor=#2086C9;metaEdit=1;resizable=1;points=[[0.25,0,0],[0.5,0,0],[0.75,0,0],[1,0.25,0],[1,0.5,0],[1,0.75,0],[0.75,1,0],[0.5,1,0],[0.25,1,0],[0,0.75,0],[0,0.5,0],[0,0.25,0]];" parent="Wz8Y_3u28o4Ft7u0Kyv7-39" vertex="1">
            <mxGeometry x="12" y="12" width="126" height="82" as="geometry" />
          </mxCell>
        </object>
        <object placeholders="1" c4Name="Diagrams" c4Type="Data" c4Technology="" c4Description="" label="&lt;font style=&quot;font-size: 16px&quot;&gt;&lt;b&gt;%c4Name%&lt;/b&gt;&lt;/font&gt;&lt;div&gt;%c4Type%&lt;/div&gt;&lt;br&gt;&lt;div&gt;&lt;font style=&quot;font-size: 11px&quot;&gt;%c4Description%&lt;/font&gt;&lt;/div&gt;" id="SOVgbN5s66ZuyTbFvyzH-25">
          <mxCell style="rounded=1;whiteSpace=wrap;html=1;labelBackgroundColor=none;fillColor=#63BEF2;fontColor=#ffffff;align=center;arcSize=6;strokeColor=#2086C9;metaEdit=1;resizable=1;points=[[0.25,0,0],[0.5,0,0],[0.75,0,0],[1,0.25,0],[1,0.5,0],[1,0.75,0],[0.75,1,0],[0.5,1,0],[0.25,1,0],[0,0.75,0],[0,0.5,0],[0,0.25,0]];" parent="Wz8Y_3u28o4Ft7u0Kyv7-39" vertex="1">
            <mxGeometry x="154" y="12" width="126" height="82" as="geometry" />
          </mxCell>
        </object>
        <object placeholders="1" c4Name="CompanyBoard" c4Type="Data" c4Technology="" c4Description="" label="&lt;font style=&quot;font-size: 16px&quot;&gt;&lt;b&gt;%c4Name%&lt;/b&gt;&lt;/font&gt;&lt;div&gt;%c4Type%&lt;/div&gt;&lt;br&gt;&lt;div&gt;&lt;font style=&quot;font-size: 11px&quot;&gt;%c4Description%&lt;/font&gt;&lt;/div&gt;" id="Wz8Y_3u28o4Ft7u0Kyv7-57">
          <mxCell style="rounded=1;whiteSpace=wrap;html=1;labelBackgroundColor=none;fillColor=#63BEF2;fontColor=#ffffff;align=center;arcSize=6;strokeColor=#2086C9;metaEdit=1;resizable=1;points=[[0.25,0,0],[0.5,0,0],[0.75,0,0],[1,0.25,0],[1,0.5,0],[1,0.75,0],[0.75,1,0],[0.5,1,0],[0.25,1,0],[0,0.75,0],[0,0.5,0],[0,0.25,0]];" parent="Wz8Y_3u28o4Ft7u0Kyv7-39" vertex="1">
            <mxGeometry x="300.5" y="12" width="126" height="82" as="geometry" />
          </mxCell>
        </object>
        <mxCell id="Wz8Y_3u28o4Ft7u0Kyv7-46" value="" style="group" parent="1" vertex="1" connectable="0">
          <mxGeometry x="1297" y="-401" width="806" height="328" as="geometry" />
        </mxCell>
        <object placeholders="1" c4Name="Documents" c4Type="" c4Application="" label="&lt;font style=&quot;font-size: 16px&quot;&gt;&lt;b&gt;&lt;div style=&quot;text-align: left&quot;&gt;%c4Name%&lt;/div&gt;&lt;/b&gt;&lt;/font&gt;&lt;div style=&quot;text-align: left&quot;&gt;%c4Application%&lt;/div&gt;" id="04PihrGKLS0dyFyOP302-2">
          <mxCell style="rounded=1;fontSize=11;whiteSpace=wrap;html=1;dashed=1;arcSize=20;fillColor=none;strokeColor=#666666;fontColor=#333333;labelBackgroundColor=none;align=left;verticalAlign=bottom;labelBorderColor=none;spacingTop=0;spacing=10;dashPattern=8 4;metaEdit=1;rotatable=0;perimeter=rectanglePerimeter;noLabel=0;labelPadding=0;allowArrows=0;connectable=0;expand=0;recursiveResize=0;editable=1;pointerEvents=0;absoluteArcSize=1;points=[[0.25,0,0],[0.5,0,0],[0.75,0,0],[1,0.25,0],[1,0.5,0],[1,0.75,0],[0.75,1,0],[0.5,1,0],[0.25,1,0],[0,0.75,0],[0,0.5,0],[0,0.25,0]];" parent="Wz8Y_3u28o4Ft7u0Kyv7-46" vertex="1">
            <mxGeometry width="806" height="328" as="geometry" />
          </mxCell>
        </object>
        <object placeholders="1" c4Name="Documents" c4Type="Documents" c4Technology="" c4Description="" label="&lt;font style=&quot;font-size: 16px&quot;&gt;&lt;b&gt;%c4Name%&lt;/b&gt;&lt;/font&gt;&lt;div&gt;%c4Type%&lt;/div&gt;&lt;br&gt;&lt;div&gt;&lt;font style=&quot;font-size: 11px&quot;&gt;%c4Description%&lt;/font&gt;&lt;/div&gt;" id="SOVgbN5s66ZuyTbFvyzH-7">
          <mxCell style="rounded=1;whiteSpace=wrap;html=1;labelBackgroundColor=none;fillColor=#63BEF2;fontColor=#ffffff;align=center;arcSize=6;strokeColor=#2086C9;metaEdit=1;resizable=1;points=[[0.25,0,0],[0.5,0,0],[0.75,0,0],[1,0.25,0],[1,0.5,0],[1,0.75,0],[0.75,1,0],[0.5,1,0],[0.25,1,0],[0,0.75,0],[0,0.5,0],[0,0.25,0]];" parent="Wz8Y_3u28o4Ft7u0Kyv7-46" vertex="1">
            <mxGeometry x="29" y="170" width="126" height="82" as="geometry" />
          </mxCell>
        </object>
        <object placeholders="1" c4Name="Document Templates" c4Type="Documents" c4Technology="" c4Description="" label="&lt;font style=&quot;font-size: 16px&quot;&gt;&lt;b&gt;%c4Name%&lt;/b&gt;&lt;/font&gt;&lt;div&gt;%c4Type%&lt;/div&gt;&lt;br&gt;&lt;div&gt;&lt;font style=&quot;font-size: 11px&quot;&gt;%c4Description%&lt;/font&gt;&lt;/div&gt;" id="SOVgbN5s66ZuyTbFvyzH-8">
          <mxCell style="rounded=1;whiteSpace=wrap;html=1;labelBackgroundColor=none;fillColor=#63BEF2;fontColor=#ffffff;align=center;arcSize=6;strokeColor=#2086C9;metaEdit=1;resizable=1;points=[[0.25,0,0],[0.5,0,0],[0.75,0,0],[1,0.25,0],[1,0.5,0],[1,0.75,0],[0.75,1,0],[0.5,1,0],[0.25,1,0],[0,0.75,0],[0,0.5,0],[0,0.25,0]];" parent="Wz8Y_3u28o4Ft7u0Kyv7-46" vertex="1">
            <mxGeometry x="29" y="18" width="126" height="82" as="geometry" />
          </mxCell>
        </object>
        <object placeholders="1" c4Name="Project Type Document Template" c4Type="Documents" c4Technology="" c4Description="" label="&lt;font style=&quot;font-size: 16px&quot;&gt;&lt;b&gt;%c4Name%&lt;/b&gt;&lt;/font&gt;&lt;div&gt;%c4Type%&lt;/div&gt;&lt;br&gt;&lt;div&gt;&lt;font style=&quot;font-size: 11px&quot;&gt;%c4Description%&lt;/font&gt;&lt;/div&gt;" id="SOVgbN5s66ZuyTbFvyzH-43">
          <mxCell style="rounded=1;whiteSpace=wrap;html=1;labelBackgroundColor=none;fillColor=#63BEF2;fontColor=#ffffff;align=center;arcSize=6;strokeColor=#2086C9;metaEdit=1;resizable=1;points=[[0.25,0,0],[0.5,0,0],[0.75,0,0],[1,0.25,0],[1,0.5,0],[1,0.75,0],[0.75,1,0],[0.5,1,0],[0.25,1,0],[0,0.75,0],[0,0.5,0],[0,0.25,0]];" parent="Wz8Y_3u28o4Ft7u0Kyv7-46" vertex="1">
            <mxGeometry x="185" y="18" width="126" height="82" as="geometry" />
          </mxCell>
        </object>
        <object placeholders="1" c4Name="Parameter" c4Type="Documents" c4Technology="" c4Description="" label="&lt;font style=&quot;font-size: 16px&quot;&gt;&lt;b&gt;%c4Name%&lt;/b&gt;&lt;/font&gt;&lt;div&gt;%c4Type%&lt;/div&gt;&lt;br&gt;&lt;div&gt;&lt;font style=&quot;font-size: 11px&quot;&gt;%c4Description%&lt;/font&gt;&lt;/div&gt;" id="SOVgbN5s66ZuyTbFvyzH-44">
          <mxCell style="rounded=1;whiteSpace=wrap;html=1;labelBackgroundColor=none;fillColor=#63BEF2;fontColor=#ffffff;align=center;arcSize=6;strokeColor=#2086C9;metaEdit=1;resizable=1;points=[[0.25,0,0],[0.5,0,0],[0.75,0,0],[1,0.25,0],[1,0.5,0],[1,0.75,0],[0.75,1,0],[0.5,1,0],[0.25,1,0],[0,0.75,0],[0,0.5,0],[0,0.25,0]];" parent="Wz8Y_3u28o4Ft7u0Kyv7-46" vertex="1">
            <mxGeometry x="340" y="18" width="126" height="82" as="geometry" />
          </mxCell>
        </object>
        <object placeholders="1" c4Type="Relationship" c4Technology="" c4Description="1:N" label="&lt;div style=&quot;text-align: left&quot;&gt;&lt;div style=&quot;text-align: center&quot;&gt;&lt;b&gt;%c4Description%&lt;/b&gt;&lt;/div&gt;&lt;/div&gt;" id="Wz8Y_3u28o4Ft7u0Kyv7-12">
          <mxCell style="endArrow=blockThin;html=1;fontSize=10;fontColor=#404040;strokeWidth=1;endFill=1;strokeColor=#d79b00;elbow=vertical;metaEdit=1;endSize=14;startSize=14;jumpStyle=arc;jumpSize=16;rounded=0;fillColor=#ffe6cc;exitX=0.5;exitY=1;exitDx=0;exitDy=0;exitPerimeter=0;entryX=0.5;entryY=1;entryDx=0;entryDy=0;entryPerimeter=0;edgeStyle=orthogonalEdgeStyle;curved=1;" parent="Wz8Y_3u28o4Ft7u0Kyv7-46" source="SOVgbN5s66ZuyTbFvyzH-8" target="SOVgbN5s66ZuyTbFvyzH-43" edge="1">
            <mxGeometry x="-0.1932" y="-19" width="240" relative="1" as="geometry">
              <mxPoint x="249" y="161" as="sourcePoint" />
              <mxPoint x="566" y="224" as="targetPoint" />
              <mxPoint x="-1" as="offset" />
              <Array as="points">
                <mxPoint x="92" y="142" />
                <mxPoint x="248" y="142" />
              </Array>
            </mxGeometry>
          </mxCell>
        </object>
        <object placeholders="1" c4Type="Relationship" c4Technology="" c4Description="1:N" label="&lt;div style=&quot;text-align: left&quot;&gt;&lt;div style=&quot;text-align: center&quot;&gt;&lt;b&gt;%c4Description%&lt;/b&gt;&lt;/div&gt;&lt;/div&gt;" id="Wz8Y_3u28o4Ft7u0Kyv7-59">
          <mxCell style="endArrow=blockThin;html=1;fontSize=10;fontColor=#404040;strokeWidth=1;endFill=1;strokeColor=#d79b00;elbow=vertical;metaEdit=1;endSize=14;startSize=14;jumpStyle=arc;jumpSize=16;rounded=0;fillColor=#ffe6cc;exitX=0.5;exitY=1;exitDx=0;exitDy=0;exitPerimeter=0;entryX=0.5;entryY=1;entryDx=0;entryDy=0;entryPerimeter=0;edgeStyle=orthogonalEdgeStyle;curved=1;" parent="Wz8Y_3u28o4Ft7u0Kyv7-46" source="SOVgbN5s66ZuyTbFvyzH-44" target="SOVgbN5s66ZuyTbFvyzH-43" edge="1">
            <mxGeometry x="-0.1932" y="-19" width="240" relative="1" as="geometry">
              <mxPoint x="500" y="143" as="sourcePoint" />
              <mxPoint x="656" y="143" as="targetPoint" />
              <mxPoint x="-1" as="offset" />
              <Array as="points">
                <mxPoint x="403" y="152" />
                <mxPoint x="248" y="152" />
              </Array>
            </mxGeometry>
          </mxCell>
        </object>
        <mxCell id="Wz8Y_3u28o4Ft7u0Kyv7-47" value="" style="group" parent="1" vertex="1" connectable="0">
          <mxGeometry x="333" y="-407" width="806" height="253" as="geometry" />
        </mxCell>
        <object placeholders="1" c4Name="Project Types" c4Type="Projects" c4Technology="" c4Description="" label="&lt;font style=&quot;font-size: 16px&quot;&gt;&lt;b&gt;%c4Name%&lt;/b&gt;&lt;/font&gt;&lt;div&gt;%c4Type%&lt;/div&gt;&lt;br&gt;&lt;div&gt;&lt;font style=&quot;font-size: 11px&quot;&gt;%c4Description%&lt;/font&gt;&lt;/div&gt;" id="SOVgbN5s66ZuyTbFvyzH-40">
          <mxCell style="rounded=1;whiteSpace=wrap;html=1;labelBackgroundColor=none;fillColor=#63BEF2;fontColor=#ffffff;align=center;arcSize=6;strokeColor=#2086C9;metaEdit=1;resizable=1;points=[[0.25,0,0],[0.5,0,0],[0.75,0,0],[1,0.25,0],[1,0.5,0],[1,0.75,0],[0.75,1,0],[0.5,1,0],[0.25,1,0],[0,0.75,0],[0,0.5,0],[0,0.25,0]];" parent="Wz8Y_3u28o4Ft7u0Kyv7-47" vertex="1">
            <mxGeometry x="24" y="28" width="126" height="82" as="geometry" />
          </mxCell>
        </object>
        <object placeholders="1" c4Name="Project" c4Type="Projects" c4Technology="" c4Description="" label="&lt;font style=&quot;font-size: 16px&quot;&gt;&lt;b&gt;%c4Name%&lt;/b&gt;&lt;/font&gt;&lt;div&gt;%c4Type%&lt;/div&gt;&lt;br&gt;&lt;div&gt;&lt;font style=&quot;font-size: 11px&quot;&gt;%c4Description%&lt;/font&gt;&lt;/div&gt;" id="SOVgbN5s66ZuyTbFvyzH-41">
          <mxCell style="rounded=1;whiteSpace=wrap;html=1;labelBackgroundColor=none;fillColor=#63BEF2;fontColor=#ffffff;align=center;arcSize=6;strokeColor=#2086C9;metaEdit=1;resizable=1;points=[[0.25,0,0],[0.5,0,0],[0.75,0,0],[1,0.25,0],[1,0.5,0],[1,0.75,0],[0.75,1,0],[0.5,1,0],[0.25,1,0],[0,0.75,0],[0,0.5,0],[0,0.25,0]];" parent="Wz8Y_3u28o4Ft7u0Kyv7-47" vertex="1">
            <mxGeometry x="244" y="28" width="126" height="82" as="geometry" />
          </mxCell>
        </object>
        <object placeholders="1" c4Name="Projects" c4Type="" c4Application="" label="&lt;font style=&quot;font-size: 16px&quot;&gt;&lt;b&gt;&lt;div style=&quot;text-align: left&quot;&gt;%c4Name%&lt;/div&gt;&lt;/b&gt;&lt;/font&gt;&lt;div style=&quot;text-align: left&quot;&gt;%c4Application%&lt;/div&gt;" id="SOVgbN5s66ZuyTbFvyzH-45">
          <mxCell style="rounded=1;fontSize=11;whiteSpace=wrap;html=1;dashed=1;arcSize=20;fillColor=none;strokeColor=#666666;fontColor=#333333;labelBackgroundColor=none;align=left;verticalAlign=bottom;labelBorderColor=none;spacingTop=0;spacing=10;dashPattern=8 4;metaEdit=1;rotatable=0;perimeter=rectanglePerimeter;noLabel=0;labelPadding=0;allowArrows=0;connectable=0;expand=0;recursiveResize=0;editable=1;pointerEvents=0;absoluteArcSize=1;points=[[0.25,0,0],[0.5,0,0],[0.75,0,0],[1,0.25,0],[1,0.5,0],[1,0.75,0],[0.75,1,0],[0.5,1,0],[0.25,1,0],[0,0.75,0],[0,0.5,0],[0,0.25,0]];" parent="Wz8Y_3u28o4Ft7u0Kyv7-47" vertex="1">
            <mxGeometry width="806" height="253" as="geometry" />
          </mxCell>
        </object>
        <object placeholders="1" c4Type="Relationship" c4Technology="" c4Description="1:N" label="&lt;div style=&quot;text-align: left&quot;&gt;&lt;div style=&quot;text-align: center&quot;&gt;&lt;b&gt;%c4Description%&lt;/b&gt;&lt;/div&gt;&lt;/div&gt;" id="Wz8Y_3u28o4Ft7u0Kyv7-10">
          <mxCell style="endArrow=blockThin;html=1;fontSize=10;fontColor=#404040;strokeWidth=1;endFill=1;strokeColor=#d79b00;elbow=vertical;metaEdit=1;endSize=14;startSize=14;jumpStyle=arc;jumpSize=16;rounded=0;fillColor=#ffe6cc;exitX=1;exitY=0.5;exitDx=0;exitDy=0;exitPerimeter=0;entryX=0;entryY=0.5;entryDx=0;entryDy=0;entryPerimeter=0;" parent="Wz8Y_3u28o4Ft7u0Kyv7-47" source="SOVgbN5s66ZuyTbFvyzH-40" target="SOVgbN5s66ZuyTbFvyzH-41" edge="1">
            <mxGeometry x="-0.1932" y="-19" width="240" relative="1" as="geometry">
              <mxPoint x="403" y="344.99999999999955" as="sourcePoint" />
              <mxPoint x="309" y="344.99999999999955" as="targetPoint" />
              <mxPoint x="-1" as="offset" />
            </mxGeometry>
          </mxCell>
        </object>
        <mxCell id="Wz8Y_3u28o4Ft7u0Kyv7-48" value="" style="group" parent="1" vertex="1" connectable="0">
          <mxGeometry x="1311" y="-31" width="806" height="328" as="geometry" />
        </mxCell>
        <object placeholders="1" c4Name="Tasks" c4Type="" c4Application="" label="&lt;font style=&quot;font-size: 16px&quot;&gt;&lt;b&gt;&lt;div style=&quot;text-align: left&quot;&gt;%c4Name%&lt;/div&gt;&lt;/b&gt;&lt;/font&gt;&lt;div style=&quot;text-align: left&quot;&gt;%c4Application%&lt;/div&gt;" id="Wz8Y_3u28o4Ft7u0Kyv7-49">
          <mxCell style="rounded=1;fontSize=11;whiteSpace=wrap;html=1;dashed=1;arcSize=20;fillColor=none;strokeColor=#666666;fontColor=#333333;labelBackgroundColor=none;align=left;verticalAlign=bottom;labelBorderColor=none;spacingTop=0;spacing=10;dashPattern=8 4;metaEdit=1;rotatable=0;perimeter=rectanglePerimeter;noLabel=0;labelPadding=0;allowArrows=0;connectable=0;expand=0;recursiveResize=0;editable=1;pointerEvents=0;absoluteArcSize=1;points=[[0.25,0,0],[0.5,0,0],[0.75,0,0],[1,0.25,0],[1,0.5,0],[1,0.75,0],[0.75,1,0],[0.5,1,0],[0.25,1,0],[0,0.75,0],[0,0.5,0],[0,0.25,0]];" parent="Wz8Y_3u28o4Ft7u0Kyv7-48" vertex="1">
            <mxGeometry width="806" height="328" as="geometry" />
          </mxCell>
        </object>
        <object placeholders="1" c4Name="Task" c4Type="Tasks" c4Technology="" c4Description="" label="&lt;font style=&quot;font-size: 16px&quot;&gt;&lt;b&gt;%c4Name%&lt;/b&gt;&lt;/font&gt;&lt;div&gt;%c4Type%&lt;/div&gt;&lt;br&gt;&lt;div&gt;&lt;font style=&quot;font-size: 11px&quot;&gt;%c4Description%&lt;/font&gt;&lt;/div&gt;" id="Wz8Y_3u28o4Ft7u0Kyv7-60">
          <mxCell style="rounded=1;whiteSpace=wrap;html=1;labelBackgroundColor=none;fillColor=#63BEF2;fontColor=#ffffff;align=center;arcSize=6;strokeColor=#2086C9;metaEdit=1;resizable=1;points=[[0.25,0,0],[0.5,0,0],[0.75,0,0],[1,0.25,0],[1,0.5,0],[1,0.75,0],[0.75,1,0],[0.5,1,0],[0.25,1,0],[0,0.75,0],[0,0.5,0],[0,0.25,0]];" parent="Wz8Y_3u28o4Ft7u0Kyv7-48" vertex="1">
            <mxGeometry x="34" y="34" width="126" height="82" as="geometry" />
          </mxCell>
        </object>
        <object placeholders="1" c4Type="Relationship" c4Technology="" c4Description="1:N" label="&lt;div style=&quot;text-align: left&quot;&gt;&lt;div style=&quot;text-align: center&quot;&gt;&lt;b&gt;%c4Description%&lt;/b&gt;&lt;/div&gt;&lt;/div&gt;" id="Wz8Y_3u28o4Ft7u0Kyv7-58">
          <mxCell style="endArrow=blockThin;html=1;fontSize=10;fontColor=#404040;strokeWidth=1;endFill=1;strokeColor=#d79b00;elbow=vertical;metaEdit=1;endSize=14;startSize=14;jumpStyle=arc;jumpSize=16;rounded=0;fillColor=#ffe6cc;exitX=1;exitY=0.5;exitDx=0;exitDy=0;exitPerimeter=0;entryX=0;entryY=0.5;entryDx=0;entryDy=0;entryPerimeter=0;" parent="1" source="SOVgbN5s66ZuyTbFvyzH-5" target="Wz8Y_3u28o4Ft7u0Kyv7-57" edge="1">
            <mxGeometry x="-0.1932" y="-19" width="240" relative="1" as="geometry">
              <mxPoint x="74" y="40" as="sourcePoint" />
              <mxPoint x="490" y="284" as="targetPoint" />
              <mxPoint x="-1" as="offset" />
            </mxGeometry>
          </mxCell>
        </object>
        <mxCell id="uQc15oTKW62EYD8CvNbi-1" value="" style="group" parent="1" vertex="1" connectable="0">
          <mxGeometry x="335" y="-133" width="490" height="210" as="geometry" />
        </mxCell>
        <object placeholders="1" c4Name="Common" c4Type="" c4Application="" label="&lt;font style=&quot;font-size: 16px&quot;&gt;&lt;b&gt;&lt;div style=&quot;text-align: left&quot;&gt;%c4Name%&lt;/div&gt;&lt;/b&gt;&lt;/font&gt;&lt;div style=&quot;text-align: left&quot;&gt;%c4Application%&lt;/div&gt;" id="04PihrGKLS0dyFyOP302-4">
          <mxCell style="rounded=1;fontSize=11;whiteSpace=wrap;html=1;dashed=1;arcSize=20;fillColor=none;strokeColor=#666666;fontColor=#333333;labelBackgroundColor=none;align=left;verticalAlign=bottom;labelBorderColor=none;spacingTop=0;spacing=10;dashPattern=8 4;metaEdit=1;rotatable=0;perimeter=rectanglePerimeter;noLabel=0;labelPadding=0;allowArrows=0;connectable=0;expand=0;recursiveResize=0;editable=1;pointerEvents=0;absoluteArcSize=1;points=[[0.25,0,0],[0.5,0,0],[0.75,0,0],[1,0.25,0],[1,0.5,0],[1,0.75,0],[0.75,1,0],[0.5,1,0],[0.25,1,0],[0,0.75,0],[0,0.5,0],[0,0.25,0]];" parent="uQc15oTKW62EYD8CvNbi-1" vertex="1">
            <mxGeometry width="490" height="210" as="geometry" />
          </mxCell>
        </object>
        <object placeholders="1" c4Name="Country" c4Type="Common" c4Technology="" c4Description="" label="&lt;font style=&quot;font-size: 16px&quot;&gt;&lt;b&gt;%c4Name%&lt;/b&gt;&lt;/font&gt;&lt;div&gt;%c4Type%&lt;/div&gt;&lt;br&gt;&lt;div&gt;&lt;font style=&quot;font-size: 11px&quot;&gt;%c4Description%&lt;/font&gt;&lt;/div&gt;" id="SOVgbN5s66ZuyTbFvyzH-13">
          <mxCell style="rounded=1;whiteSpace=wrap;html=1;labelBackgroundColor=none;fillColor=#63BEF2;fontColor=#ffffff;align=center;arcSize=6;strokeColor=#2086C9;metaEdit=1;resizable=1;points=[[0.25,0,0],[0.5,0,0],[0.75,0,0],[1,0.25,0],[1,0.5,0],[1,0.75,0],[0.75,1,0],[0.5,1,0],[0.25,1,0],[0,0.75,0],[0,0.5,0],[0,0.25,0]];" parent="uQc15oTKW62EYD8CvNbi-1" vertex="1">
            <mxGeometry x="13" y="9" width="126" height="82" as="geometry" />
          </mxCell>
        </object>
        <object placeholders="1" c4Name="Salutation" c4Type="Common" c4Technology="" c4Description="" label="&lt;font style=&quot;font-size: 16px&quot;&gt;&lt;b&gt;%c4Name%&lt;/b&gt;&lt;/font&gt;&lt;div&gt;%c4Type%&lt;/div&gt;&lt;br&gt;&lt;div&gt;&lt;font style=&quot;font-size: 11px&quot;&gt;%c4Description%&lt;/font&gt;&lt;/div&gt;" id="SOVgbN5s66ZuyTbFvyzH-14">
          <mxCell style="rounded=1;whiteSpace=wrap;html=1;labelBackgroundColor=none;fillColor=#63BEF2;fontColor=#ffffff;align=center;arcSize=6;strokeColor=#2086C9;metaEdit=1;resizable=1;points=[[0.25,0,0],[0.5,0,0],[0.75,0,0],[1,0.25,0],[1,0.5,0],[1,0.75,0],[0.75,1,0],[0.5,1,0],[0.25,1,0],[0,0.75,0],[0,0.5,0],[0,0.25,0]];" parent="uQc15oTKW62EYD8CvNbi-1" vertex="1">
            <mxGeometry x="294" y="9" width="126" height="82" as="geometry" />
          </mxCell>
        </object>
        <object placeholders="1" c4Name="Charge" c4Type="Common" c4Technology="" c4Description="" label="&lt;font style=&quot;font-size: 16px&quot;&gt;&lt;b&gt;%c4Name%&lt;/b&gt;&lt;/font&gt;&lt;div&gt;%c4Type%&lt;/div&gt;&lt;br&gt;&lt;div&gt;&lt;font style=&quot;font-size: 11px&quot;&gt;%c4Description%&lt;/font&gt;&lt;/div&gt;" id="SOVgbN5s66ZuyTbFvyzH-15">
          <mxCell style="rounded=1;whiteSpace=wrap;html=1;labelBackgroundColor=none;fillColor=#63BEF2;fontColor=#ffffff;align=center;arcSize=6;strokeColor=#2086C9;metaEdit=1;resizable=1;points=[[0.25,0,0],[0.5,0,0],[0.75,0,0],[1,0.25,0],[1,0.5,0],[1,0.75,0],[0.75,1,0],[0.5,1,0],[0.25,1,0],[0,0.75,0],[0,0.5,0],[0,0.25,0]];" parent="uQc15oTKW62EYD8CvNbi-1" vertex="1">
            <mxGeometry x="153" y="9" width="126" height="82" as="geometry" />
          </mxCell>
        </object>
        <object placeholders="1" c4Name="Legal Form" c4Type="Common" c4Technology="" c4Description="" label="&lt;font style=&quot;font-size: 16px&quot;&gt;&lt;b&gt;%c4Name%&lt;/b&gt;&lt;/font&gt;&lt;div&gt;%c4Type%&lt;/div&gt;&lt;br&gt;&lt;div&gt;&lt;font style=&quot;font-size: 11px&quot;&gt;%c4Description%&lt;/font&gt;&lt;/div&gt;" id="SOVgbN5s66ZuyTbFvyzH-16">
          <mxCell style="rounded=1;whiteSpace=wrap;html=1;labelBackgroundColor=none;fillColor=#63BEF2;fontColor=#ffffff;align=center;arcSize=6;strokeColor=#2086C9;metaEdit=1;resizable=1;points=[[0.25,0,0],[0.5,0,0],[0.75,0,0],[1,0.25,0],[1,0.5,0],[1,0.75,0],[0.75,1,0],[0.5,1,0],[0.25,1,0],[0,0.75,0],[0,0.5,0],[0,0.25,0]];" parent="uQc15oTKW62EYD8CvNbi-1" vertex="1">
            <mxGeometry x="13" y="96" width="126" height="82" as="geometry" />
          </mxCell>
        </object>
        <object placeholders="1" c4Name="Languages" c4Type="Common" c4Technology="" c4Description="" label="&lt;font style=&quot;font-size: 16px&quot;&gt;&lt;b&gt;%c4Name%&lt;/b&gt;&lt;/font&gt;&lt;div&gt;%c4Type%&lt;/div&gt;&lt;br&gt;&lt;div&gt;&lt;font style=&quot;font-size: 11px&quot;&gt;%c4Description%&lt;/font&gt;&lt;/div&gt;" id="SOVgbN5s66ZuyTbFvyzH-17">
          <mxCell style="rounded=1;whiteSpace=wrap;html=1;labelBackgroundColor=none;fillColor=#63BEF2;fontColor=#ffffff;align=center;arcSize=6;strokeColor=#2086C9;metaEdit=1;resizable=1;points=[[0.25,0,0],[0.5,0,0],[0.75,0,0],[1,0.25,0],[1,0.5,0],[1,0.75,0],[0.75,1,0],[0.5,1,0],[0.25,1,0],[0,0.75,0],[0,0.5,0],[0,0.25,0]];" parent="uQc15oTKW62EYD8CvNbi-1" vertex="1">
            <mxGeometry x="153" y="96" width="126" height="82" as="geometry" />
          </mxCell>
        </object>
      </root>
    </mxGraphModel>
  </diagram>
  <diagram name="EMT 2.0 - Containers - Plan" id="qtxd_dYYLrPPIryqCPId">
    <mxGraphModel dx="2441" dy="1403" grid="0" gridSize="10" guides="1" tooltips="1" connect="1" arrows="1" fold="1" page="0" pageScale="1" pageWidth="850" pageHeight="1100" math="0" shadow="0">
      <root>
        <mxCell id="yKnpGMz3PJO0_-KO3qRB-0" />
        <mxCell id="yKnpGMz3PJO0_-KO3qRB-1" parent="yKnpGMz3PJO0_-KO3qRB-0" />
        <mxCell id="yKnpGMz3PJO0_-KO3qRB-3" value="Service" style="rounded=0;whiteSpace=wrap;html=1;verticalAlign=top;fillColor=#dae8fc;strokeColor=#6c8ebf;fontSize=10;" parent="yKnpGMz3PJO0_-KO3qRB-1" vertex="1">
          <mxGeometry x="-623" y="797.7600000000001" width="120" height="60" as="geometry" />
        </mxCell>
        <mxCell id="yKnpGMz3PJO0_-KO3qRB-4" value="Entities" style="rounded=0;whiteSpace=wrap;html=1;verticalAlign=middle;fontSize=10;strokeColor=none;" parent="yKnpGMz3PJO0_-KO3qRB-1" vertex="1">
          <mxGeometry x="-613" y="817.7600000000001" width="100" height="20" as="geometry" />
        </mxCell>
        <mxCell id="yKnpGMz3PJO0_-KO3qRB-5" value="&lt;font style=&quot;font-size: 10px;&quot;&gt;Module&lt;/font&gt;" style="rounded=0;whiteSpace=wrap;html=1;fillColor=#fff2cc;strokeColor=#d6b656;fontSize=10;" parent="yKnpGMz3PJO0_-KO3qRB-1" vertex="1">
          <mxGeometry x="-613" y="847.7600000000001" width="100" height="20" as="geometry" />
        </mxCell>
        <mxCell id="yKnpGMz3PJO0_-KO3qRB-6" value="GATEWAY" style="rounded=0;whiteSpace=wrap;html=1;verticalAlign=middle;fillColor=#f5f5f5;strokeColor=#666666;fontColor=#333333;" parent="yKnpGMz3PJO0_-KO3qRB-1" vertex="1">
          <mxGeometry x="-417" y="285" width="620" height="50" as="geometry" />
        </mxCell>
        <mxCell id="yKnpGMz3PJO0_-KO3qRB-7" value="COMPONENT" style="rounded=0;whiteSpace=wrap;html=1;verticalAlign=middle;fillColor=#f5f5f5;strokeColor=#666666;fontSize=10;fontColor=#333333;" parent="yKnpGMz3PJO0_-KO3qRB-1" vertex="1">
          <mxGeometry x="-623" y="767.7600000000001" width="120" height="20" as="geometry" />
        </mxCell>
        <mxCell id="yKnpGMz3PJO0_-KO3qRB-8" value="Worker / Job" style="rounded=0;whiteSpace=wrap;html=1;verticalAlign=top;fillColor=#d5e8d4;strokeColor=#82b366;fontSize=10;" parent="yKnpGMz3PJO0_-KO3qRB-1" vertex="1">
          <mxGeometry x="-622" y="877.7600000000001" width="120" height="60" as="geometry" />
        </mxCell>
        <mxCell id="yKnpGMz3PJO0_-KO3qRB-9" value="Operations" style="rounded=0;whiteSpace=wrap;html=1;verticalAlign=middle;fontSize=10;strokeColor=none;fontStyle=2" parent="yKnpGMz3PJO0_-KO3qRB-1" vertex="1">
          <mxGeometry x="-612" y="897.7600000000001" width="100" height="20" as="geometry" />
        </mxCell>
        <mxCell id="yKnpGMz3PJO0_-KO3qRB-10" value="&lt;font style=&quot;font-size: 10px;&quot;&gt;Module&lt;/font&gt;" style="rounded=0;whiteSpace=wrap;html=1;fillColor=#fff2cc;strokeColor=#d6b656;fontSize=10;" parent="yKnpGMz3PJO0_-KO3qRB-1" vertex="1">
          <mxGeometry x="-612" y="927.7600000000001" width="100" height="20" as="geometry" />
        </mxCell>
        <mxCell id="yKnpGMz3PJO0_-KO3qRB-11" value="Connector" style="rounded=0;whiteSpace=wrap;html=1;verticalAlign=top;fillColor=#e1d5e7;strokeColor=#9673a6;fontSize=10;" parent="yKnpGMz3PJO0_-KO3qRB-1" vertex="1">
          <mxGeometry x="-623" y="958.7600000000001" width="120" height="60" as="geometry" />
        </mxCell>
        <mxCell id="yKnpGMz3PJO0_-KO3qRB-12" value="Input / Output&amp;nbsp;" style="rounded=0;whiteSpace=wrap;html=1;verticalAlign=middle;fontSize=10;strokeColor=none;fontStyle=2" parent="yKnpGMz3PJO0_-KO3qRB-1" vertex="1">
          <mxGeometry x="-613" y="978.76" width="100" height="20" as="geometry" />
        </mxCell>
        <mxCell id="yKnpGMz3PJO0_-KO3qRB-13" value="&lt;font style=&quot;font-size: 10px;&quot;&gt;Module&lt;/font&gt;" style="rounded=0;whiteSpace=wrap;html=1;fillColor=#fff2cc;strokeColor=#d6b656;fontSize=10;" parent="yKnpGMz3PJO0_-KO3qRB-1" vertex="1">
          <mxGeometry x="-613" y="1008.76" width="100" height="20" as="geometry" />
        </mxCell>
        <mxCell id="yKnpGMz3PJO0_-KO3qRB-14" value="External System" style="rounded=0;whiteSpace=wrap;html=1;verticalAlign=middle;fillColor=#ffe6cc;strokeColor=#d79b00;fontSize=10;" parent="yKnpGMz3PJO0_-KO3qRB-1" vertex="1">
          <mxGeometry x="-623" y="1038.76" width="120" height="20" as="geometry" />
        </mxCell>
        <mxCell id="yKnpGMz3PJO0_-KO3qRB-15" value="CIAM" style="rounded=0;whiteSpace=wrap;html=1;verticalAlign=middle;fillColor=#f5f5f5;strokeColor=#666666;fontColor=#333333;" parent="yKnpGMz3PJO0_-KO3qRB-1" vertex="1">
          <mxGeometry x="-600" y="190" width="120" height="40" as="geometry" />
        </mxCell>
        <object placeholders="1" c4Type="Relationship" c4Technology="HTTPS" c4Description="Validate user" label="&lt;div style=&quot;text-align: left&quot;&gt;&lt;div style=&quot;text-align: center&quot;&gt;&lt;b&gt;%c4Description%&lt;/b&gt;&lt;/div&gt;&lt;div style=&quot;text-align: center&quot;&gt;[%c4Technology%]&lt;/div&gt;&lt;/div&gt;" id="yKnpGMz3PJO0_-KO3qRB-16">
          <mxCell style="endArrow=blockThin;html=1;fontSize=10;fontColor=#404040;strokeWidth=1;endFill=1;strokeColor=#d79b00;elbow=vertical;metaEdit=1;endSize=14;startSize=14;jumpStyle=arc;jumpSize=16;rounded=0;edgeStyle=orthogonalEdgeStyle;exitX=0;exitY=0.5;exitDx=0;exitDy=0;entryX=0.5;entryY=1;entryDx=0;entryDy=0;curved=1;fillColor=#ffe6cc;" parent="yKnpGMz3PJO0_-KO3qRB-1" source="yKnpGMz3PJO0_-KO3qRB-51" target="yKnpGMz3PJO0_-KO3qRB-15" edge="1">
            <mxGeometry x="0.3978" y="-10" width="240" relative="1" as="geometry">
              <mxPoint x="-570" y="529" as="sourcePoint" />
              <mxPoint x="-400" y="400" as="targetPoint" />
              <mxPoint as="offset" />
              <Array as="points">
                <mxPoint x="-540" y="598" />
              </Array>
            </mxGeometry>
          </mxCell>
        </object>
        <mxCell id="yKnpGMz3PJO0_-KO3qRB-17" value="&lt;b&gt;EMT PORTAL&lt;/b&gt;&lt;br&gt;&lt;font style=&quot;font-size: 10px;&quot;&gt;&lt;i&gt;User web interface&lt;/i&gt;&lt;/font&gt;" style="rounded=1;whiteSpace=wrap;html=1;fillColor=none;dashed=1;arcSize=5;verticalAlign=top;align=left;spacingLeft=5;spacingTop=-2;" parent="yKnpGMz3PJO0_-KO3qRB-1" vertex="1">
          <mxGeometry x="-410" y="-20" width="690" height="139" as="geometry" />
        </mxCell>
        <mxCell id="yKnpGMz3PJO0_-KO3qRB-18" value="Microfrontend" style="rounded=0;whiteSpace=wrap;html=1;verticalAlign=top;fillColor=#f8cecc;strokeColor=#b85450;fontSize=10;" parent="yKnpGMz3PJO0_-KO3qRB-1" vertex="1">
          <mxGeometry x="-623" y="690.63" width="120" height="60" as="geometry" />
        </mxCell>
        <mxCell id="yKnpGMz3PJO0_-KO3qRB-19" value="&lt;i&gt;Feature&lt;/i&gt;" style="rounded=0;whiteSpace=wrap;html=1;verticalAlign=middle;fontSize=10;strokeColor=none;" parent="yKnpGMz3PJO0_-KO3qRB-1" vertex="1">
          <mxGeometry x="-613" y="710.63" width="100" height="20" as="geometry" />
        </mxCell>
        <mxCell id="yKnpGMz3PJO0_-KO3qRB-20" value="&lt;font style=&quot;font-size: 10px;&quot;&gt;Module&lt;/font&gt;" style="rounded=0;whiteSpace=wrap;html=1;fillColor=#fff2cc;strokeColor=#d6b656;fontSize=10;" parent="yKnpGMz3PJO0_-KO3qRB-1" vertex="1">
          <mxGeometry x="-613" y="740.63" width="100" height="20" as="geometry" />
        </mxCell>
        <object placeholders="1" c4Type="Relationship" c4Technology="HTTPS" c4Description="Authenticate user" label="&lt;div style=&quot;text-align: left&quot;&gt;&lt;div style=&quot;text-align: center&quot;&gt;&lt;b&gt;%c4Description%&lt;/b&gt;&lt;/div&gt;&lt;div style=&quot;text-align: center&quot;&gt;[%c4Technology%]&lt;/div&gt;&lt;/div&gt;" id="yKnpGMz3PJO0_-KO3qRB-21">
          <mxCell style="endArrow=blockThin;html=1;fontSize=10;fontColor=#404040;strokeWidth=1;endFill=1;strokeColor=#d79b00;elbow=vertical;metaEdit=1;endSize=14;startSize=14;jumpStyle=arc;jumpSize=16;rounded=0;edgeStyle=orthogonalEdgeStyle;exitX=-0.001;exitY=0.455;exitDx=0;exitDy=0;entryX=0.5;entryY=0;entryDx=0;entryDy=0;curved=1;fillColor=#ffe6cc;exitPerimeter=0;" parent="yKnpGMz3PJO0_-KO3qRB-1" source="yKnpGMz3PJO0_-KO3qRB-17" target="yKnpGMz3PJO0_-KO3qRB-15" edge="1">
            <mxGeometry x="-0.203" y="30" width="240" relative="1" as="geometry">
              <mxPoint x="-380" y="513" as="sourcePoint" />
              <mxPoint x="-570" y="350" as="targetPoint" />
              <mxPoint as="offset" />
            </mxGeometry>
          </mxCell>
        </object>
        <object placeholders="1" c4Type="Relationship" c4Technology="HTTPS" c4Description="Organizations requests&#xa;Clients Data requests" label="&lt;div style=&quot;text-align: left&quot;&gt;&lt;div style=&quot;text-align: center&quot;&gt;&lt;b&gt;%c4Description%&lt;/b&gt;&lt;/div&gt;&lt;div style=&quot;text-align: center&quot;&gt;[%c4Technology%]&lt;/div&gt;&lt;/div&gt;" id="yKnpGMz3PJO0_-KO3qRB-22">
          <mxCell style="endArrow=blockThin;html=1;fontSize=10;fontColor=#404040;strokeWidth=1;endFill=1;strokeColor=#82b366;elbow=vertical;metaEdit=1;endSize=14;startSize=14;jumpStyle=arc;jumpSize=16;rounded=0;exitX=0.25;exitY=1;exitDx=0;exitDy=0;entryX=0.25;entryY=0;entryDx=0;entryDy=0;edgeStyle=orthogonalEdgeStyle;curved=1;fillColor=#d5e8d4;" parent="yKnpGMz3PJO0_-KO3qRB-1" source="yKnpGMz3PJO0_-KO3qRB-6" target="yKnpGMz3PJO0_-KO3qRB-34" edge="1">
            <mxGeometry x="-0.1293" y="81" width="240" relative="1" as="geometry">
              <mxPoint x="286" y="478.63" as="sourcePoint" />
              <mxPoint x="6" y="528.63" as="targetPoint" />
              <mxPoint as="offset" />
            </mxGeometry>
          </mxCell>
        </object>
        <object placeholders="1" c4Type="Relationship" c4Technology="HTTPS/SFTP" c4Description="External request" label="&lt;div style=&quot;text-align: left&quot;&gt;&lt;div style=&quot;text-align: center&quot;&gt;&lt;b&gt;%c4Description%&lt;/b&gt;&lt;/div&gt;&lt;div style=&quot;text-align: center&quot;&gt;[%c4Technology%]&lt;/div&gt;&lt;/div&gt;" id="yKnpGMz3PJO0_-KO3qRB-23">
          <mxCell style="endArrow=blockThin;html=1;fontSize=10;fontColor=#404040;strokeWidth=1;endFill=1;strokeColor=#d79b00;elbow=vertical;metaEdit=1;endSize=14;startSize=14;jumpStyle=arc;jumpSize=16;rounded=0;exitX=0.5;exitY=0;exitDx=0;exitDy=0;fillColor=#ffe6cc;" parent="yKnpGMz3PJO0_-KO3qRB-1" edge="1">
            <mxGeometry x="-0.4506" width="240" relative="1" as="geometry">
              <mxPoint x="-606.5" y="1078.26" as="sourcePoint" />
              <mxPoint x="-503" y="1079.26" as="targetPoint" />
              <mxPoint as="offset" />
            </mxGeometry>
          </mxCell>
        </object>
        <object placeholders="1" c4Type="Relationship" c4Technology="HTTPS" c4Description="Internal request" label="&lt;div style=&quot;text-align: left&quot;&gt;&lt;div style=&quot;text-align: center&quot;&gt;&lt;b&gt;%c4Description%&lt;/b&gt;&lt;/div&gt;&lt;div style=&quot;text-align: center&quot;&gt;[%c4Technology%]&lt;/div&gt;&lt;/div&gt;" id="yKnpGMz3PJO0_-KO3qRB-24">
          <mxCell style="endArrow=blockThin;html=1;fontSize=10;fontColor=#404040;strokeWidth=1;endFill=1;strokeColor=#82b366;elbow=vertical;metaEdit=1;endSize=14;startSize=14;jumpStyle=arc;jumpSize=16;rounded=0;exitX=0.5;exitY=0;exitDx=0;exitDy=0;fillColor=#d5e8d4;" parent="yKnpGMz3PJO0_-KO3qRB-1" edge="1">
            <mxGeometry x="-0.4506" width="240" relative="1" as="geometry">
              <mxPoint x="-606.5" y="1108.26" as="sourcePoint" />
              <mxPoint x="-503" y="1109.26" as="targetPoint" />
              <mxPoint as="offset" />
            </mxGeometry>
          </mxCell>
        </object>
        <object placeholders="1" c4Type="Relationship" c4Technology="AMQP" c4Description="Event" label="&lt;div style=&quot;text-align: left&quot;&gt;&lt;div style=&quot;text-align: center&quot;&gt;&lt;b&gt;%c4Description%&lt;/b&gt;&lt;/div&gt;&lt;div style=&quot;text-align: center&quot;&gt;[%c4Technology%]&lt;/div&gt;&lt;/div&gt;" id="yKnpGMz3PJO0_-KO3qRB-25">
          <mxCell style="endArrow=blockThin;html=1;fontSize=10;fontColor=#404040;strokeWidth=1;endFill=1;strokeColor=#6c8ebf;elbow=vertical;metaEdit=1;endSize=14;startSize=14;jumpStyle=arc;jumpSize=16;rounded=0;exitX=0.5;exitY=0;exitDx=0;exitDy=0;fillColor=#dae8fc;" parent="yKnpGMz3PJO0_-KO3qRB-1" edge="1">
            <mxGeometry x="-0.4506" width="240" relative="1" as="geometry">
              <mxPoint x="-606.5" y="1138.2600000000004" as="sourcePoint" />
              <mxPoint x="-503" y="1139.2600000000004" as="targetPoint" />
              <mxPoint as="offset" />
            </mxGeometry>
          </mxCell>
        </object>
        <object placeholders="1" c4Type="Relationship" c4Technology="AMQP" c4Description="Internal comm" label="&lt;div style=&quot;text-align: left&quot;&gt;&lt;div style=&quot;text-align: center&quot;&gt;&lt;b&gt;%c4Description%&lt;/b&gt;&lt;/div&gt;&lt;div style=&quot;text-align: center&quot;&gt;[%c4Technology%]&lt;/div&gt;&lt;/div&gt;" id="yKnpGMz3PJO0_-KO3qRB-26">
          <mxCell style="endArrow=blockThin;html=1;fontSize=10;fontColor=#404040;strokeWidth=1;endFill=1;strokeColor=#b85450;elbow=vertical;metaEdit=1;endSize=14;startSize=14;jumpStyle=arc;jumpSize=16;rounded=0;exitX=0.5;exitY=0;exitDx=0;exitDy=0;fillColor=#f8cecc;" parent="yKnpGMz3PJO0_-KO3qRB-1" edge="1">
            <mxGeometry x="-0.4506" width="240" relative="1" as="geometry">
              <mxPoint x="-606.5" y="1168.2600000000004" as="sourcePoint" />
              <mxPoint x="-503" y="1169.2600000000004" as="targetPoint" />
              <mxPoint as="offset" />
            </mxGeometry>
          </mxCell>
        </object>
        <object placeholders="1" c4Name="[Containers] EMT Containers" c4Type="ContainerDiagramTitle" c4Description="Container description" label="&lt;font style=&quot;font-size: 16px&quot;&gt;&lt;b&gt;&lt;div style=&quot;text-align: left&quot;&gt;%c4Name%&lt;/div&gt;&lt;/b&gt;&lt;/font&gt;&lt;div style=&quot;text-align: left&quot;&gt;%c4Description%&lt;/div&gt;" id="yKnpGMz3PJO0_-KO3qRB-28">
          <mxCell style="text;html=1;strokeColor=none;fillColor=none;align=left;verticalAlign=top;whiteSpace=wrap;rounded=0;metaEdit=1;allowArrows=0;resizable=1;rotatable=0;connectable=0;recursiveResize=0;expand=0;pointerEvents=0;points=[[0.25,0,0],[0.5,0,0],[0.75,0,0],[1,0.25,0],[1,0.5,0],[1,0.75,0],[0.75,1,0],[0.5,1,0],[0.25,1,0],[0,0.75,0],[0,0.5,0],[0,0.25,0]];" parent="yKnpGMz3PJO0_-KO3qRB-1" vertex="1">
            <mxGeometry x="-640" y="-79.13" width="310" height="40" as="geometry" />
          </mxCell>
        </object>
        <mxCell id="yKnpGMz3PJO0_-KO3qRB-29" value="" style="group" parent="yKnpGMz3PJO0_-KO3qRB-1" vertex="1" connectable="0">
          <mxGeometry x="-396" y="24" width="658" height="70" as="geometry" />
        </mxCell>
        <mxCell id="yKnpGMz3PJO0_-KO3qRB-30" value="Portal" style="rounded=0;whiteSpace=wrap;html=1;verticalAlign=top;fillColor=#f8cecc;strokeColor=#b85450;fontSize=10;" parent="yKnpGMz3PJO0_-KO3qRB-29" vertex="1">
          <mxGeometry width="658" height="60" as="geometry" />
        </mxCell>
        <mxCell id="yKnpGMz3PJO0_-KO3qRB-31" value="&lt;i&gt;Entity, Administration,....&lt;/i&gt;" style="rounded=0;whiteSpace=wrap;html=1;verticalAlign=middle;fontSize=10;strokeColor=none;" parent="yKnpGMz3PJO0_-KO3qRB-29" vertex="1">
          <mxGeometry x="20.588879501861765" y="20" width="616.8222409962765" height="20" as="geometry" />
        </mxCell>
        <mxCell id="yKnpGMz3PJO0_-KO3qRB-32" value="&lt;font style=&quot;font-size: 10px;&quot;&gt;User&lt;/font&gt;" style="rounded=0;whiteSpace=wrap;html=1;fillColor=#fff2cc;strokeColor=#d6b656;fontSize=10;" parent="yKnpGMz3PJO0_-KO3qRB-29" vertex="1">
          <mxGeometry x="20.588879501861765" y="50" width="616.8222409962765" height="20" as="geometry" />
        </mxCell>
        <mxCell id="yKnpGMz3PJO0_-KO3qRB-33" value="" style="group" parent="yKnpGMz3PJO0_-KO3qRB-1" vertex="1" connectable="0">
          <mxGeometry x="-459" y="460.63" width="785" height="733" as="geometry" />
        </mxCell>
        <mxCell id="yKnpGMz3PJO0_-KO3qRB-34" value="&lt;b&gt;CONTENT INTERACTION&lt;/b&gt;&lt;br&gt;&lt;font style=&quot;font-size: 10px;&quot;&gt;&lt;i&gt;Regular user services&lt;/i&gt;&lt;/font&gt;" style="rounded=1;whiteSpace=wrap;html=1;fillColor=none;dashed=1;arcSize=4;verticalAlign=top;align=left;spacingLeft=5;spacingTop=-2;" parent="yKnpGMz3PJO0_-KO3qRB-33" vertex="1">
          <mxGeometry width="785" height="733" as="geometry" />
        </mxCell>
        <mxCell id="yKnpGMz3PJO0_-KO3qRB-35" value="" style="group" parent="yKnpGMz3PJO0_-KO3qRB-33" vertex="1" connectable="0">
          <mxGeometry x="567.0041452772948" y="37.37" width="186.59031257456454" height="241" as="geometry" />
        </mxCell>
        <mxCell id="yKnpGMz3PJO0_-KO3qRB-36" value="Financial API" style="rounded=0;whiteSpace=wrap;html=1;verticalAlign=top;fillColor=#dae8fc;strokeColor=#6c8ebf;" parent="yKnpGMz3PJO0_-KO3qRB-35" vertex="1">
          <mxGeometry width="186.59031257456454" height="191.30927835051546" as="geometry" />
        </mxCell>
        <mxCell id="yKnpGMz3PJO0_-KO3qRB-37" value="&lt;div&gt;&lt;div&gt;Financial&lt;/div&gt;&lt;/div&gt;&lt;div&gt;FiscalYear&lt;/div&gt;&lt;div&gt;ShareCapital&lt;/div&gt;&lt;div&gt;ShareHolder&lt;/div&gt;" style="rounded=0;whiteSpace=wrap;html=1;verticalAlign=middle;fontSize=10;strokeColor=none;" parent="yKnpGMz3PJO0_-KO3qRB-35" vertex="1">
          <mxGeometry x="14.353100967274193" y="57.1443298969072" width="157.88411064001613" height="91.92783505154638" as="geometry" />
        </mxCell>
        <mxCell id="yKnpGMz3PJO0_-KO3qRB-38" value="&lt;font style=&quot;font-size: 10px;&quot;&gt;Financial&lt;/font&gt;" style="rounded=0;whiteSpace=wrap;html=1;fillColor=#fff2cc;strokeColor=#d6b656;" parent="yKnpGMz3PJO0_-KO3qRB-35" vertex="1">
          <mxGeometry x="14.353100967274193" y="166.46391752577316" width="157.88411064001613" height="74.53608247422679" as="geometry" />
        </mxCell>
        <mxCell id="yKnpGMz3PJO0_-KO3qRB-42" value="" style="group" parent="yKnpGMz3PJO0_-KO3qRB-33" vertex="1" connectable="0">
          <mxGeometry x="293.33298224085627" y="38.37" width="186.59031257456454" height="239" as="geometry" />
        </mxCell>
        <mxCell id="yKnpGMz3PJO0_-KO3qRB-43" value="Client API" style="rounded=0;whiteSpace=wrap;html=1;verticalAlign=top;fillColor=#dae8fc;strokeColor=#6c8ebf;" parent="yKnpGMz3PJO0_-KO3qRB-42" vertex="1">
          <mxGeometry width="186.59031257456454" height="189.72164948453607" as="geometry" />
        </mxCell>
        <mxCell id="yKnpGMz3PJO0_-KO3qRB-44" value="&lt;div&gt;&lt;div&gt;Client&lt;/div&gt;&lt;/div&gt;&lt;div&gt;LegalEntity&lt;/div&gt;&lt;div&gt;Signature&lt;/div&gt;&lt;div&gt;Diagrams&lt;/div&gt;&lt;div&gt;CompanyBoard&lt;/div&gt;&lt;div&gt;PersonParticular&lt;/div&gt;" style="rounded=0;whiteSpace=wrap;html=1;verticalAlign=middle;fontSize=10;strokeColor=none;" parent="yKnpGMz3PJO0_-KO3qRB-42" vertex="1">
          <mxGeometry x="14.353100967274193" y="56.67010309278349" width="157.88411064001613" height="91.16494845360825" as="geometry" />
        </mxCell>
        <mxCell id="yKnpGMz3PJO0_-KO3qRB-45" value="&lt;span style=&quot;font-size: 10px;&quot;&gt;Client&lt;/span&gt;&lt;div&gt;&lt;span style=&quot;font-size: 10px;&quot;&gt;Data&lt;/span&gt;&lt;/div&gt;" style="rounded=0;whiteSpace=wrap;html=1;fillColor=#fff2cc;strokeColor=#d6b656;" parent="yKnpGMz3PJO0_-KO3qRB-42" vertex="1">
          <mxGeometry x="14.353100967274193" y="165.0824742268041" width="157.88411064001613" height="73.91752577319586" as="geometry" />
        </mxCell>
        <mxCell id="yKnpGMz3PJO0_-KO3qRB-46" value="" style="group" parent="yKnpGMz3PJO0_-KO3qRB-33" vertex="1" connectable="0">
          <mxGeometry x="284.003466612128" y="323.37" width="186.59031257456454" height="213" as="geometry" />
        </mxCell>
        <mxCell id="yKnpGMz3PJO0_-KO3qRB-47" value="Comunication API" style="rounded=0;whiteSpace=wrap;html=1;verticalAlign=top;fillColor=#dae8fc;strokeColor=#6c8ebf;" parent="yKnpGMz3PJO0_-KO3qRB-46" vertex="1">
          <mxGeometry width="186.59031257456454" height="169.0824742268041" as="geometry" />
        </mxCell>
        <mxCell id="yKnpGMz3PJO0_-KO3qRB-48" value="&lt;div&gt;&lt;div&gt;Alert&lt;/div&gt;&lt;/div&gt;&lt;div&gt;Notification&lt;/div&gt;" style="rounded=0;whiteSpace=wrap;html=1;verticalAlign=middle;fontSize=10;strokeColor=none;" parent="yKnpGMz3PJO0_-KO3qRB-46" vertex="1">
          <mxGeometry x="14.353100967274193" y="50.505154639175245" width="157.88411064001613" height="81.24742268041237" as="geometry" />
        </mxCell>
        <mxCell id="yKnpGMz3PJO0_-KO3qRB-49" value="&lt;font style=&quot;font-size: 10px;&quot;&gt;Notification&lt;/font&gt;" style="rounded=0;whiteSpace=wrap;html=1;fillColor=#fff2cc;strokeColor=#d6b656;" parent="yKnpGMz3PJO0_-KO3qRB-46" vertex="1">
          <mxGeometry x="14.353100967274193" y="147.12371134020617" width="157.88411064001613" height="65.8762886597938" as="geometry" />
        </mxCell>
        <mxCell id="yKnpGMz3PJO0_-KO3qRB-50" value="" style="group" parent="yKnpGMz3PJO0_-KO3qRB-33" vertex="1" connectable="0">
          <mxGeometry x="19.991819204417627" y="41" width="186.59031257456454" height="242" as="geometry" />
        </mxCell>
        <mxCell id="yKnpGMz3PJO0_-KO3qRB-51" value="Management API" style="rounded=0;whiteSpace=wrap;html=1;verticalAlign=top;fillColor=#dae8fc;strokeColor=#6c8ebf;" parent="yKnpGMz3PJO0_-KO3qRB-50" vertex="1">
          <mxGeometry width="186.59031257456454" height="192.10309278350513" as="geometry" />
        </mxCell>
        <mxCell id="yKnpGMz3PJO0_-KO3qRB-52" value="&lt;div&gt;&lt;div&gt;Organization&lt;/div&gt;&lt;/div&gt;&lt;div&gt;Users&lt;/div&gt;&lt;div&gt;Roles&lt;/div&gt;&lt;div&gt;UserRoles&lt;/div&gt;&lt;div&gt;CIAM&lt;/div&gt;&lt;div&gt;&lt;br&gt;&lt;/div&gt;" style="rounded=0;whiteSpace=wrap;html=1;verticalAlign=middle;fontSize=10;strokeColor=none;" parent="yKnpGMz3PJO0_-KO3qRB-50" vertex="1">
          <mxGeometry x="14.354126188771856" y="27" width="157.8820601970208" height="136" as="geometry" />
        </mxCell>
        <mxCell id="yKnpGMz3PJO0_-KO3qRB-53" value="&lt;font style=&quot;font-size: 10px;&quot;&gt;Organization&lt;/font&gt;&lt;div&gt;&lt;font style=&quot;font-size: 10px;&quot;&gt;App&lt;/font&gt;&lt;/div&gt;" style="rounded=0;whiteSpace=wrap;html=1;fillColor=#fff2cc;strokeColor=#d6b656;" parent="yKnpGMz3PJO0_-KO3qRB-50" vertex="1">
          <mxGeometry x="14.353100967274193" y="167.1546391752577" width="157.88411064001613" height="74.84536082474226" as="geometry" />
        </mxCell>
        <mxCell id="yKnpGMz3PJO0_-KO3qRB-54" value="" style="group" parent="yKnpGMz3PJO0_-KO3qRB-33" vertex="1" connectable="0">
          <mxGeometry x="569.67" y="301.74" width="186.59" height="211.26" as="geometry" />
        </mxCell>
        <mxCell id="yKnpGMz3PJO0_-KO3qRB-55" value="Projects API" style="rounded=0;whiteSpace=wrap;html=1;verticalAlign=top;fillColor=#dae8fc;strokeColor=#6c8ebf;" parent="yKnpGMz3PJO0_-KO3qRB-54" vertex="1">
          <mxGeometry width="186.59" height="167.70123711340202" as="geometry" />
        </mxCell>
        <mxCell id="yKnpGMz3PJO0_-KO3qRB-56" value="&lt;div&gt;&lt;div&gt;Project&lt;/div&gt;&lt;/div&gt;&lt;div&gt;ProjectType&lt;/div&gt;&lt;div&gt;DocumentTemplate&lt;/div&gt;&lt;div&gt;ProjectTypeDocumentTemplate&lt;/div&gt;&lt;div&gt;Parameter&lt;/div&gt;&lt;div&gt;Document&lt;/div&gt;&lt;div&gt;Task&lt;/div&gt;" style="rounded=0;whiteSpace=wrap;html=1;verticalAlign=middle;fontSize=10;strokeColor=none;" parent="yKnpGMz3PJO0_-KO3qRB-54" vertex="1">
          <mxGeometry x="14.35" y="32" width="157.88" height="98.68" as="geometry" />
        </mxCell>
        <mxCell id="yKnpGMz3PJO0_-KO3qRB-57" value="&lt;div&gt;&lt;font style=&quot;font-size: 10px;&quot;&gt;Project&lt;/font&gt;&lt;/div&gt;&lt;font style=&quot;font-size: 10px;&quot;&gt;Document&lt;/font&gt;&lt;div&gt;&lt;font style=&quot;font-size: 10px;&quot;&gt;Task&lt;/font&gt;&lt;/div&gt;" style="rounded=0;whiteSpace=wrap;html=1;fillColor=#fff2cc;strokeColor=#d6b656;" parent="yKnpGMz3PJO0_-KO3qRB-54" vertex="1">
          <mxGeometry x="14.353076923076921" y="145.92185567010304" width="157.88384615384615" height="65.33814432989688" as="geometry" />
        </mxCell>
        <mxCell id="bVwYGpygIFp2BT5nYFXu-0" value="" style="group" parent="yKnpGMz3PJO0_-KO3qRB-33" vertex="1" connectable="0">
          <mxGeometry x="31" y="315.05" width="186.59" height="211.95" as="geometry" />
        </mxCell>
        <mxCell id="bVwYGpygIFp2BT5nYFXu-1" value="Attributes API" style="rounded=0;whiteSpace=wrap;html=1;verticalAlign=top;fillColor=#dae8fc;strokeColor=#6c8ebf;" parent="bVwYGpygIFp2BT5nYFXu-0" vertex="1">
          <mxGeometry width="186.59" height="168.24896907216493" as="geometry" />
        </mxCell>
        <mxCell id="bVwYGpygIFp2BT5nYFXu-2" value="&lt;div&gt;&lt;span style=&quot;background-color: transparent; color: light-dark(rgb(0, 0, 0), rgb(255, 255, 255));&quot;&gt;Country&lt;/span&gt;&lt;/div&gt;&lt;div&gt;Charge&lt;/div&gt;&lt;div&gt;Salutation&lt;/div&gt;&lt;div&gt;LegalForm&lt;/div&gt;&lt;div&gt;Language&lt;/div&gt;" style="rounded=0;whiteSpace=wrap;html=1;verticalAlign=middle;fontSize=10;strokeColor=none;" parent="bVwYGpygIFp2BT5nYFXu-0" vertex="1">
          <mxGeometry x="14.35410214285714" y="23.647314049586775" width="157.8817957142857" height="119.11239669421488" as="geometry" />
        </mxCell>
        <mxCell id="bVwYGpygIFp2BT5nYFXu-3" value="&lt;br&gt;&lt;div&gt;&lt;font style=&quot;font-size: 10px;&quot;&gt;Common&lt;/font&gt;&lt;/div&gt;&lt;div&gt;&lt;br&gt;&lt;/div&gt;" style="rounded=0;whiteSpace=wrap;html=1;fillColor=#fff2cc;strokeColor=#d6b656;" parent="bVwYGpygIFp2BT5nYFXu-0" vertex="1">
          <mxGeometry x="14.353076923076921" y="146.3984536082474" width="157.88384615384615" height="65.55154639175257" as="geometry" />
        </mxCell>
        <object placeholders="1" c4Type="Relationship" c4Technology="HTTPS" c4Description="Organizations requests&#xa;Clients Data requests" label="&lt;div style=&quot;text-align: left&quot;&gt;&lt;div style=&quot;text-align: center&quot;&gt;&lt;b&gt;%c4Description%&lt;/b&gt;&lt;/div&gt;&lt;div style=&quot;text-align: center&quot;&gt;[%c4Technology%]&lt;/div&gt;&lt;/div&gt;" id="yKnpGMz3PJO0_-KO3qRB-82">
          <mxCell style="endArrow=blockThin;html=1;fontSize=10;fontColor=#404040;strokeWidth=1;endFill=1;strokeColor=#82b366;elbow=vertical;metaEdit=1;endSize=14;startSize=14;jumpStyle=arc;jumpSize=16;rounded=0;exitX=0.25;exitY=1;exitDx=0;exitDy=0;entryX=0.25;entryY=0;entryDx=0;entryDy=0;edgeStyle=orthogonalEdgeStyle;curved=1;fillColor=#d5e8d4;" parent="yKnpGMz3PJO0_-KO3qRB-1" source="yKnpGMz3PJO0_-KO3qRB-17" target="yKnpGMz3PJO0_-KO3qRB-6" edge="1">
            <mxGeometry x="-0.1391" width="240" relative="1" as="geometry">
              <mxPoint x="731" y="76" as="sourcePoint" />
              <mxPoint x="579" y="276" as="targetPoint" />
              <mxPoint as="offset" />
            </mxGeometry>
          </mxCell>
        </object>
        <mxCell id="yKnpGMz3PJO0_-KO3qRB-95" value="" style="group" parent="yKnpGMz3PJO0_-KO3qRB-1" vertex="1" connectable="0">
          <mxGeometry x="530" y="-20" width="160" height="220" as="geometry" />
        </mxCell>
        <mxCell id="yKnpGMz3PJO0_-KO3qRB-96" value="" style="group" parent="yKnpGMz3PJO0_-KO3qRB-95" vertex="1" connectable="0">
          <mxGeometry width="160" height="220.00000000000003" as="geometry" />
        </mxCell>
        <mxCell id="yKnpGMz3PJO0_-KO3qRB-97" value="&lt;b&gt;External Systems&lt;/b&gt;" style="rounded=1;whiteSpace=wrap;html=1;fillColor=none;dashed=1;arcSize=5;verticalAlign=bottom;align=left;spacingLeft=5;spacingTop=-2;" parent="yKnpGMz3PJO0_-KO3qRB-96" vertex="1">
          <mxGeometry width="160" height="220.00000000000003" as="geometry" />
        </mxCell>
        <mxCell id="yKnpGMz3PJO0_-KO3qRB-98" value="Docusign" style="rounded=0;whiteSpace=wrap;html=1;verticalAlign=middle;fillColor=#ffe6cc;strokeColor=#d79b00;" parent="yKnpGMz3PJO0_-KO3qRB-96" vertex="1">
          <mxGeometry x="20" y="22.450000000000003" width="120" height="35.1" as="geometry" />
        </mxCell>
        <mxCell id="yKnpGMz3PJO0_-KO3qRB-99" value="VIES" style="rounded=0;whiteSpace=wrap;html=1;verticalAlign=middle;fillColor=#ffe6cc;strokeColor=#d79b00;" parent="yKnpGMz3PJO0_-KO3qRB-96" vertex="1">
          <mxGeometry x="20" y="70" width="120" height="35.1" as="geometry" />
        </mxCell>
        <mxCell id="yKnpGMz3PJO0_-KO3qRB-100" style="edgeStyle=orthogonalEdgeStyle;rounded=0;orthogonalLoop=1;jettySize=auto;html=1;exitX=0.5;exitY=1;exitDx=0;exitDy=0;" parent="yKnpGMz3PJO0_-KO3qRB-96" source="yKnpGMz3PJO0_-KO3qRB-98" target="yKnpGMz3PJO0_-KO3qRB-98" edge="1">
          <mxGeometry relative="1" as="geometry" />
        </mxCell>
        <object placeholders="1" c4Type="Relationship" c4Technology="HTTPS" c4Description="DocuSign Request" label="&lt;div style=&quot;text-align: left&quot;&gt;&lt;div style=&quot;text-align: center&quot;&gt;&lt;b&gt;%c4Description%&lt;/b&gt;&lt;/div&gt;&lt;div style=&quot;text-align: center&quot;&gt;[%c4Technology%]&lt;/div&gt;&lt;/div&gt;" id="yKnpGMz3PJO0_-KO3qRB-101">
          <mxCell style="endArrow=blockThin;html=1;fontSize=10;fontColor=#404040;strokeWidth=1;endFill=1;strokeColor=#d79b00;elbow=vertical;metaEdit=1;endSize=14;startSize=14;jumpStyle=arc;jumpSize=16;rounded=0;exitX=1;exitY=0.5;exitDx=0;exitDy=0;fillColor=#ffe6cc;entryX=0;entryY=0.5;entryDx=0;entryDy=0;edgeStyle=orthogonalEdgeStyle;curved=1;" parent="yKnpGMz3PJO0_-KO3qRB-1" source="yKnpGMz3PJO0_-KO3qRB-17" target="yKnpGMz3PJO0_-KO3qRB-98" edge="1">
            <mxGeometry x="-0.4506" width="240" relative="1" as="geometry">
              <mxPoint x="296" y="30" as="sourcePoint" />
              <mxPoint x="596" y="30" as="targetPoint" />
              <mxPoint as="offset" />
              <Array as="points">
                <mxPoint x="280" y="20" />
              </Array>
            </mxGeometry>
          </mxCell>
        </object>
        <object placeholders="1" c4Type="Relationship" c4Technology="HTTPS" c4Description="VIES Request" label="&lt;div style=&quot;text-align: left&quot;&gt;&lt;div style=&quot;text-align: center&quot;&gt;&lt;b&gt;%c4Description%&lt;/b&gt;&lt;/div&gt;&lt;div style=&quot;text-align: center&quot;&gt;[%c4Technology%]&lt;/div&gt;&lt;/div&gt;" id="yKnpGMz3PJO0_-KO3qRB-102">
          <mxCell style="endArrow=blockThin;html=1;fontSize=10;fontColor=#404040;strokeWidth=1;endFill=1;strokeColor=#d79b00;elbow=vertical;metaEdit=1;endSize=14;startSize=14;jumpStyle=arc;jumpSize=16;rounded=0;fillColor=#ffe6cc;entryX=0;entryY=0.5;entryDx=0;entryDy=0;exitX=1;exitY=0.5;exitDx=0;exitDy=0;edgeStyle=orthogonalEdgeStyle;curved=1;" parent="yKnpGMz3PJO0_-KO3qRB-1" source="yKnpGMz3PJO0_-KO3qRB-17" target="yKnpGMz3PJO0_-KO3qRB-99" edge="1">
            <mxGeometry x="-0.4506" width="240" relative="1" as="geometry">
              <mxPoint x="290" y="60" as="sourcePoint" />
              <mxPoint x="560" y="30" as="targetPoint" />
              <mxPoint as="offset" />
              <Array as="points">
                <mxPoint x="280" y="68" />
              </Array>
            </mxGeometry>
          </mxCell>
        </object>
        <object placeholders="1" c4Type="Relationship" c4Technology="HTTPS" c4Description="DocuSign Request" label="&lt;div style=&quot;text-align: left&quot;&gt;&lt;div style=&quot;text-align: center&quot;&gt;&lt;b&gt;%c4Description%&lt;/b&gt;&lt;/div&gt;&lt;div style=&quot;text-align: center&quot;&gt;[%c4Technology%]&lt;/div&gt;&lt;/div&gt;" id="yKnpGMz3PJO0_-KO3qRB-103">
          <mxCell style="endArrow=blockThin;html=1;fontSize=10;fontColor=#404040;strokeWidth=1;endFill=1;strokeColor=#d79b00;elbow=vertical;metaEdit=1;endSize=14;startSize=14;jumpStyle=arc;jumpSize=16;rounded=0;exitX=1;exitY=0.5;exitDx=0;exitDy=0;fillColor=#ffe6cc;entryX=0;entryY=0.5;entryDx=0;entryDy=0;" parent="yKnpGMz3PJO0_-KO3qRB-1" source="yKnpGMz3PJO0_-KO3qRB-55" target="yKnpGMz3PJO0_-KO3qRB-98" edge="1">
            <mxGeometry x="-0.4506" width="240" relative="1" as="geometry">
              <mxPoint x="402" y="530.5" as="sourcePoint" />
              <mxPoint x="670" y="200" as="targetPoint" />
              <mxPoint as="offset" />
            </mxGeometry>
          </mxCell>
        </object>
        <mxCell id="XcxAw1el2RrNG50dflbq-0" value="" style="group" parent="yKnpGMz3PJO0_-KO3qRB-1" vertex="1" connectable="0">
          <mxGeometry x="-460" y="1249" width="844" height="419" as="geometry" />
        </mxCell>
        <mxCell id="yKnpGMz3PJO0_-KO3qRB-2" value="&lt;b&gt;CORE PLATFORM&lt;/b&gt;&lt;br&gt;&lt;font style=&quot;font-size: 10px;&quot;&gt;&lt;i&gt;Chat orchestration and user interaction&lt;/i&gt;&lt;/font&gt;" style="rounded=1;whiteSpace=wrap;html=1;fillColor=none;dashed=1;arcSize=4;verticalAlign=bottom;align=left;spacingLeft=5;spacingTop=-2;spacingRight=5;" parent="XcxAw1el2RrNG50dflbq-0" vertex="1">
          <mxGeometry width="844" height="419" as="geometry" />
        </mxCell>
        <mxCell id="yKnpGMz3PJO0_-KO3qRB-66" value="" style="group" parent="XcxAw1el2RrNG50dflbq-0" vertex="1" connectable="0">
          <mxGeometry x="22.783783783783782" y="22.52688172043011" width="144.5893970893971" height="176.9261290322581" as="geometry" />
        </mxCell>
        <mxCell id="yKnpGMz3PJO0_-KO3qRB-67" value="DocumentGeneration" style="rounded=0;whiteSpace=wrap;html=1;verticalAlign=top;fillColor=#d5e8d4;strokeColor=#82b366;" parent="yKnpGMz3PJO0_-KO3qRB-66" vertex="1">
          <mxGeometry width="144.5893970893971" height="133.1702046479362" as="geometry" />
        </mxCell>
        <mxCell id="yKnpGMz3PJO0_-KO3qRB-68" value="Generation of the documents" style="rounded=0;whiteSpace=wrap;html=1;verticalAlign=middle;fontSize=10;strokeColor=none;" parent="yKnpGMz3PJO0_-KO3qRB-66" vertex="1">
          <mxGeometry x="6.028939708939709" y="47.560787374262944" width="132.54028066528068" height="55.170513354144994" as="geometry" />
        </mxCell>
        <mxCell id="yKnpGMz3PJO0_-KO3qRB-69" value="&lt;span style=&quot;font-size: 10px;&quot;&gt;Project&lt;/span&gt;&lt;div&gt;&lt;span style=&quot;font-size: 10px;&quot;&gt;Document&lt;/span&gt;&lt;/div&gt;" style="rounded=0;whiteSpace=wrap;html=1;fillColor=#fff2cc;strokeColor=#d6b656;" parent="yKnpGMz3PJO0_-KO3qRB-66" vertex="1">
          <mxGeometry x="6.028939708939709" y="114.14588969823104" width="132.54028066528068" height="62.78023933402707" as="geometry" />
        </mxCell>
        <mxCell id="yKnpGMz3PJO0_-KO3qRB-78" value="" style="group" parent="XcxAw1el2RrNG50dflbq-0" vertex="1" connectable="0">
          <mxGeometry x="177.8887733887734" y="22.52688172043011" width="144.5893970893971" height="173.45698924731184" as="geometry" />
        </mxCell>
        <mxCell id="yKnpGMz3PJO0_-KO3qRB-79" value="Template Processing" style="rounded=0;whiteSpace=wrap;html=1;verticalAlign=top;fillColor=#d5e8d4;strokeColor=#82b366;" parent="yKnpGMz3PJO0_-KO3qRB-78" vertex="1">
          <mxGeometry width="144.5893970893971" height="151.77486559139783" as="geometry" />
        </mxCell>
        <mxCell id="yKnpGMz3PJO0_-KO3qRB-80" value="Validate the parameters of the documents" style="rounded=0;whiteSpace=wrap;html=1;verticalAlign=middle;fontSize=10;strokeColor=none;" parent="yKnpGMz3PJO0_-KO3qRB-78" vertex="1">
          <mxGeometry x="6.024558212058213" y="65.04637096774195" width="132.54028066528068" height="43.36424731182796" as="geometry" />
        </mxCell>
        <mxCell id="yKnpGMz3PJO0_-KO3qRB-81" value="&lt;font style=&quot;font-size: 10px;&quot;&gt;Documents&lt;/font&gt;" style="rounded=0;whiteSpace=wrap;html=1;fillColor=#fff2cc;strokeColor=#d6b656;" parent="yKnpGMz3PJO0_-KO3qRB-78" vertex="1">
          <mxGeometry x="6.024558212058213" y="130.0927419354839" width="132.54028066528068" height="43.36424731182796" as="geometry" />
        </mxCell>
        <mxCell id="rAv87xQ668atzJ1Q7tRa-0" value="" style="group" parent="XcxAw1el2RrNG50dflbq-0" vertex="1" connectable="0">
          <mxGeometry x="335.6226611226611" y="209.9968817204301" width="144.5893970893971" height="173.45698924731184" as="geometry" />
        </mxCell>
        <mxCell id="rAv87xQ668atzJ1Q7tRa-1" value="Notification for Projects" style="rounded=0;whiteSpace=wrap;html=1;verticalAlign=top;fillColor=#d5e8d4;strokeColor=#82b366;" parent="rAv87xQ668atzJ1Q7tRa-0" vertex="1">
          <mxGeometry width="144.5893970893971" height="151.77486559139783" as="geometry" />
        </mxCell>
        <mxCell id="rAv87xQ668atzJ1Q7tRa-2" value="Generate Task Notifications for each project&amp;nbsp;&lt;div&gt;Generate Signature Notifications for each project&amp;nbsp;&lt;/div&gt;" style="rounded=0;whiteSpace=wrap;html=1;verticalAlign=middle;fontSize=10;strokeColor=none;" parent="rAv87xQ668atzJ1Q7tRa-0" vertex="1">
          <mxGeometry x="6.02" y="37" width="132.54" height="71.41" as="geometry" />
        </mxCell>
        <mxCell id="rAv87xQ668atzJ1Q7tRa-3" value="&lt;font style=&quot;font-size: 10px;&quot;&gt;Project&lt;/font&gt;&lt;div&gt;&lt;font style=&quot;font-size: 10px;&quot;&gt;Notification&lt;/font&gt;&lt;/div&gt;&lt;div&gt;&lt;font style=&quot;font-size: 10px;&quot;&gt;Task&lt;/font&gt;&lt;/div&gt;" style="rounded=0;whiteSpace=wrap;html=1;fillColor=#fff2cc;strokeColor=#d6b656;" parent="rAv87xQ668atzJ1Q7tRa-0" vertex="1">
          <mxGeometry x="6.024558212058213" y="130.0927419354839" width="132.54028066528068" height="43.36424731182796" as="geometry" />
        </mxCell>
        <mxCell id="wtvWP6QD2xvlbpXT-i9e-0" value="" style="group" parent="XcxAw1el2RrNG50dflbq-0" vertex="1" connectable="0">
          <mxGeometry x="333.8700623700624" y="22.99688172043011" width="144.5893970893971" height="176.9261290322581" as="geometry" />
        </mxCell>
        <mxCell id="wtvWP6QD2xvlbpXT-i9e-1" value="Report Generation" style="rounded=0;whiteSpace=wrap;html=1;verticalAlign=top;fillColor=#d5e8d4;strokeColor=#82b366;" parent="wtvWP6QD2xvlbpXT-i9e-0" vertex="1">
          <mxGeometry width="144.5893970893971" height="133.1702046479362" as="geometry" />
        </mxCell>
        <mxCell id="wtvWP6QD2xvlbpXT-i9e-2" value="Generation of the Reports" style="rounded=0;whiteSpace=wrap;html=1;verticalAlign=middle;fontSize=10;strokeColor=none;" parent="wtvWP6QD2xvlbpXT-i9e-0" vertex="1">
          <mxGeometry x="6.028939708939709" y="47.560787374262944" width="132.54028066528068" height="55.170513354144994" as="geometry" />
        </mxCell>
        <mxCell id="wtvWP6QD2xvlbpXT-i9e-3" value="&lt;span style=&quot;font-size: 10px;&quot;&gt;Project&lt;/span&gt;&lt;div&gt;&lt;span style=&quot;font-size: 10px;&quot;&gt;Document&lt;/span&gt;&lt;/div&gt;" style="rounded=0;whiteSpace=wrap;html=1;fillColor=#fff2cc;strokeColor=#d6b656;" parent="wtvWP6QD2xvlbpXT-i9e-0" vertex="1">
          <mxGeometry x="6.028939708939709" y="114.14588969823104" width="132.54028066528068" height="62.78023933402707" as="geometry" />
        </mxCell>
        <mxCell id="wtvWP6QD2xvlbpXT-i9e-4" value="" style="group" parent="XcxAw1el2RrNG50dflbq-0" vertex="1" connectable="0">
          <mxGeometry x="14.897089397089397" y="207.9968817204301" width="144.5893970893971" height="176.9261290322581" as="geometry" />
        </mxCell>
        <mxCell id="wtvWP6QD2xvlbpXT-i9e-5" value="Project Generation" style="rounded=0;whiteSpace=wrap;html=1;verticalAlign=top;fillColor=#d5e8d4;strokeColor=#82b366;" parent="wtvWP6QD2xvlbpXT-i9e-4" vertex="1">
          <mxGeometry width="144.5893970893971" height="133.1702046479362" as="geometry" />
        </mxCell>
        <mxCell id="wtvWP6QD2xvlbpXT-i9e-6" value="Generation of the Projects every FY" style="rounded=0;whiteSpace=wrap;html=1;verticalAlign=middle;fontSize=10;strokeColor=none;" parent="wtvWP6QD2xvlbpXT-i9e-4" vertex="1">
          <mxGeometry x="6.028939708939709" y="47.560787374262944" width="132.54028066528068" height="55.170513354144994" as="geometry" />
        </mxCell>
        <mxCell id="wtvWP6QD2xvlbpXT-i9e-7" value="&lt;span style=&quot;font-size: 10px;&quot;&gt;Project&lt;/span&gt;" style="rounded=0;whiteSpace=wrap;html=1;fillColor=#fff2cc;strokeColor=#d6b656;" parent="wtvWP6QD2xvlbpXT-i9e-4" vertex="1">
          <mxGeometry x="6.028939708939709" y="114.14588969823104" width="132.54028066528068" height="62.78023933402707" as="geometry" />
        </mxCell>
        <mxCell id="wtvWP6QD2xvlbpXT-i9e-8" value="" style="group" parent="XcxAw1el2RrNG50dflbq-0" vertex="1" connectable="0">
          <mxGeometry x="177.8887733887734" y="207.9968817204301" width="144.5893970893971" height="176.9261290322581" as="geometry" />
        </mxCell>
        <mxCell id="wtvWP6QD2xvlbpXT-i9e-9" value="Task Generation" style="rounded=0;whiteSpace=wrap;html=1;verticalAlign=top;fillColor=#d5e8d4;strokeColor=#82b366;" parent="wtvWP6QD2xvlbpXT-i9e-8" vertex="1">
          <mxGeometry width="144.5893970893971" height="133.1702046479362" as="geometry" />
        </mxCell>
        <mxCell id="wtvWP6QD2xvlbpXT-i9e-10" value="Generation of the Projects every FY" style="rounded=0;whiteSpace=wrap;html=1;verticalAlign=middle;fontSize=10;strokeColor=none;" parent="wtvWP6QD2xvlbpXT-i9e-8" vertex="1">
          <mxGeometry x="6.028939708939709" y="47.560787374262944" width="132.54028066528068" height="55.170513354144994" as="geometry" />
        </mxCell>
        <mxCell id="wtvWP6QD2xvlbpXT-i9e-11" value="&lt;span style=&quot;font-size: 10px;&quot;&gt;Project&lt;/span&gt;&lt;div&gt;&lt;span style=&quot;font-size: 10px;&quot;&gt;Task&lt;/span&gt;&lt;/div&gt;" style="rounded=0;whiteSpace=wrap;html=1;fillColor=#fff2cc;strokeColor=#d6b656;" parent="wtvWP6QD2xvlbpXT-i9e-8" vertex="1">
          <mxGeometry x="6.028939708939709" y="114.14588969823104" width="132.54028066528068" height="62.78023933402707" as="geometry" />
        </mxCell>
        <object placeholders="1" c4Type="Relationship" c4Technology="AMQP" c4Description="Document event" label="&lt;div style=&quot;text-align: left&quot;&gt;&lt;div style=&quot;text-align: center&quot;&gt;&lt;b&gt;%c4Description%&lt;/b&gt;&lt;/div&gt;&lt;div style=&quot;text-align: center&quot;&gt;[%c4Technology%]&lt;/div&gt;&lt;/div&gt;" id="wtvWP6QD2xvlbpXT-i9e-13">
          <mxCell style="endArrow=blockThin;html=1;fontSize=10;fontColor=#404040;strokeWidth=1;endFill=1;strokeColor=#6c8ebf;elbow=vertical;metaEdit=1;endSize=14;startSize=14;jumpStyle=arc;jumpSize=16;rounded=0;exitX=0;exitY=0.5;exitDx=0;exitDy=0;fillColor=#dae8fc;entryX=0.5;entryY=0;entryDx=0;entryDy=0;" parent="yKnpGMz3PJO0_-KO3qRB-1" source="yKnpGMz3PJO0_-KO3qRB-55" target="yKnpGMz3PJO0_-KO3qRB-67" edge="1">
            <mxGeometry x="-0.0464" y="1" width="240" relative="1" as="geometry">
              <mxPoint x="501" y="1066.0000000000005" as="sourcePoint" />
              <mxPoint x="604.5" y="1067.0000000000005" as="targetPoint" />
              <mxPoint as="offset" />
            </mxGeometry>
          </mxCell>
        </object>
        <object placeholders="1" c4Type="Relationship" c4Technology="AMQP" c4Description="Document Validation event" label="&lt;div style=&quot;text-align: left&quot;&gt;&lt;div style=&quot;text-align: center&quot;&gt;&lt;b&gt;%c4Description%&lt;/b&gt;&lt;/div&gt;&lt;div style=&quot;text-align: center&quot;&gt;[%c4Technology%]&lt;/div&gt;&lt;/div&gt;" id="wtvWP6QD2xvlbpXT-i9e-14">
          <mxCell style="endArrow=blockThin;html=1;fontSize=10;fontColor=#404040;strokeWidth=1;endFill=1;strokeColor=#6c8ebf;elbow=vertical;metaEdit=1;endSize=14;startSize=14;jumpStyle=arc;jumpSize=16;rounded=0;exitX=0;exitY=0.5;exitDx=0;exitDy=0;fillColor=#dae8fc;entryX=0.5;entryY=0;entryDx=0;entryDy=0;" parent="yKnpGMz3PJO0_-KO3qRB-1" source="yKnpGMz3PJO0_-KO3qRB-55" target="yKnpGMz3PJO0_-KO3qRB-79" edge="1">
            <mxGeometry x="-0.3745" y="30" width="240" relative="1" as="geometry">
              <mxPoint x="587" y="930" as="sourcePoint" />
              <mxPoint x="134" y="1432" as="targetPoint" />
              <mxPoint as="offset" />
            </mxGeometry>
          </mxCell>
        </object>
        <object placeholders="1" c4Type="Relationship" c4Technology="AMQP" c4Description="Report Event" label="&lt;div style=&quot;text-align: left&quot;&gt;&lt;div style=&quot;text-align: center&quot;&gt;&lt;b&gt;%c4Description%&lt;/b&gt;&lt;/div&gt;&lt;div style=&quot;text-align: center&quot;&gt;[%c4Technology%]&lt;/div&gt;&lt;/div&gt;" id="wtvWP6QD2xvlbpXT-i9e-15">
          <mxCell style="endArrow=blockThin;html=1;fontSize=10;fontColor=#404040;strokeWidth=1;endFill=1;strokeColor=#6c8ebf;elbow=vertical;metaEdit=1;endSize=14;startSize=14;jumpStyle=arc;jumpSize=16;rounded=0;exitX=1;exitY=0.5;exitDx=0;exitDy=0;fillColor=#dae8fc;entryX=0.5;entryY=0;entryDx=0;entryDy=0;" parent="yKnpGMz3PJO0_-KO3qRB-1" source="yKnpGMz3PJO0_-KO3qRB-43" target="wtvWP6QD2xvlbpXT-i9e-1" edge="1">
            <mxGeometry x="-0.4506" width="240" relative="1" as="geometry">
              <mxPoint x="647" y="880" as="sourcePoint" />
              <mxPoint x="371" y="1382" as="targetPoint" />
              <mxPoint as="offset" />
            </mxGeometry>
          </mxCell>
        </object>
      </root>
    </mxGraphModel>
  </diagram>
</mxfile>
